<svg width="330" height="294" viewBox="0 0 330 294" fill="none" xmlns="http://www.w3.org/2000/svg">
    <path d="M1.95039 272.9C5.7014 281.501 14.0342 286.765 22.5663 291.044C23.7577 291.641 24.9471 292.222 26.1347 292.785C26.1425 292.787 26.151 292.793 26.159 292.795C26.2161 292.822 26.2733 292.849 26.3269 292.877C26.5719 292.993 26.8171 293.109 27.06 293.224L26.9443 293.295L26.5834 293.517C26.7084 293.445 26.8321 293.376 26.9571 293.304C26.9942 293.282 27.0335 293.262 27.0705 293.24C31.3767 290.797 35.7459 288.208 38.7772 284.299C41.9212 280.241 43.2939 274.348 40.7153 269.907C40.3766 269.325 39.9743 268.783 39.5157 268.291C39.3268 268.084 39.127 267.889 38.9206 267.698C37.666 266.52 36.121 265.697 34.4444 265.316C32.7679 264.935 31.0202 265.008 29.3813 265.528C27.7423 266.049 26.2712 266.997 25.1191 268.277C23.967 269.556 23.1756 271.12 22.8262 272.808C21.5422 267.514 25.3652 262.429 29.1775 258.546C32.992 254.664 37.347 250.41 37.4642 244.961C37.4614 243.479 37.1458 242.014 36.5381 240.663C35.9303 239.312 35.0443 238.106 33.9382 237.123C33.8708 237.06 33.8035 236.998 33.7346 236.937C31.094 234.548 27.6517 233.246 24.0951 233.29C17.4851 233.476 11.6083 237.777 7.47133 242.95C0.81251 251.275 -2.31403 263.12 1.95039 272.9Z"
          fill="#F2F2F2"/>
    <path d="M12.6626 259.577C11.6689 261.696 10.9885 263.948 10.643 266.263C10.365 268.328 10.3964 270.423 10.7363 272.478C11.4715 276.704 13.208 280.69 15.7997 284.103C17.7546 286.693 20.0282 289.025 22.5664 291.044C23.7577 291.641 24.9472 292.222 26.1347 292.785C26.1425 292.787 26.1511 292.793 26.159 292.796C26.2161 292.823 26.2733 292.85 26.3269 292.877C26.5719 292.993 26.8171 293.109 27.06 293.224L26.9444 293.295L26.5834 293.517C26.7084 293.445 26.8321 293.376 26.9571 293.304C26.9942 293.283 27.0335 293.262 27.0705 293.241C26.2205 289.943 26.1711 286.489 26.9265 283.169C27.6819 279.849 29.2201 276.758 31.4121 274.156C33.6147 271.588 36.3914 269.579 39.5158 268.291C39.3269 268.084 39.127 267.889 38.9206 267.698C37.7166 268.216 36.5605 268.839 35.466 269.561C31.5516 272.128 28.5657 275.89 26.9501 280.292C25.5061 284.285 25.2284 288.608 26.1496 292.754C25.9403 292.609 25.7302 292.461 25.5261 292.313C21.5763 289.602 18.1576 286.185 15.4404 282.234C13.1593 278.848 11.7437 274.952 11.318 270.888C10.9049 266.451 12.1197 262.128 14.1902 258.231C16.473 254.063 19.3135 250.228 22.6328 246.832C25.9687 243.341 29.7182 240.272 33.7977 237.693C33.8896 237.635 33.9555 237.542 33.9816 237.436C34.0078 237.33 33.9922 237.218 33.9382 237.123C33.8973 237.037 33.8242 236.97 33.7346 236.938C33.689 236.925 33.6411 236.922 33.5945 236.931C33.5478 236.939 33.5036 236.957 33.4652 236.985C32.9616 237.304 32.4621 237.625 31.9683 237.957C27.8558 240.722 24.1017 243.988 20.7923 247.68C17.5034 251.215 14.7629 255.226 12.6626 259.577V259.577Z"
          fill="white"/>
    <path d="M150.902 199C150.384 198.998 149.88 198.831 149.462 198.525L145.992 196.011C145.704 195.802 145.356 195.69 145 195.69C144.644 195.69 144.296 195.802 144.008 196.011L140.538 198.525C140.119 198.828 139.615 198.991 139.098 198.991C138.58 198.991 138.076 198.828 137.658 198.525C137.239 198.222 136.928 197.794 136.768 197.304C136.608 196.813 136.608 196.285 136.768 195.795L138.093 191.728C138.204 191.39 138.204 191.026 138.094 190.688C137.984 190.35 137.769 190.056 137.48 189.847L134.01 187.334C133.591 187.031 133.28 186.603 133.12 186.113C132.96 185.622 132.96 185.094 133.12 184.604C133.28 184.113 133.591 183.686 134.01 183.383C134.428 183.08 134.933 182.916 135.45 182.916H139.739C140.096 182.917 140.443 182.805 140.732 182.596C141.02 182.387 141.235 182.092 141.344 181.754L142.67 177.688C142.83 177.197 143.141 176.77 143.56 176.466C143.978 176.163 144.483 176 145 176C145.517 176 146.022 176.163 146.44 176.466C146.859 176.77 147.17 177.197 147.33 177.688L148.656 181.754C148.765 182.092 148.98 182.387 149.268 182.596C149.557 182.805 149.904 182.917 150.261 182.916H154.55C155.068 182.916 155.572 183.08 155.99 183.383C156.409 183.686 156.72 184.113 156.88 184.604C157.04 185.094 157.04 185.622 156.88 186.113C156.72 186.603 156.409 187.031 155.99 187.334L152.52 189.847C152.231 190.056 152.016 190.35 151.906 190.688C151.796 191.026 151.796 191.39 151.907 191.728L153.232 195.795C153.398 196.285 153.401 196.815 153.241 197.306C153.08 197.798 152.765 198.225 152.342 198.525C151.925 198.831 151.421 198.998 150.902 199V199Z"
          fill="#F9A826"/>
    <path d="M97.0421 116.065C104.34 116.065 110.257 110.133 110.257 102.816C110.257 95.4984 104.34 89.5664 97.0421 89.5664C89.7439 89.5664 83.8276 95.4984 83.8276 102.816C83.8276 110.133 89.7439 116.065 97.0421 116.065Z"
          fill="#A0616A"/>
    <path d="M92.2708 181.214C92.1044 181.214 91.9372 181.207 91.7693 181.192C90.9382 181.123 90.1312 180.878 89.401 180.474C88.6709 180.07 88.0341 179.515 87.5325 178.847C87.0309 178.179 86.6757 177.413 86.4902 176.597C86.3048 175.782 86.2932 174.937 86.4563 174.117C86.4949 173.926 86.5434 173.738 86.6016 173.552L67.0982 150.425C66.4627 149.665 66.0884 148.72 66.0308 147.731C65.9731 146.741 66.2353 145.759 66.7783 144.931L66.8137 144.887L84.3691 127.531C84.8464 127.059 85.4123 126.687 86.0339 126.436C86.6556 126.184 87.3207 126.059 87.991 126.067C88.6612 126.075 89.3233 126.215 89.9389 126.481C90.5546 126.747 91.1116 127.133 91.5778 127.615C92.0441 128.098 92.4103 128.669 92.6553 129.295C92.9003 129.92 93.0193 130.588 93.0054 131.26C92.9915 131.932 92.845 132.594 92.5743 133.209C92.3036 133.824 91.9141 134.379 91.4283 134.842L78.7135 146.962L92.6331 169.362C92.8967 169.376 93.1591 169.408 93.4182 169.459C94.858 169.747 96.1396 170.561 97.0142 171.744C97.8888 172.926 98.2939 174.392 98.1509 175.857C98.0079 177.322 97.327 178.682 96.2404 179.672C95.1538 180.662 93.739 181.211 92.2708 181.214L92.2708 181.214Z"
          fill="#A0616A"/>
    <path d="M118.806 287.213L125.402 287.213L128.54 261.703L118.805 261.704L118.806 287.213Z" fill="#A0616A"/>
    <path d="M117.124 285.055L130.113 285.055H130.114C131.201 285.055 132.278 285.269 133.282 285.686C134.286 286.104 135.199 286.715 135.968 287.486C136.736 288.256 137.346 289.171 137.762 290.178C138.178 291.185 138.392 292.265 138.392 293.355V293.625L117.124 293.625L117.124 285.055Z"
          fill="#2F2E41"/>
    <path d="M53.2446 278.071L58.9122 281.454L74.6252 261.145L66.2605 256.152L53.2446 278.071Z" fill="#A0616A"/>
    <path d="M52.901 275.352L64.0624 282.015L64.0629 282.015C64.997 282.573 65.8124 283.309 66.4625 284.183C67.1126 285.056 67.5848 286.05 67.852 287.106C68.1192 288.163 68.1762 289.262 68.0198 290.341C67.8634 291.419 67.4966 292.456 66.9404 293.393L66.8028 293.625L48.5283 282.715L52.901 275.352Z"
          fill="#2F2E41"/>
    <path d="M126.959 278.205H119.573C118.975 278.206 118.397 277.984 117.953 277.583C117.508 277.182 117.227 276.63 117.165 276.034L109.719 205.853C109.7 205.677 109.624 205.511 109.502 205.382C109.38 205.253 109.219 205.168 109.044 205.14C108.869 205.112 108.69 205.142 108.534 205.226C108.378 205.31 108.254 205.444 108.181 205.606L94.7474 235.43L70.9645 274.313C70.6567 274.812 70.1801 275.182 69.622 275.357C69.0639 275.532 68.4617 275.5 67.9255 275.266L58.4245 271.074C58.1103 270.936 57.8291 270.732 57.5996 270.476C57.3701 270.22 57.1974 269.918 57.0931 269.59C56.9888 269.262 56.9551 268.916 56.9944 268.574C57.0338 268.232 57.1451 267.903 57.3211 267.607L79.1841 230.902L85.8893 199.977C83.7805 186.565 92.8211 166.626 92.9128 166.426L92.9576 166.329L120.142 155.426L120.267 155.579C136.42 175.349 133.791 223.813 129.372 275.981C129.318 276.586 129.04 277.149 128.594 277.56C128.148 277.971 127.565 278.201 126.959 278.205V278.205Z"
          fill="#2F2E41"/>
    <path d="M91.9542 169.597L91.8382 169.353C91.7828 169.236 86.2454 157.526 81.9768 145.011C81.1565 142.591 80.8463 140.026 81.0661 137.479C81.2858 134.933 82.0307 132.46 83.2534 130.217C84.4921 127.95 86.1866 125.967 88.2298 124.392C90.2729 122.816 92.6201 121.684 95.1226 121.065V121.065C99.467 120.021 104.041 120.577 108.011 122.631C111.981 124.685 115.083 128.1 116.752 132.255C120.138 140.745 121.34 148.663 120.325 155.789L120.304 155.932L120.175 155.994L91.9542 169.597Z"
          fill="#8C2BE3"/>
    <path d="M138.451 188.594C137.89 189.298 137.18 189.869 136.373 190.265C135.566 190.662 134.681 190.874 133.783 190.887V190.887C132.963 190.898 132.149 190.743 131.391 190.431C130.632 190.12 129.944 189.657 129.369 189.072C128.793 188.487 128.341 187.791 128.04 187.027C127.739 186.262 127.595 185.445 127.617 184.623C127.627 184.322 127.659 184.023 127.714 183.727L101.693 135.136C101.353 134.59 101.124 133.983 101.019 133.348C100.913 132.713 100.934 132.063 101.08 131.437C101.226 130.81 101.494 130.218 101.869 129.696C102.244 129.173 102.718 128.73 103.265 128.392C103.811 128.054 104.418 127.827 105.052 127.726C105.686 127.624 106.334 127.649 106.958 127.799C107.582 127.949 108.171 128.221 108.69 128.6C109.209 128.978 109.648 129.456 109.982 130.006L135.402 178.938C136.361 179.218 137.236 179.73 137.951 180.43C138.666 181.129 139.197 181.995 139.499 182.949C139.8 183.904 139.862 184.919 139.68 185.903C139.497 186.888 139.075 187.812 138.451 188.594V188.594Z"
          fill="#A0616A"/>
    <path d="M113.064 95.3297H92.0811V86.1591C96.6866 84.3245 101.193 82.7644 103.918 86.1591C106.343 86.1591 108.67 87.1253 110.385 88.8451C112.1 90.5649 113.064 92.8975 113.064 95.3297Z"
          fill="#2F2E41"/>
    <path d="M90.9194 84.543C78.3753 84.543 74.8643 100.308 74.8643 109.202C74.8643 114.162 77.1015 115.936 80.617 116.536L81.8586 109.897L84.7665 116.822C85.754 116.827 86.7914 116.808 87.867 116.788L88.8529 114.752L91.0515 116.751C99.8572 116.764 106.974 118.051 106.974 109.202C106.974 100.308 103.895 84.543 90.9194 84.543Z"
          fill="#2F2E41"/>
    <path d="M204.716 85.7718C207.093 85.7718 209.021 83.8397 209.021 81.4562C209.021 79.0728 207.093 77.1406 204.716 77.1406C202.339 77.1406 200.412 79.0728 200.412 81.4562C200.412 83.8397 202.339 85.7718 204.716 85.7718Z"
          fill="#CCCCCC"/>
    <path d="M313.397 81.9969H218.705C218.562 81.9969 218.425 81.94 218.325 81.8389C218.224 81.7377 218.167 81.6005 218.167 81.4574C218.167 81.3143 218.224 81.1771 218.325 81.076C218.425 80.9748 218.562 80.918 218.705 80.918H313.397C313.54 80.918 313.677 80.9748 313.778 81.076C313.879 81.1771 313.935 81.3143 313.935 81.4574C313.935 81.6005 313.879 81.7377 313.778 81.8389C313.677 81.94 313.54 81.9969 313.397 81.9969Z"
          fill="#3F3D56"/>
    <path d="M313.397 92.2469H218.705C218.562 92.2469 218.425 92.19 218.325 92.0889C218.224 91.9877 218.167 91.8505 218.167 91.7074C218.167 91.5643 218.224 91.4271 218.325 91.326C218.425 91.2248 218.562 91.168 218.705 91.168H313.397C313.54 91.168 313.677 91.2248 313.778 91.326C313.879 91.4271 313.935 91.5643 313.935 91.7074C313.935 91.8505 313.879 91.9877 313.778 92.0889C313.677 92.19 313.54 92.2469 313.397 92.2469Z"
          fill="#3F3D56"/>
    <path d="M313.397 102.497H218.705C218.562 102.497 218.425 102.44 218.325 102.339C218.224 102.238 218.167 102.1 218.167 101.957C218.167 101.814 218.224 101.677 218.325 101.576C218.425 101.475 218.562 101.418 218.705 101.418H313.397C313.54 101.418 313.677 101.475 313.778 101.576C313.879 101.677 313.935 101.814 313.935 101.957C313.935 102.1 313.879 102.238 313.778 102.339C313.677 102.44 313.54 102.497 313.397 102.497Z"
          fill="#3F3D56"/>
    <path d="M248.942 112.747H218.392C218.332 112.747 218.275 112.69 218.233 112.589C218.191 112.488 218.167 112.35 218.167 112.207C218.167 112.064 218.191 111.927 218.233 111.826C218.275 111.725 218.332 111.668 218.392 111.668H248.942C249.002 111.668 249.059 111.725 249.101 111.826C249.143 111.927 249.167 112.064 249.167 112.207C249.167 112.35 249.143 112.488 249.101 112.589C249.059 112.69 249.002 112.747 248.942 112.747Z"
          fill="#3F3D56"/>
    <path d="M248.941 122.993H218.393C218.333 122.993 218.276 122.936 218.233 122.835C218.191 122.734 218.167 122.597 218.167 122.454C218.167 122.31 218.191 122.173 218.233 122.072C218.276 121.971 218.333 121.914 218.393 121.914H248.941C249.001 121.914 249.058 121.971 249.101 122.072C249.143 122.173 249.167 122.31 249.167 122.454C249.167 122.597 249.143 122.734 249.101 122.835C249.058 122.936 249.001 122.993 248.941 122.993Z"
          fill="#3F3D56"/>
    <path d="M204.716 8.63119C207.093 8.63119 209.021 6.69903 209.021 4.3156C209.021 1.93216 207.093 0 204.716 0C202.339 0 200.412 1.93216 200.412 4.3156C200.412 6.69903 202.339 8.63119 204.716 8.63119Z"
          fill="#CCCCCC"/>
    <path d="M313.397 4.85624H218.705C218.562 4.85624 218.425 4.79941 218.325 4.69824C218.224 4.59708 218.167 4.45986 218.167 4.31679C218.167 4.17372 218.224 4.03651 218.325 3.93534C218.425 3.83418 218.562 3.77734 218.705 3.77734H313.397C313.54 3.77734 313.677 3.83418 313.778 3.93534C313.879 4.03651 313.935 4.17372 313.935 4.31679C313.935 4.45986 313.879 4.59708 313.778 4.69824C313.677 4.79941 313.54 4.85624 313.397 4.85624Z"
          fill="#3F3D56"/>
    <path d="M313.397 15.1062H218.705C218.562 15.1062 218.425 15.0494 218.325 14.9482C218.224 14.8471 218.167 14.7099 218.167 14.5668C218.167 14.4237 218.224 14.2865 218.325 14.1853C218.425 14.0842 218.562 14.0273 218.705 14.0273H313.397C313.54 14.0273 313.677 14.0842 313.778 14.1853C313.879 14.2865 313.935 14.4237 313.935 14.5668C313.935 14.7099 313.879 14.8471 313.778 14.9482C313.677 15.0494 313.54 15.1062 313.397 15.1062Z"
          fill="#3F3D56"/>
    <path d="M313.397 25.3523H218.705C218.562 25.3523 218.425 25.2955 218.325 25.1943C218.224 25.0932 218.167 24.956 218.167 24.8129C218.167 24.6698 218.224 24.5326 218.325 24.4314C218.425 24.3303 218.562 24.2734 218.705 24.2734H313.397C313.54 24.2734 313.677 24.3303 313.778 24.4314C313.879 24.5326 313.935 24.6698 313.935 24.8129C313.935 24.956 313.879 25.0932 313.778 25.1943C313.677 25.2955 313.54 25.3523 313.397 25.3523Z"
          fill="#3F3D56"/>
    <path d="M248.775 36H218.225C218.165 36 218.108 35.9473 218.066 35.8536C218.024 35.7598 218 35.6326 218 35.5C218 35.3674 218.024 35.2402 218.066 35.1464C218.108 35.0527 218.165 35 218.225 35H248.775C248.835 35 248.892 35.0527 248.934 35.1464C248.976 35.2402 249 35.3674 249 35.5C249 35.6326 248.976 35.7598 248.934 35.8536C248.892 35.9473 248.835 36 248.775 36Z"
          fill="#3F3D56"/>
    <path d="M248.774 46H218.226C218.166 46 218.109 45.9473 218.066 45.8535C218.024 45.7598 218 45.6326 218 45.5C218 45.3674 218.024 45.2402 218.066 45.1465C218.109 45.0527 218.166 45 218.226 45H248.774C248.834 45 248.891 45.0527 248.934 45.1465C248.976 45.2402 249 45.3674 249 45.5C249 45.6326 248.976 45.7598 248.934 45.8535C248.891 45.9473 248.834 46 248.774 46Z"
          fill="#3F3D56"/>
    <path d="M204.716 162.373C207.093 162.373 209.021 160.441 209.021 158.058C209.021 155.674 207.093 153.742 204.716 153.742C202.339 153.742 200.412 155.674 200.412 158.058C200.412 160.441 202.339 162.373 204.716 162.373Z"
          fill="#CCCCCC"/>
    <path d="M313.397 158.598H218.705C218.562 158.598 218.425 158.542 218.325 158.44C218.224 158.339 218.167 158.202 218.167 158.059C218.167 157.916 218.224 157.779 218.325 157.678C218.425 157.576 218.562 157.52 218.705 157.52H313.397C313.54 157.52 313.677 157.576 313.778 157.678C313.879 157.779 313.935 157.916 313.935 158.059C313.935 158.202 313.879 158.339 313.778 158.44C313.677 158.542 313.54 158.598 313.397 158.598Z"
          fill="#3F3D56"/>
    <path d="M313.397 168.848H218.705C218.562 168.848 218.425 168.792 218.325 168.69C218.224 168.589 218.167 168.452 218.167 168.309C218.167 168.166 218.224 168.029 218.325 167.928C218.425 167.826 218.562 167.77 218.705 167.77H313.397C313.54 167.77 313.677 167.826 313.778 167.928C313.879 168.029 313.935 168.166 313.935 168.309C313.935 168.452 313.879 168.589 313.778 168.69C313.677 168.792 313.54 168.848 313.397 168.848Z"
          fill="#3F3D56"/>
    <path d="M313.397 179.098H218.705C218.562 179.098 218.425 179.042 218.325 178.94C218.224 178.839 218.167 178.702 218.167 178.559C218.167 178.416 218.224 178.279 218.325 178.178C218.425 178.076 218.562 178.02 218.705 178.02H313.397C313.54 178.02 313.677 178.076 313.778 178.178C313.879 178.279 313.935 178.416 313.935 178.559C313.935 178.702 313.879 178.839 313.778 178.94C313.677 179.042 313.54 179.098 313.397 179.098Z"
          fill="#3F3D56"/>
    <path d="M248.942 189.348H218.392C218.332 189.348 218.275 189.292 218.233 189.19C218.191 189.089 218.167 188.952 218.167 188.809C218.167 188.666 218.191 188.529 218.233 188.428C218.275 188.326 218.332 188.27 218.392 188.27H248.942C249.002 188.27 249.059 188.326 249.101 188.428C249.143 188.529 249.167 188.666 249.167 188.809C249.167 188.952 249.143 189.089 249.101 189.19C249.059 189.292 249.002 189.348 248.942 189.348Z"
          fill="#3F3D56"/>
    <path d="M248.941 199.595H218.393C218.333 199.595 218.276 199.538 218.233 199.437C218.191 199.335 218.167 199.198 218.167 199.055C218.167 198.912 218.191 198.775 218.233 198.674C218.276 198.572 218.333 198.516 218.393 198.516H248.941C249.001 198.516 249.058 198.572 249.101 198.674C249.143 198.775 249.167 198.912 249.167 199.055C249.167 199.198 249.143 199.335 249.101 199.437C249.058 199.538 249.001 199.595 248.941 199.595Z"
          fill="#3F3D56"/>
    <path d="M207.819 294.001H2.83197C2.68928 294.001 2.55244 293.944 2.45154 293.843C2.35064 293.742 2.29395 293.604 2.29395 293.461C2.29395 293.318 2.35064 293.181 2.45154 293.08C2.55244 292.979 2.68928 292.922 2.83197 292.922H207.819C207.962 292.922 208.099 292.979 208.2 293.08C208.301 293.181 208.357 293.318 208.357 293.461C208.357 293.604 208.301 293.742 208.2 293.843C208.099 293.944 207.962 294.001 207.819 294.001Z"
          fill="#3F3D56"/>
    <path d="M270.713 48.6751C270.316 48.6735 269.93 48.5456 269.61 48.3098L266.952 46.3784C266.731 46.2173 266.465 46.1305 266.192 46.1305C265.919 46.1305 265.653 46.2173 265.432 46.3784L262.774 48.3098C262.453 48.5428 262.067 48.6682 261.671 48.6682C261.275 48.6683 260.889 48.5428 260.568 48.3099C260.247 48.077 260.009 47.7486 259.886 47.3717C259.764 46.9948 259.764 46.5888 259.886 46.2119L260.902 43.0868C260.986 42.8272 260.987 42.5473 260.902 42.2876C260.818 42.0278 260.653 41.8015 260.432 41.6413L257.774 39.7099C257.453 39.477 257.214 39.1486 257.092 38.7716C256.969 38.3947 256.969 37.9887 257.092 37.6118C257.214 37.2349 257.453 36.9064 257.774 36.6735C258.094 36.4406 258.48 36.3151 258.877 36.3151H262.163C262.436 36.3156 262.702 36.2294 262.923 36.0689C263.144 35.9084 263.308 35.6819 263.392 35.422L264.407 32.2969C264.53 31.9199 264.768 31.5915 265.089 31.3585C265.41 31.1255 265.796 31 266.192 31C266.589 31 266.975 31.1255 267.295 31.3585C267.616 31.5915 267.855 31.9199 267.977 32.2969L268.992 35.422C269.076 35.6819 269.241 35.9084 269.462 36.0689C269.682 36.2294 269.949 36.3156 270.222 36.3151H273.508C273.904 36.3151 274.29 36.4406 274.611 36.6735C274.931 36.9065 275.17 37.2349 275.292 37.6118C275.415 37.9887 275.415 38.3947 275.292 38.7716C275.17 39.1485 274.931 39.477 274.611 39.7099L271.952 41.6413C271.731 41.8015 271.566 42.0278 271.482 42.2876C271.398 42.5473 271.398 42.8272 271.483 43.0868L272.498 46.2119C272.625 46.5884 272.627 46.9958 272.505 47.3737C272.382 47.7516 272.141 48.0799 271.816 48.3098C271.497 48.5456 271.111 48.6735 270.713 48.6751Z"
          fill="#F9A826"/>
    <path d="M297.652 48.6751C297.255 48.6735 296.869 48.5456 296.549 48.3098L293.891 46.3784C293.67 46.2173 293.404 46.1305 293.131 46.1305C292.858 46.1305 292.592 46.2173 292.371 46.3784L289.713 48.3098C289.392 48.5428 289.006 48.6682 288.61 48.6683C288.214 48.6683 287.827 48.5428 287.507 48.3099C287.186 48.077 286.948 47.7486 286.825 47.3717C286.703 46.9948 286.702 46.5888 286.825 46.2119L287.84 43.0868C287.925 42.8272 287.926 42.5473 287.841 42.2876C287.757 42.0278 287.592 41.8015 287.371 41.6413L284.712 39.7099C284.392 39.477 284.153 39.1485 284.031 38.7716C283.908 38.3947 283.908 37.9887 284.031 37.6118C284.153 37.2349 284.392 36.9065 284.713 36.6735C285.033 36.4406 285.419 36.3151 285.816 36.3151H289.101C289.375 36.3156 289.641 36.2294 289.862 36.0689C290.083 35.9084 290.247 35.6819 290.331 35.422L291.346 32.2969C291.469 31.92 291.707 31.5914 292.028 31.3585C292.349 31.1255 292.735 31 293.131 31C293.527 31 293.914 31.1255 294.234 31.3585C294.555 31.5914 294.793 31.92 294.916 32.2969L295.931 35.422C296.015 35.6819 296.179 35.9084 296.4 36.0689C296.621 36.2294 296.888 36.3156 297.161 36.3151H300.447C300.843 36.3151 301.229 36.4406 301.55 36.6735C301.87 36.9065 302.109 37.2349 302.231 37.6118C302.354 37.9887 302.354 38.3947 302.231 38.7716C302.109 39.1485 301.87 39.477 301.55 39.7099L298.891 41.6413C298.67 41.8015 298.505 42.0278 298.421 42.2875C298.336 42.5473 298.337 42.8272 298.422 43.0868L299.437 46.2119C299.564 46.5884 299.566 46.9958 299.443 47.3737C299.321 47.7516 299.079 48.0799 298.755 48.3098C298.436 48.5456 298.049 48.6735 297.652 48.6751V48.6751Z"
          fill="#F9A826"/>
    <path d="M324.591 48.6751C324.194 48.6735 323.808 48.5456 323.488 48.3098L320.83 46.3784C320.609 46.2177 320.343 46.1312 320.07 46.1312C319.797 46.1312 319.531 46.2177 319.31 46.3784L316.652 48.3098C316.331 48.5428 315.945 48.6682 315.549 48.6683C315.153 48.6683 314.766 48.5428 314.446 48.3099C314.125 48.077 313.887 47.7486 313.764 47.3717C313.642 46.9948 313.642 46.5888 313.764 46.2119L314.779 43.0868C314.864 42.8272 314.864 42.5473 314.78 42.2876C314.696 42.0278 314.531 41.8015 314.31 41.6413L311.651 39.7099C311.331 39.477 311.092 39.1485 310.97 38.7716C310.847 38.3947 310.847 37.9887 310.97 37.6118C311.092 37.2349 311.331 36.9065 311.652 36.6735C311.972 36.4406 312.358 36.3151 312.755 36.3151H316.04C316.314 36.3156 316.58 36.2294 316.801 36.0689C317.022 35.9084 317.186 35.6819 317.27 35.422L318.285 32.2969C318.408 31.92 318.646 31.5914 318.967 31.3585C319.288 31.1255 319.674 31 320.07 31C320.466 31 320.853 31.1255 321.173 31.3585C321.494 31.5914 321.732 31.92 321.855 32.2969L322.87 35.422C322.954 35.6819 323.119 35.9084 323.339 36.0689C323.56 36.2294 323.827 36.3156 324.1 36.3151H327.386C327.782 36.3151 328.168 36.4406 328.489 36.6735C328.809 36.9065 329.048 37.2349 329.17 37.6118C329.293 37.9887 329.293 38.3947 329.17 38.7716C329.048 39.1485 328.809 39.477 328.489 39.7099L325.83 41.6413C325.609 41.8015 325.444 42.0278 325.36 42.2876C325.276 42.5473 325.276 42.8272 325.361 43.0868L326.376 46.2119C326.503 46.5884 326.505 46.9958 326.382 47.3737C326.26 47.7516 326.018 48.0798 325.694 48.3098C325.375 48.5456 324.988 48.6735 324.591 48.6751V48.6751Z"
          fill="#F9A826"/>
    <path d="M270.713 125.859C270.316 125.857 269.93 125.729 269.61 125.493L266.952 123.562C266.731 123.401 266.465 123.315 266.192 123.315C265.919 123.315 265.653 123.401 265.432 123.562L262.774 125.493C262.453 125.726 262.067 125.852 261.671 125.852C261.275 125.852 260.888 125.726 260.568 125.494C260.247 125.261 260.009 124.932 259.886 124.555C259.764 124.178 259.764 123.772 259.886 123.395L260.901 120.27C260.986 120.011 260.987 119.731 260.902 119.471C260.818 119.211 260.653 118.985 260.432 118.825L257.773 116.894C257.453 116.661 257.214 116.332 257.092 115.955C256.969 115.578 256.969 115.172 257.092 114.795C257.214 114.419 257.453 114.09 257.774 113.857C258.094 113.624 258.48 113.499 258.877 113.499H262.163C262.436 113.499 262.702 113.413 262.923 113.252C263.144 113.092 263.308 112.865 263.392 112.606L264.407 109.48C264.53 109.104 264.768 108.775 265.089 108.542C265.41 108.309 265.796 108.184 266.192 108.184C266.588 108.184 266.975 108.309 267.295 108.542C267.616 108.775 267.855 109.104 267.977 109.48L268.992 112.606C269.076 112.865 269.241 113.092 269.462 113.252C269.682 113.413 269.949 113.499 270.222 113.499H273.508C273.904 113.499 274.29 113.624 274.611 113.857C274.931 114.09 275.17 114.419 275.292 114.795C275.415 115.172 275.415 115.578 275.292 115.955C275.17 116.332 274.931 116.661 274.611 116.894L271.952 118.825C271.731 118.985 271.566 119.211 271.482 119.471C271.398 119.731 271.398 120.011 271.483 120.27L272.498 123.395C272.625 123.772 272.627 124.179 272.505 124.557C272.382 124.935 272.14 125.263 271.816 125.493C271.497 125.729 271.111 125.857 270.713 125.859V125.859Z"
          fill="#F9A826"/>
    <path d="M297.652 125.859C297.255 125.857 296.869 125.729 296.549 125.493L293.89 123.562C293.67 123.401 293.404 123.314 293.131 123.314C292.858 123.314 292.592 123.401 292.371 123.562L289.713 125.493C289.392 125.726 289.006 125.852 288.61 125.852C288.213 125.852 287.827 125.726 287.506 125.494C287.186 125.261 286.947 124.932 286.825 124.555C286.702 124.178 286.702 123.772 286.825 123.395L287.84 120.27C287.925 120.011 287.925 119.731 287.841 119.471C287.756 119.211 287.592 118.985 287.37 118.825L284.712 116.894C284.391 116.661 284.153 116.332 284.03 115.955C283.908 115.578 283.908 115.172 284.03 114.795C284.153 114.418 284.391 114.09 284.712 113.857C285.033 113.624 285.419 113.499 285.815 113.499H289.101C289.374 113.499 289.64 113.413 289.861 113.252C290.082 113.092 290.247 112.865 290.33 112.606L291.346 109.48C291.468 109.104 291.707 108.775 292.027 108.542C292.348 108.309 292.734 108.184 293.131 108.184C293.527 108.184 293.913 108.309 294.234 108.542C294.554 108.775 294.793 109.104 294.915 109.48L295.931 112.606C296.015 112.865 296.179 113.092 296.4 113.252C296.621 113.413 296.887 113.499 297.16 113.499H300.446C300.842 113.499 301.229 113.624 301.549 113.857C301.87 114.09 302.108 114.418 302.231 114.795C302.353 115.172 302.353 115.578 302.231 115.955C302.108 116.332 301.87 116.661 301.549 116.894L298.891 118.825C298.67 118.985 298.505 119.211 298.421 119.471C298.336 119.731 298.336 120.011 298.421 120.27L299.437 123.395C299.564 123.772 299.566 124.179 299.443 124.557C299.32 124.935 299.079 125.263 298.755 125.493C298.435 125.729 298.049 125.857 297.652 125.859V125.859Z"
          fill="#F9A826"/>
    <path d="M323.714 125.859C323.316 125.857 322.93 125.729 322.61 125.493L319.952 123.562C319.731 123.401 319.465 123.314 319.192 123.314C318.919 123.314 318.653 123.401 318.433 123.562L315.774 125.493C315.453 125.726 315.067 125.852 314.671 125.852C314.275 125.852 313.889 125.726 313.568 125.494C313.247 125.261 313.009 124.932 312.886 124.555C312.764 124.178 312.764 123.772 312.886 123.395L313.902 120.27C313.986 120.011 313.987 119.731 313.902 119.471C313.818 119.211 313.653 118.985 313.432 118.825L310.773 116.894C310.453 116.661 310.214 116.332 310.092 115.955C309.969 115.578 309.969 115.172 310.092 114.795C310.214 114.418 310.453 114.09 310.774 113.857C311.094 113.624 311.48 113.499 311.877 113.499H315.163C315.436 113.499 315.702 113.413 315.923 113.252C316.144 113.092 316.308 112.865 316.392 112.606L317.407 109.48C317.53 109.104 317.768 108.775 318.089 108.542C318.41 108.309 318.796 108.184 319.192 108.184C319.588 108.184 319.975 108.309 320.295 108.542C320.616 108.775 320.855 109.104 320.977 109.48L321.992 112.606C322.076 112.865 322.241 113.092 322.462 113.252C322.682 113.413 322.949 113.499 323.222 113.499H326.508C326.904 113.499 327.29 113.624 327.611 113.857C327.931 114.09 328.17 114.418 328.292 114.795C328.415 115.172 328.415 115.578 328.292 115.955C328.17 116.332 327.931 116.661 327.611 116.894L324.952 118.825C324.731 118.985 324.566 119.211 324.482 119.471C324.398 119.731 324.398 120.011 324.483 120.27L325.498 123.395C325.625 123.772 325.627 124.179 325.505 124.557C325.382 124.935 325.141 125.263 324.817 125.493C324.497 125.729 324.111 125.857 323.714 125.859V125.859Z"
          fill="#CCCCCC"/>
    <path d="M270.713 202.675C270.316 202.673 269.93 202.546 269.61 202.31L266.952 200.378C266.731 200.218 266.465 200.131 266.192 200.131C265.919 200.131 265.653 200.218 265.432 200.378L262.774 202.31C262.453 202.543 262.067 202.668 261.671 202.668C261.275 202.668 260.888 202.543 260.568 202.31C260.247 202.077 260.009 201.749 259.886 201.372C259.764 200.995 259.764 200.589 259.886 200.212L260.901 197.087C260.986 196.827 260.987 196.547 260.902 196.288C260.818 196.028 260.653 195.801 260.432 195.641L257.773 193.71C257.453 193.477 257.214 193.149 257.092 192.772C256.969 192.395 256.969 191.989 257.092 191.612C257.214 191.235 257.453 190.906 257.774 190.674C258.094 190.441 258.48 190.315 258.877 190.315H262.163C262.436 190.316 262.702 190.229 262.923 190.069C263.144 189.908 263.308 189.682 263.392 189.422L264.407 186.297C264.53 185.92 264.768 185.591 265.089 185.358C265.41 185.125 265.796 185 266.192 185C266.588 185 266.975 185.125 267.295 185.358C267.616 185.591 267.855 185.92 267.977 186.297L268.992 189.422C269.076 189.682 269.241 189.908 269.462 190.069C269.682 190.229 269.949 190.316 270.222 190.315H273.508C273.904 190.315 274.29 190.441 274.611 190.674C274.931 190.906 275.17 191.235 275.292 191.612C275.415 191.989 275.415 192.395 275.292 192.772C275.17 193.149 274.931 193.477 274.611 193.71L271.952 195.641C271.731 195.801 271.566 196.028 271.482 196.288C271.398 196.547 271.398 196.827 271.483 197.087L272.498 200.212C272.625 200.588 272.627 200.996 272.505 201.374C272.382 201.752 272.14 202.08 271.816 202.31C271.497 202.546 271.111 202.673 270.713 202.675V202.675Z"
          fill="#F9A826"/>
    <path d="M297.098 202.675C296.701 202.673 296.314 202.546 295.995 202.31L293.336 200.378C293.116 200.217 292.85 200.131 292.577 200.131C292.303 200.131 292.037 200.217 291.817 200.378L289.158 202.31C288.838 202.543 288.452 202.668 288.055 202.668C287.659 202.668 287.273 202.543 286.952 202.31C286.632 202.077 286.393 201.749 286.27 201.372C286.148 200.995 286.148 200.589 286.27 200.212L287.286 197.087C287.371 196.827 287.371 196.547 287.287 196.288C287.202 196.028 287.037 195.802 286.816 195.642L284.158 193.71C283.837 193.477 283.599 193.148 283.476 192.772C283.354 192.395 283.354 191.989 283.476 191.612C283.599 191.235 283.837 190.906 284.158 190.674C284.478 190.441 284.865 190.315 285.261 190.315H288.547C288.82 190.316 289.086 190.229 289.307 190.069C289.528 189.908 289.692 189.682 289.776 189.422L290.792 186.297C290.914 185.92 291.153 185.591 291.473 185.358C291.794 185.125 292.18 185 292.576 185C292.973 185 293.359 185.125 293.68 185.358C294 185.591 294.239 185.92 294.361 186.297L295.377 189.422C295.461 189.682 295.625 189.908 295.846 190.069C296.067 190.229 296.333 190.316 296.606 190.315H299.892C300.288 190.315 300.674 190.441 300.995 190.674C301.316 190.906 301.554 191.235 301.677 191.612C301.799 191.989 301.799 192.395 301.677 192.772C301.554 193.148 301.316 193.477 300.995 193.71L298.337 195.641C298.115 195.801 297.951 196.028 297.866 196.288C297.782 196.547 297.782 196.827 297.867 197.087L298.883 200.212C299.01 200.588 299.012 200.996 298.889 201.374C298.766 201.752 298.525 202.08 298.201 202.31C297.881 202.546 297.495 202.673 297.098 202.675V202.675Z"
          fill="#CCCCCC"/>
    <path d="M323.482 202.675C323.085 202.673 322.699 202.546 322.379 202.31L319.721 200.378C319.5 200.217 319.234 200.131 318.961 200.131C318.688 200.131 318.422 200.217 318.201 200.378L315.543 202.31C315.222 202.543 314.836 202.668 314.44 202.668C314.043 202.668 313.657 202.543 313.337 202.31C313.016 202.077 312.777 201.749 312.655 201.372C312.532 200.995 312.532 200.589 312.655 200.212L313.67 197.087C313.755 196.827 313.755 196.547 313.671 196.288C313.586 196.028 313.422 195.802 313.2 195.642L310.542 193.71C310.221 193.477 309.983 193.148 309.86 192.772C309.738 192.395 309.738 191.989 309.86 191.612C309.983 191.235 310.222 190.906 310.542 190.674C310.863 190.441 311.249 190.315 311.645 190.315H314.931C315.204 190.316 315.47 190.229 315.691 190.069C315.912 189.908 316.077 189.682 316.161 189.422L317.176 186.297C317.298 185.92 317.537 185.591 317.858 185.358C318.178 185.125 318.564 185 318.961 185C319.357 185 319.743 185.125 320.064 185.358C320.384 185.591 320.623 185.92 320.745 186.297L321.761 189.422C321.845 189.682 322.009 189.908 322.23 190.069C322.451 190.229 322.717 190.316 322.99 190.315H326.276C326.672 190.315 327.059 190.441 327.379 190.674C327.7 190.906 327.938 191.235 328.061 191.612C328.183 191.989 328.183 192.395 328.061 192.772C327.939 193.148 327.7 193.477 327.379 193.71L324.721 195.641C324.5 195.801 324.335 196.028 324.251 196.288C324.166 196.547 324.167 196.827 324.251 197.087L325.267 200.212C325.394 200.588 325.396 200.996 325.273 201.374C325.15 201.752 324.909 202.08 324.585 202.31C324.266 202.546 323.879 202.673 323.482 202.675V202.675Z"
          fill="#CCCCCC"/>
</svg>
