<svg width="383" height="256" viewBox="0 0 383 256" fill="none" xmlns="http://www.w3.org/2000/svg">
    <g clip-path="url(#clip0_891_87538)">
        <path d="M313.802 153.268C314.055 153.192 314.314 153.137 314.575 153.102L325.015 131.89L321.827 127.112L328.41 121.359L336.684 131.485L319.832 156.011C320.246 156.939 320.369 157.971 320.183 158.97C319.997 159.969 319.511 160.887 318.79 161.603C318.069 162.319 317.147 162.799 316.147 162.978C315.147 163.158 314.116 163.028 313.192 162.607C312.267 162.187 311.492 161.494 310.97 160.622C310.449 159.751 310.205 158.741 310.271 157.727C310.337 156.713 310.711 155.743 311.341 154.947C311.972 154.15 312.831 153.565 313.802 153.268V153.268Z"
              fill="#A0616A"/>
        <path d="M331.623 124.289C331.481 124.439 331.318 124.567 331.139 124.671L320.458 130.863C320.201 131.012 319.916 131.106 319.621 131.139C319.326 131.172 319.028 131.144 318.744 131.055C318.461 130.967 318.199 130.821 317.975 130.627C317.751 130.432 317.57 130.193 317.443 129.925L312.248 118.949C312.027 118.487 311.979 117.962 312.114 117.467C312.248 116.973 312.556 116.544 312.981 116.258L319.602 111.754C320.015 111.473 320.514 111.345 321.012 111.392C321.509 111.44 321.975 111.659 322.328 112.013L331.583 121.301C331.976 121.696 332.201 122.229 332.208 122.786C332.216 123.344 332.006 123.883 331.623 124.289H331.623Z"
              fill="#CCCCCC"/>
        <path d="M346.621 245.842L340.982 247.377L332.379 226.355L340.703 224.09L346.621 245.842Z" fill="#A0616A"/>
        <path d="M336.515 246.859L347.391 243.9L349.254 250.748L331.53 255.571C331.285 254.671 331.22 253.733 331.338 252.808C331.456 251.884 331.755 250.992 332.218 250.183C332.681 249.374 333.299 248.664 334.036 248.094C334.773 247.524 335.615 247.104 336.515 246.859V246.859Z"
              fill="#2F2E41"/>
        <path d="M298.41 250.145L292.566 250.145L289.785 227.602L298.411 227.602L298.41 250.145Z" fill="#A0616A"/>
        <path d="M288.391 248.473H299.662V255.57H281.294C281.294 254.638 281.477 253.715 281.834 252.854C282.191 251.993 282.713 251.21 283.372 250.551C284.031 249.892 284.814 249.37 285.675 249.013C286.536 248.656 287.459 248.473 288.391 248.473Z"
              fill="#2F2E41"/>
        <path d="M304.567 104.273C311.034 104.273 316.276 99.0308 316.276 92.5643C316.276 86.0977 311.034 80.8555 304.567 80.8555C298.101 80.8555 292.859 86.0977 292.859 92.5643C292.859 99.0308 298.101 104.273 304.567 104.273Z"
              fill="#A0616A"/>
        <path d="M298.052 234.069H290.065C289.519 234.068 288.994 233.86 288.596 233.486C288.198 233.112 287.957 232.601 287.922 232.056C285.542 194.223 286.934 167.084 292.303 146.65C292.327 146.56 292.356 146.473 292.39 146.387L292.818 145.317C292.976 144.919 293.25 144.576 293.606 144.336C293.961 144.095 294.381 143.967 294.81 143.969H311.234C311.543 143.969 311.849 144.035 312.13 144.165C312.411 144.294 312.661 144.483 312.862 144.718L315.093 147.321C315.137 147.371 315.178 147.423 315.217 147.478C325.276 161.506 334.291 188.931 344.732 225.793C344.886 226.329 344.825 226.903 344.561 227.395C344.298 227.886 343.853 228.255 343.321 228.423L334.738 231.169C334.245 231.325 333.713 231.298 333.239 231.094C332.764 230.89 332.378 230.522 332.152 230.058L309.878 183.86C309.722 183.537 309.467 183.273 309.149 183.107C308.832 182.94 308.469 182.881 308.115 182.937C307.761 182.993 307.434 183.161 307.183 183.417C306.932 183.673 306.771 184.003 306.722 184.358L300.178 232.215C300.106 232.728 299.851 233.198 299.461 233.538C299.07 233.879 298.57 234.068 298.052 234.069V234.069Z"
              fill="#2F2E41"/>
        <path d="M314.193 147.512C314.17 147.512 314.148 147.512 314.125 147.511L294.175 146.881C293.662 146.867 293.172 146.669 292.793 146.322C292.414 145.976 292.172 145.506 292.112 144.996C289.583 124.525 296.519 119.041 299.618 117.634C299.877 117.517 300.101 117.335 300.269 117.106C300.438 116.877 300.544 116.608 300.577 116.326L300.845 114.18C300.891 113.801 301.038 113.441 301.269 113.138C306.129 106.843 312.764 104.827 316.287 104.186C316.573 104.135 316.866 104.142 317.149 104.207C317.432 104.273 317.698 104.395 317.933 104.567C318.167 104.738 318.364 104.956 318.511 105.206C318.659 105.456 318.754 105.733 318.791 106.021L319.192 109.102C319.233 109.396 319.351 109.674 319.533 109.909C329.667 123.158 318.377 142.72 316.01 146.507C315.817 146.814 315.549 147.068 315.231 147.244C314.913 147.419 314.556 147.512 314.193 147.512Z"
              fill="#CCCCCC"/>
        <path d="M328.191 93.8801C325.579 90.2022 322.447 86.9231 318.892 84.1453C315.937 81.8372 312.648 79.8654 309.02 78.9221C305.391 77.9789 301.383 78.1395 298.072 79.899C294.761 81.6586 291.338 85.1547 291.317 88.904C291.311 90.1085 291.617 91.7381 292.804 91.5297L293.147 91.5752C296.008 90.9973 298.87 90.4193 301.731 89.8414C302.95 94.0708 304.168 98.3003 305.387 102.53C305.644 103.421 305.989 104.418 306.835 104.798C307.632 105.156 308.553 104.819 309.359 104.482C309.492 104.427 310.631 101.869 310.631 101.869C310.66 101.789 310.709 101.718 310.774 101.664C310.84 101.609 310.918 101.573 311.002 101.559C311.085 101.545 311.171 101.554 311.251 101.584C311.33 101.614 311.4 101.665 311.453 101.731L312.13 102.577C312.259 102.739 312.437 102.854 312.638 102.906C312.839 102.957 313.05 102.941 313.241 102.862C317.908 100.914 322.574 98.9657 327.241 97.0177C327.885 96.7485 328.606 96.3969 328.793 95.7235C328.973 95.0784 328.578 94.4261 328.191 93.8801Z"
              fill="#2F2E41"/>
        <path d="M381.832 256H238.339C238.212 256 238.091 255.95 238.002 255.861C237.912 255.771 237.862 255.65 237.862 255.524C237.862 255.397 237.912 255.276 238.002 255.187C238.091 255.097 238.212 255.047 238.339 255.047H381.832C381.959 255.047 382.08 255.097 382.169 255.187C382.259 255.276 382.309 255.397 382.309 255.524C382.309 255.65 382.259 255.771 382.169 255.861C382.08 255.95 381.959 256 381.832 256Z"
              fill="#3F3D56"/>
        <path d="M304.039 181.709C303.715 181.708 303.399 181.604 303.138 181.411L300.968 179.835C300.788 179.703 300.571 179.632 300.348 179.632C300.125 179.632 299.908 179.703 299.728 179.835L297.558 181.411C297.296 181.601 296.981 181.704 296.658 181.704C296.334 181.704 296.019 181.601 295.757 181.411C295.496 181.221 295.301 180.953 295.201 180.645C295.101 180.338 295.101 180.006 295.201 179.699L296.03 177.148C296.099 176.936 296.099 176.707 296.03 176.495C295.961 176.283 295.827 176.099 295.646 175.968L293.476 174.391C293.214 174.201 293.02 173.933 292.92 173.625C292.82 173.318 292.82 172.986 292.92 172.678C293.02 172.371 293.215 172.103 293.476 171.913C293.738 171.722 294.053 171.62 294.377 171.62H297.059C297.282 171.62 297.499 171.55 297.679 171.419C297.86 171.288 297.994 171.103 298.062 170.891L298.891 168.34C298.991 168.032 299.186 167.764 299.448 167.574C299.709 167.384 300.025 167.281 300.348 167.281C300.672 167.281 300.987 167.384 301.249 167.574C301.51 167.764 301.705 168.032 301.805 168.34L302.634 170.891C302.703 171.103 302.837 171.288 303.017 171.419C303.197 171.55 303.415 171.62 303.638 171.62H306.32C306.643 171.62 306.959 171.722 307.22 171.913C307.482 172.103 307.677 172.371 307.777 172.678C307.877 172.986 307.877 173.318 307.777 173.625C307.677 173.933 307.482 174.201 307.22 174.391L305.05 175.968C304.87 176.098 304.735 176.283 304.666 176.495C304.597 176.707 304.598 176.936 304.667 177.148L305.496 179.699C305.6 180.006 305.601 180.339 305.501 180.647C305.401 180.955 305.204 181.223 304.939 181.411C304.678 181.604 304.363 181.708 304.039 181.709V181.709Z"
              fill="#F9A826"/>
        <path d="M312.332 176.61C312.945 176.18 313.456 175.621 313.83 174.972C314.203 174.323 314.43 173.6 314.494 172.854C314.558 172.108 314.457 171.358 314.2 170.655C313.942 169.952 313.533 169.314 313.003 168.786L316.708 124.035L305.675 125.553L305.465 169.032C304.637 169.983 304.187 171.204 304.199 172.465C304.212 173.725 304.686 174.937 305.533 175.871C306.379 176.805 307.539 177.396 308.792 177.533C310.045 177.669 311.305 177.34 312.332 176.61V176.61Z"
              fill="#A0616A"/>
        <path d="M317.429 130.48C317.222 130.48 317.017 130.45 316.819 130.391L304.974 126.907C304.689 126.824 304.425 126.682 304.198 126.491C303.971 126.3 303.786 126.064 303.655 125.797C303.524 125.531 303.449 125.241 303.436 124.944C303.423 124.648 303.472 124.352 303.579 124.075L307.962 112.751C308.145 112.273 308.494 111.876 308.945 111.634C309.396 111.391 309.919 111.319 310.419 111.43L318.244 113.131C318.732 113.237 319.168 113.511 319.477 113.904C319.785 114.298 319.946 114.787 319.933 115.286L319.568 128.392C319.553 128.95 319.321 129.48 318.922 129.869C318.522 130.259 317.987 130.478 317.429 130.48H317.429Z"
              fill="#CCCCCC"/>
        <path d="M205.944 186.398H3.33706C2.45232 186.397 1.6041 186.045 0.978497 185.419C0.352893 184.793 0.000993024 183.945 0 183.061V122.517C0.000993024 121.632 0.352893 120.784 0.978497 120.158C1.6041 119.533 2.45232 119.181 3.33706 119.18H205.944C206.829 119.181 207.677 119.533 208.303 120.158C208.928 120.784 209.28 121.632 209.281 122.517V183.061C209.28 183.945 208.928 184.793 208.303 185.419C207.677 186.045 206.829 186.397 205.944 186.398V186.398ZM3.33706 120.133C2.70511 120.134 2.09926 120.385 1.6524 120.832C1.20555 121.279 0.954177 121.885 0.953445 122.517V183.061C0.954177 183.692 1.20555 184.298 1.6524 184.745C2.09926 185.192 2.70511 185.443 3.33706 185.444H205.944C206.576 185.443 207.182 185.192 207.629 184.745C208.076 184.298 208.327 183.692 208.328 183.061V122.517C208.327 121.885 208.076 121.279 207.629 120.832C207.182 120.385 206.576 120.134 205.944 120.133H3.33706Z"
              fill="#3F3D56"/>
        <path d="M91.9957 211.89C91.5986 211.888 91.2122 211.76 90.8926 211.525L88.2342 209.593C88.0136 209.432 87.7476 209.345 87.4744 209.345C87.2013 209.345 86.9353 209.432 86.7147 209.593L84.0563 211.525C83.7357 211.758 83.3496 211.883 82.9533 211.883C82.557 211.883 82.1708 211.758 81.8502 211.525C81.5296 211.292 81.2909 210.963 81.1684 210.587C81.0459 210.21 81.0459 209.804 81.1683 209.427L82.1838 206.302C82.2687 206.042 82.2689 205.762 82.1845 205.502C82.1002 205.243 81.9355 205.016 81.7142 204.856L79.0558 202.925C78.7352 202.692 78.4966 202.363 78.3741 201.986C78.2516 201.61 78.2516 201.204 78.3741 200.827C78.4965 200.45 78.7352 200.121 79.0558 199.888C79.3764 199.655 79.7625 199.53 80.1588 199.53H83.4449C83.718 199.53 83.9842 199.444 84.2051 199.284C84.426 199.123 84.5903 198.897 84.6742 198.637L85.6895 195.512C85.812 195.135 86.0506 194.806 86.3713 194.573C86.6919 194.34 87.0781 194.215 87.4744 194.215C87.8708 194.215 88.2569 194.34 88.5776 194.573C88.8982 194.806 89.1369 195.135 89.2593 195.512L90.2746 198.637C90.3585 198.897 90.5228 199.123 90.7437 199.284C90.9647 199.444 91.2309 199.53 91.504 199.53H94.79C95.1863 199.53 95.5724 199.655 95.893 199.888C96.2136 200.121 96.4523 200.45 96.5747 200.827C96.6972 201.204 96.6972 201.61 96.5747 201.986C96.4522 202.363 96.2136 202.692 95.893 202.925L93.2346 204.856C93.0134 205.016 92.8487 205.243 92.7643 205.502C92.6799 205.762 92.6802 206.042 92.7651 206.302L93.7805 209.427C93.9075 209.803 93.9097 210.211 93.7869 210.589C93.6641 210.966 93.4228 211.295 93.0987 211.525C92.7791 211.76 92.3928 211.888 91.9957 211.89V211.89Z"
              fill="#F9A826"/>
        <path d="M118.935 211.89C118.537 211.888 118.151 211.76 117.831 211.525L115.173 209.593C114.952 209.432 114.686 209.345 114.413 209.345C114.14 209.345 113.874 209.432 113.654 209.593L110.995 211.525C110.675 211.758 110.288 211.883 109.892 211.883C109.496 211.883 109.11 211.758 108.789 211.525C108.468 211.292 108.23 210.963 108.107 210.587C107.985 210.21 107.985 209.804 108.107 209.427L109.123 206.302C109.207 206.042 109.208 205.762 109.123 205.502C109.039 205.243 108.874 205.016 108.653 204.856L105.995 202.925C105.674 202.692 105.435 202.363 105.313 201.986C105.191 201.61 105.191 201.204 105.313 200.827C105.436 200.45 105.674 200.121 105.995 199.888C106.315 199.655 106.702 199.53 107.098 199.53H110.384C110.657 199.53 110.923 199.444 111.144 199.284C111.365 199.123 111.529 198.897 111.613 198.637L112.628 195.512C112.751 195.135 112.99 194.806 113.31 194.573C113.631 194.34 114.017 194.215 114.413 194.215C114.81 194.215 115.196 194.34 115.516 194.573C115.837 194.806 116.076 195.135 116.198 195.512L117.213 198.637C117.297 198.897 117.462 199.123 117.683 199.284C117.904 199.444 118.17 199.53 118.443 199.53H121.729C122.125 199.53 122.511 199.655 122.832 199.888C123.152 200.121 123.391 200.45 123.514 200.827C123.636 201.204 123.636 201.61 123.514 201.986C123.391 202.363 123.153 202.692 122.832 202.925L120.174 204.856C119.952 205.016 119.788 205.243 119.703 205.502C119.619 205.762 119.619 206.042 119.704 206.302L120.719 209.427C120.846 209.803 120.849 210.211 120.726 210.589C120.603 210.966 120.362 211.295 120.038 211.525C119.718 211.76 119.332 211.888 118.935 211.89V211.89Z"
              fill="#F9A826"/>
        <path d="M145.873 211.89C145.476 211.888 145.09 211.76 144.77 211.525L142.112 209.593C141.891 209.433 141.625 209.346 141.352 209.346C141.079 209.346 140.813 209.433 140.592 209.593L137.934 211.525C137.613 211.758 137.227 211.883 136.831 211.883C136.435 211.883 136.048 211.758 135.728 211.525C135.407 211.292 135.169 210.963 135.046 210.586C134.924 210.21 134.924 209.804 135.046 209.427L136.061 206.302C136.146 206.042 136.146 205.762 136.062 205.502C135.978 205.243 135.813 205.016 135.592 204.856L132.933 202.925C132.613 202.692 132.374 202.363 132.252 201.986C132.129 201.61 132.129 201.204 132.252 200.827C132.374 200.45 132.613 200.121 132.933 199.888C133.254 199.655 133.64 199.53 134.037 199.53H137.322C137.596 199.53 137.862 199.444 138.083 199.284C138.304 199.123 138.468 198.897 138.552 198.637L139.567 195.512C139.69 195.135 139.928 194.806 140.249 194.573C140.57 194.34 140.956 194.215 141.352 194.215C141.748 194.215 142.135 194.34 142.455 194.573C142.776 194.806 143.014 195.135 143.137 195.512L144.152 198.637C144.236 198.897 144.4 199.123 144.621 199.284C144.842 199.444 145.109 199.53 145.382 199.53H148.668C149.064 199.53 149.45 199.655 149.771 199.888C150.091 200.121 150.33 200.45 150.452 200.827C150.575 201.204 150.575 201.61 150.452 201.986C150.33 202.363 150.091 202.692 149.771 202.925L147.112 204.856C146.891 205.016 146.726 205.243 146.642 205.502C146.558 205.762 146.558 206.042 146.643 206.302L147.658 209.427C147.785 209.803 147.787 210.211 147.664 210.589C147.542 210.966 147.3 211.295 146.976 211.525C146.657 211.76 146.27 211.888 145.873 211.89V211.89Z"
              fill="#F9A826"/>
        <path d="M172.812 211.89C172.415 211.888 172.029 211.76 171.709 211.525L169.051 209.593C168.83 209.432 168.564 209.345 168.291 209.345C168.018 209.345 167.752 209.432 167.531 209.593L164.873 211.525C164.552 211.758 164.166 211.883 163.77 211.883C163.373 211.883 162.987 211.758 162.667 211.525C162.346 211.292 162.107 210.963 161.985 210.586C161.862 210.21 161.862 209.804 161.985 209.427L163 206.302C163.085 206.042 163.085 205.762 163.001 205.502C162.917 205.243 162.752 205.017 162.531 204.856L159.872 202.925C159.552 202.692 159.313 202.363 159.19 201.986C159.068 201.61 159.068 201.204 159.191 200.827C159.313 200.45 159.552 200.121 159.872 199.888C160.193 199.655 160.579 199.53 160.975 199.53H164.261C164.534 199.53 164.8 199.444 165.021 199.284C165.242 199.123 165.407 198.897 165.491 198.637L166.506 195.512C166.628 195.135 166.867 194.806 167.188 194.573C167.508 194.34 167.894 194.215 168.291 194.215C168.687 194.215 169.073 194.34 169.394 194.573C169.715 194.806 169.953 195.135 170.076 195.512L171.091 198.637C171.175 198.897 171.339 199.123 171.56 199.284C171.781 199.444 172.047 199.53 172.32 199.53H175.606C176.003 199.53 176.389 199.655 176.709 199.888C177.03 200.121 177.269 200.45 177.391 200.827C177.513 201.204 177.513 201.61 177.391 201.986C177.269 202.363 177.03 202.692 176.709 202.925L174.051 204.856C173.83 205.016 173.665 205.243 173.581 205.502C173.496 205.762 173.497 206.042 173.581 206.302L174.597 209.427C174.724 209.803 174.726 210.211 174.603 210.589C174.481 210.966 174.239 211.295 173.915 211.525C173.596 211.76 173.209 211.888 172.812 211.89V211.89Z"
              fill="#F9A826"/>
        <path d="M190.708 212.076C190.272 212.074 189.848 211.934 189.497 211.675C189.141 211.423 188.876 211.062 188.741 210.647C188.606 210.232 188.609 209.784 188.748 209.37L189.764 206.245C189.836 206.023 189.836 205.783 189.764 205.561C189.692 205.338 189.551 205.144 189.361 205.007L186.703 203.075C186.35 202.819 186.088 202.459 185.954 202.045C185.819 201.631 185.819 201.185 185.954 200.771C186.088 200.356 186.35 199.996 186.703 199.74C187.055 199.484 187.479 199.346 187.914 199.346H191.2C191.434 199.347 191.662 199.273 191.852 199.135C192.041 198.998 192.182 198.803 192.254 198.581L193.269 195.456C193.404 195.042 193.666 194.681 194.018 194.425C194.37 194.169 194.795 194.031 195.23 194.031C195.665 194.031 196.089 194.169 196.442 194.425C196.794 194.681 197.056 195.042 197.19 195.456L198.206 198.581C198.278 198.803 198.418 198.998 198.608 199.135C198.797 199.273 199.025 199.347 199.259 199.346H202.545C202.981 199.346 203.405 199.484 203.757 199.74C204.109 199.996 204.371 200.357 204.506 200.771C204.64 201.185 204.64 201.631 204.506 202.045C204.371 202.459 204.109 202.819 203.757 203.075L201.099 205.007C200.909 205.144 200.768 205.338 200.695 205.56C200.623 205.783 200.623 206.023 200.696 206.245L201.712 209.37C201.846 209.784 201.846 210.23 201.711 210.644C201.577 211.058 201.315 211.419 200.963 211.675C200.61 211.931 200.186 212.069 199.751 212.069C199.316 212.069 198.891 211.931 198.539 211.675L195.881 209.744C195.692 209.606 195.464 209.531 195.23 209.531C194.996 209.531 194.768 209.606 194.579 209.744L191.92 211.675C191.569 211.934 191.145 212.075 190.708 212.076V212.076ZM195.23 208.578C195.665 208.578 196.089 208.716 196.441 208.972L199.1 210.904C199.289 211.041 199.517 211.115 199.751 211.115C199.985 211.116 200.213 211.041 200.402 210.904C200.592 210.766 200.732 210.572 200.805 210.35C200.877 210.127 200.877 209.888 200.805 209.665L199.789 206.54C199.654 206.126 199.654 205.68 199.788 205.266C199.923 204.852 200.185 204.491 200.538 204.235L203.196 202.304C203.386 202.166 203.527 201.972 203.599 201.75C203.671 201.527 203.671 201.288 203.599 201.065C203.527 200.843 203.386 200.649 203.196 200.511C203.007 200.374 202.779 200.3 202.545 200.3H199.259C198.824 200.3 198.399 200.163 198.047 199.907C197.695 199.651 197.433 199.29 197.299 198.875L196.283 195.75C196.211 195.528 196.07 195.334 195.881 195.196C195.692 195.059 195.464 194.985 195.23 194.985C194.996 194.985 194.768 195.059 194.578 195.196C194.389 195.334 194.248 195.528 194.176 195.75L193.161 198.875C193.027 199.29 192.765 199.651 192.412 199.907C192.06 200.163 191.636 200.3 191.2 200.3H187.914C187.68 200.3 187.452 200.374 187.263 200.511C187.074 200.649 186.933 200.843 186.86 201.065C186.788 201.288 186.788 201.527 186.86 201.75C186.933 201.972 187.074 202.166 187.263 202.304L189.921 204.235C190.274 204.491 190.537 204.852 190.671 205.266C190.806 205.68 190.806 206.126 190.67 206.54L189.655 209.665C189.582 209.888 189.582 210.127 189.655 210.35C189.727 210.572 189.868 210.766 190.057 210.904C190.247 211.041 190.474 211.115 190.708 211.115C190.942 211.115 191.17 211.041 191.36 210.904L194.018 208.972C194.37 208.716 194.794 208.578 195.23 208.578V208.578Z"
              fill="#3F3D56"/>
        <path d="M26.2198 133.48C25.398 133.48 24.6098 133.807 24.0287 134.388C23.4476 134.969 23.1211 135.757 23.1211 136.579C23.1211 137.401 23.4476 138.189 24.0287 138.77C24.6098 139.351 25.398 139.678 26.2198 139.678H183.062C183.883 139.678 184.671 139.351 185.253 138.77C185.834 138.189 186.16 137.401 186.16 136.579C186.16 135.757 185.834 134.969 185.253 134.388C184.671 133.807 183.883 133.48 183.062 133.48H26.2198Z"
              fill="#CCCCCC"/>
        <path d="M26.2198 149.691C25.398 149.691 24.6098 150.018 24.0287 150.599C23.4476 151.18 23.1211 151.968 23.1211 152.79C23.1211 153.612 23.4476 154.4 24.0287 154.981C24.6098 155.562 25.398 155.889 26.2198 155.889H183.062C183.883 155.889 184.671 155.562 185.253 154.981C185.834 154.4 186.16 153.612 186.16 152.79C186.16 151.968 185.834 151.18 185.253 150.599C184.671 150.018 183.883 149.691 183.062 149.691H26.2198Z"
              fill="#CCCCCC"/>
        <path d="M26.2198 165.898C25.398 165.898 24.6098 166.225 24.0287 166.806C23.4476 167.387 23.1211 168.175 23.1211 168.997C23.1211 169.819 23.4476 170.607 24.0287 171.188C24.6098 171.769 25.398 172.096 26.2198 172.096H183.062C183.883 172.096 184.671 171.769 185.253 171.188C185.834 170.607 186.16 169.819 186.16 168.997C186.16 168.175 185.834 167.387 185.253 166.806C184.671 166.225 183.883 165.898 183.062 165.898H26.2198Z"
              fill="#CCCCCC"/>
        <path d="M26.2198 133.48C25.398 133.48 24.6098 133.807 24.0287 134.388C23.4476 134.969 23.1211 135.757 23.1211 136.579C23.1211 137.401 23.4476 138.189 24.0287 138.77C24.6098 139.351 25.398 139.678 26.2198 139.678H183.062C183.883 139.678 184.671 139.351 185.253 138.77C185.834 138.189 186.16 137.401 186.16 136.579C186.16 135.757 185.834 134.969 185.253 134.388C184.671 133.807 183.883 133.48 183.062 133.48H26.2198Z"
              fill="#CCCCCC"/>
        <path d="M26.2198 149.691C25.398 149.691 24.6098 150.018 24.0287 150.599C23.4476 151.18 23.1211 151.968 23.1211 152.79C23.1211 153.612 23.4476 154.4 24.0287 154.981C24.6098 155.562 25.398 155.889 26.2198 155.889H183.062C183.883 155.889 184.671 155.562 185.253 154.981C185.834 154.4 186.16 153.612 186.16 152.79C186.16 151.968 185.834 151.18 185.253 150.599C184.671 150.018 183.883 149.691 183.062 149.691H26.2198Z"
              fill="#CCCCCC"/>
        <path d="M26.2198 165.898C25.398 165.898 24.6098 166.225 24.0287 166.806C23.4476 167.387 23.1211 168.175 23.1211 168.997C23.1211 169.819 23.4476 170.607 24.0287 171.188C24.6098 171.769 25.398 172.096 26.2198 172.096H183.062C183.883 172.096 184.671 171.769 185.253 171.188C185.834 170.607 186.16 169.819 186.16 168.997C186.16 168.175 185.834 167.387 185.253 166.806C184.671 166.225 183.883 165.898 183.062 165.898H26.2198Z"
              fill="#CCCCCC"/>
        <path d="M205.944 67.2179H3.33706C2.45232 67.2169 1.6041 66.865 0.978497 66.2394C0.352893 65.6138 0.000993024 64.7656 0 63.8808V3.33706C0.000993024 2.45232 0.352893 1.6041 0.978497 0.978498C1.6041 0.352893 2.45232 0.000993025 3.33706 0H205.944C206.829 0.000991765 207.677 0.352893 208.303 0.978498C208.928 1.6041 209.28 2.45232 209.281 3.33706V63.8808C209.28 64.7656 208.928 65.6138 208.303 66.2394C207.677 66.865 206.829 67.2169 205.944 67.2179ZM3.33706 0.953445C2.70511 0.954177 2.09926 1.20554 1.6524 1.65239C1.20555 2.09925 0.954177 2.70511 0.953445 3.33706V63.8808C0.954177 64.5128 1.20555 65.1186 1.6524 65.5655C2.09926 66.0123 2.70511 66.2637 3.33706 66.2644H205.944C206.576 66.2637 207.182 66.0124 207.629 65.5655C208.076 65.1186 208.327 64.5128 208.328 63.8808V3.33706C208.327 2.70511 208.076 2.09925 207.629 1.65239C207.182 1.20553 206.576 0.954167 205.944 0.953445H3.33706Z"
              fill="#3F3D56"/>
        <path d="M91.9957 92.7103C91.5986 92.7087 91.2122 92.5807 90.8926 92.345L88.2342 90.4136C88.0136 90.2525 87.7476 90.1657 87.4744 90.1657C87.2013 90.1657 86.9353 90.2525 86.7147 90.4136L84.0563 92.345C83.7357 92.5779 83.3496 92.7034 82.9533 92.7034C82.557 92.7034 82.1708 92.578 81.8502 92.3451C81.5296 92.1122 81.2909 91.7837 81.1684 91.4068C81.0459 91.03 81.0459 90.624 81.1683 90.247L82.1838 87.122C82.2687 86.8624 82.2689 86.5825 82.1845 86.3227C82.1002 86.0629 81.9355 85.8367 81.7142 85.6765L79.0558 83.7451C78.7352 83.5122 78.4966 83.1837 78.3741 82.8068C78.2516 82.4299 78.2516 82.0239 78.3741 81.647C78.4965 81.2701 78.7352 80.9416 79.0558 80.7087C79.3764 80.4757 79.7625 80.3503 80.1588 80.3503H83.4449C83.718 80.3508 83.9842 80.2645 84.2051 80.104C84.426 79.9435 84.5903 79.717 84.6742 79.4571L85.6895 76.3321C85.812 75.9551 86.0506 75.6266 86.3713 75.3936C86.6919 75.1607 87.0781 75.0352 87.4744 75.0352C87.8708 75.0352 88.2569 75.1607 88.5776 75.3936C88.8982 75.6266 89.1369 75.9551 89.2593 76.3321L90.2746 79.4571C90.3585 79.717 90.5228 79.9435 90.7437 80.104C90.9647 80.2645 91.2309 80.3508 91.504 80.3503H94.79C95.1863 80.3503 95.5724 80.4757 95.893 80.7087C96.2136 80.9416 96.4523 81.2701 96.5747 81.647C96.6972 82.0239 96.6972 82.4299 96.5747 82.8068C96.4522 83.1837 96.2136 83.5122 95.893 83.7451L93.2346 85.6765C93.0134 85.8367 92.8487 86.0629 92.7643 86.3227C92.6799 86.5825 92.6802 86.8624 92.7651 87.122L93.7805 90.247C93.9075 90.6236 93.9097 91.031 93.7869 91.4089C93.6641 91.7868 93.4228 92.115 93.0987 92.345C92.7791 92.5807 92.3928 92.7087 91.9957 92.7103Z"
              fill="#F9A826"/>
        <path d="M118.935 92.7103C118.537 92.7087 118.151 92.5807 117.831 92.345L115.173 90.4136C114.952 90.2525 114.686 90.1657 114.413 90.1657C114.14 90.1657 113.874 90.2525 113.654 90.4136L110.995 92.345C110.675 92.5779 110.288 92.7034 109.892 92.7034C109.496 92.7034 109.11 92.578 108.789 92.3451C108.468 92.1122 108.23 91.7837 108.107 91.4068C107.985 91.03 107.985 90.624 108.107 90.247L109.123 87.122C109.207 86.8624 109.208 86.5825 109.123 86.3227C109.039 86.0629 108.874 85.8367 108.653 85.6765L105.995 83.7451C105.674 83.5121 105.435 83.1837 105.313 82.8068C105.191 82.4299 105.191 82.0239 105.313 81.647C105.436 81.2701 105.674 80.9416 105.995 80.7087C106.315 80.4757 106.702 80.3503 107.098 80.3503H110.384C110.657 80.3508 110.923 80.2645 111.144 80.104C111.365 79.9435 111.529 79.717 111.613 79.4571L112.628 76.3321C112.751 75.9551 112.99 75.6266 113.31 75.3936C113.631 75.1606 114.017 75.0352 114.413 75.0352C114.81 75.0352 115.196 75.1606 115.516 75.3936C115.837 75.6266 116.076 75.9551 116.198 76.3321L117.213 79.4571C117.297 79.717 117.462 79.9435 117.683 80.104C117.904 80.2646 118.17 80.3508 118.443 80.3503H121.729C122.125 80.3503 122.511 80.4757 122.832 80.7087C123.152 80.9416 123.391 81.2701 123.514 81.647C123.636 82.0239 123.636 82.4299 123.514 82.8068C123.391 83.1837 123.153 83.5121 122.832 83.7451L120.174 85.6765C119.952 85.8366 119.788 86.0629 119.703 86.3227C119.619 86.5825 119.619 86.8623 119.704 87.122L120.719 90.247C120.846 90.6236 120.849 91.031 120.726 91.4089C120.603 91.7868 120.362 92.115 120.038 92.345C119.718 92.5807 119.332 92.7086 118.935 92.7103V92.7103Z"
              fill="#F9A826"/>
        <path d="M145.873 92.7103C145.476 92.7087 145.09 92.5807 144.77 92.345L142.112 90.4136C141.891 90.2529 141.625 90.1663 141.352 90.1663C141.079 90.1663 140.813 90.2529 140.592 90.4136L137.934 92.345C137.613 92.5779 137.227 92.7034 136.831 92.7034C136.435 92.7034 136.048 92.578 135.728 92.3451C135.407 92.1121 135.169 91.7837 135.046 91.4068C134.924 91.0299 134.924 90.6239 135.046 90.247L136.061 87.122C136.146 86.8624 136.146 86.5825 136.062 86.3227C135.978 86.0629 135.813 85.8367 135.592 85.6765L132.933 83.7451C132.613 83.5121 132.374 83.1837 132.252 82.8068C132.129 82.4299 132.129 82.0239 132.252 81.647C132.374 81.2701 132.613 80.9416 132.933 80.7087C133.254 80.4757 133.64 80.3503 134.037 80.3503H137.322C137.596 80.3508 137.862 80.2645 138.083 80.104C138.304 79.9435 138.468 79.717 138.552 79.4571L139.567 76.3321C139.69 75.9551 139.928 75.6266 140.249 75.3936C140.57 75.1606 140.956 75.0352 141.352 75.0352C141.748 75.0352 142.135 75.1606 142.455 75.3936C142.776 75.6266 143.014 75.9551 143.137 76.3321L144.152 79.4571C144.236 79.717 144.4 79.9435 144.621 80.104C144.842 80.2645 145.109 80.3508 145.382 80.3503H148.668C149.064 80.3503 149.45 80.4757 149.771 80.7087C150.091 80.9416 150.33 81.2701 150.452 81.647C150.575 82.0239 150.575 82.4299 150.452 82.8068C150.33 83.1837 150.091 83.5121 149.771 83.7451L147.112 85.6765C146.891 85.8367 146.726 86.0629 146.642 86.3227C146.558 86.5825 146.558 86.8624 146.643 87.122L147.658 90.247C147.785 90.6236 147.787 91.0309 147.664 91.4088C147.542 91.7867 147.3 92.115 146.976 92.345C146.657 92.5807 146.27 92.7087 145.873 92.7103V92.7103Z"
              fill="#F9A826"/>
        <path d="M190.708 92.8965C190.272 92.8948 189.848 92.7544 189.497 92.4957C189.141 92.243 188.876 91.8823 188.741 91.4672C188.606 91.052 188.609 90.6044 188.748 90.1907L189.764 87.0657C189.836 86.8433 189.836 86.6035 189.764 86.3809C189.692 86.1583 189.551 85.9644 189.361 85.8272L186.703 83.8956C186.35 83.6397 186.088 83.2789 185.954 82.8649C185.819 82.4509 185.819 82.0049 185.954 81.5909C186.088 81.1768 186.35 80.816 186.703 80.5602C187.055 80.3043 187.479 80.1665 187.914 80.1665H191.2C191.434 80.167 191.662 80.0931 191.852 79.9555C192.041 79.8179 192.182 79.6237 192.254 79.4009L193.269 76.2759C193.404 75.8619 193.666 75.5011 194.018 75.2452C194.37 74.9894 194.795 74.8516 195.23 74.8516C195.665 74.8516 196.089 74.9894 196.442 75.2452C196.794 75.5011 197.056 75.8619 197.19 76.2759L198.206 79.4009C198.278 79.6237 198.418 79.8178 198.608 79.9554C198.797 80.093 199.025 80.167 199.259 80.1665H202.545C202.981 80.1666 203.405 80.3044 203.757 80.5602C204.109 80.8161 204.371 81.1769 204.506 81.5909C204.64 82.0049 204.64 82.4509 204.506 82.8649C204.371 83.2789 204.109 83.6397 203.757 83.8956L201.099 85.8272C200.909 85.9643 200.768 86.1582 200.695 86.3808C200.623 86.6034 200.623 86.8433 200.696 87.0657L201.712 90.1907C201.846 90.6048 201.846 91.0507 201.711 91.4647C201.577 91.8788 201.315 92.2396 200.963 92.4954C200.61 92.7513 200.186 92.8891 199.751 92.8891C199.316 92.8891 198.891 92.7513 198.539 92.4954L195.881 90.5641C195.692 90.4262 195.464 90.3518 195.23 90.3518C194.996 90.3518 194.768 90.4262 194.579 90.5641L191.92 92.4954C191.569 92.7544 191.145 92.8948 190.708 92.8965V92.8965ZM195.23 89.3979C195.665 89.398 196.089 89.5362 196.441 89.7927L199.1 91.724C199.289 91.8616 199.517 91.9358 199.751 91.9358C199.985 91.9358 200.213 91.8618 200.402 91.7242C200.592 91.5867 200.732 91.3928 200.805 91.1702C200.877 90.9477 200.877 90.708 200.805 90.4855L199.789 87.3605C199.654 86.9465 199.654 86.5002 199.788 86.086C199.923 85.6718 200.185 85.3111 200.538 85.0557L203.196 83.1242C203.386 82.9867 203.527 82.7928 203.599 82.5702C203.671 82.3477 203.671 82.108 203.599 81.8855C203.527 81.663 203.386 81.4691 203.196 81.3316C203.007 81.1941 202.779 81.12 202.545 81.12H199.259C198.824 81.1208 198.399 80.9833 198.047 80.7273C197.695 80.4713 197.433 80.1101 197.299 79.6956L196.283 76.5706C196.211 76.3481 196.07 76.1542 195.881 76.0166C195.692 75.8791 195.464 75.805 195.23 75.805C194.996 75.805 194.768 75.8791 194.578 76.0166C194.389 76.1542 194.248 76.3481 194.176 76.5706L193.161 79.6956C193.027 80.1101 192.765 80.4713 192.412 80.7273C192.06 80.9833 191.636 81.1208 191.2 81.12H187.914C187.68 81.12 187.452 81.194 187.263 81.3315C187.074 81.4691 186.933 81.663 186.86 81.8855C186.788 82.108 186.788 82.3477 186.86 82.5702C186.933 82.7927 187.074 82.9867 187.263 83.1242L189.921 85.0557C190.274 85.3111 190.537 85.6719 190.671 86.0861C190.806 86.5003 190.806 86.9465 190.67 87.3605L189.655 90.4855C189.582 90.708 189.582 90.9477 189.655 91.1702C189.727 91.3927 189.868 91.5866 190.057 91.7241C190.247 91.8616 190.474 91.9357 190.708 91.9357C190.942 91.9357 191.17 91.8616 191.36 91.724L194.018 89.7927C194.37 89.5362 194.794 89.398 195.23 89.3979V89.3979Z"
              fill="#3F3D56"/>
        <path d="M163.535 92.8184C163.099 92.8166 162.675 92.6763 162.324 92.4175C161.968 92.1649 161.703 91.8042 161.568 91.389C161.433 90.9739 161.435 90.5263 161.575 90.1126L162.59 86.9876C162.663 86.7651 162.663 86.5253 162.591 86.3027C162.519 86.0801 162.378 85.8862 162.188 85.749L159.529 83.8174C159.177 83.5616 158.915 83.2008 158.781 82.7867C158.646 82.3727 158.646 81.9267 158.781 81.5127C158.915 81.0987 159.177 80.7379 159.529 80.482C159.882 80.2262 160.306 80.0884 160.741 80.0884H164.027C164.261 80.0888 164.489 80.0149 164.679 79.8773C164.868 79.7397 165.009 79.5455 165.081 79.3228L166.096 76.1978C166.231 75.7838 166.493 75.423 166.845 75.1671C167.197 74.9112 167.621 74.7734 168.057 74.7734C168.492 74.7734 168.916 74.9112 169.268 75.1671C169.621 75.423 169.883 75.7838 170.017 76.1978L171.033 79.3228C171.105 79.5455 171.245 79.7397 171.435 79.8773C171.624 80.0149 171.852 80.0888 172.086 80.0884H175.372C175.808 80.0884 176.232 80.2262 176.584 80.4821C176.936 80.738 177.198 81.0988 177.333 81.5128C177.467 81.9268 177.467 82.3727 177.333 82.7867C177.198 83.2007 176.936 83.5616 176.584 83.8174L173.926 85.749C173.736 85.8862 173.595 86.0801 173.522 86.3027C173.45 86.5253 173.45 86.7651 173.523 86.9876L174.538 90.1126C174.673 90.5266 174.673 90.9726 174.538 91.3866C174.404 91.8006 174.142 92.1614 173.789 92.4173C173.437 92.6732 173.013 92.811 172.578 92.811C172.142 92.811 171.718 92.6732 171.366 92.4173L168.708 90.486C168.519 90.348 168.291 90.2737 168.057 90.2737C167.823 90.2737 167.595 90.348 167.405 90.486L164.747 92.4173C164.396 92.6762 163.972 92.8167 163.535 92.8184V92.8184ZM168.057 89.3198C168.492 89.3198 168.916 89.4581 169.268 89.7146L171.927 91.6459C172.116 91.7835 172.344 91.8576 172.578 91.8576C172.812 91.8577 173.04 91.7836 173.229 91.6461C173.418 91.5086 173.559 91.3146 173.632 91.0921C173.704 90.8695 173.704 90.6298 173.632 90.4073L172.616 87.2823C172.481 86.8683 172.48 86.4221 172.615 86.0079C172.75 85.5937 173.012 85.2329 173.365 84.9776L176.023 83.046C176.213 82.9085 176.353 82.7146 176.426 82.4921C176.498 82.2696 176.498 82.0299 176.426 81.8074C176.353 81.5849 176.213 81.391 176.023 81.2534C175.834 81.1159 175.606 81.0419 175.372 81.0418H172.086C171.651 81.0426 171.226 80.9051 170.874 80.6492C170.522 80.3932 170.26 80.0319 170.126 79.6175L169.11 76.4925C169.038 76.27 168.897 76.076 168.708 75.9385C168.519 75.8009 168.291 75.7269 168.057 75.7269C167.823 75.7269 167.595 75.8009 167.405 75.9385C167.216 76.076 167.075 76.27 167.003 76.4925L165.987 79.6175C165.854 80.0319 165.592 80.3932 165.239 80.6492C164.887 80.9052 164.463 81.0427 164.027 81.0418H160.741C160.507 81.0418 160.279 81.1159 160.09 81.2534C159.901 81.3909 159.76 81.5848 159.687 81.8073C159.615 82.0298 159.615 82.2695 159.687 82.4921C159.76 82.7146 159.901 82.9085 160.09 83.046L162.748 84.9776C163.101 85.233 163.364 85.5937 163.498 86.0079C163.633 86.4221 163.633 86.8683 163.497 87.2823L162.482 90.4073C162.409 90.6298 162.409 90.8695 162.482 91.092C162.554 91.3145 162.695 91.5085 162.884 91.646C163.073 91.7835 163.301 91.8575 163.535 91.8575C163.769 91.8575 163.997 91.7834 164.187 91.6459L166.845 89.7146C167.197 89.4581 167.621 89.3199 168.057 89.3198V89.3198Z"
              fill="#3F3D56"/>
        <path d="M26.2198 14.3008C25.398 14.3008 24.6098 14.6273 24.0287 15.2084C23.4476 15.7895 23.1211 16.5777 23.1211 17.3995C23.1211 18.2213 23.4476 19.0095 24.0287 19.5906C24.6098 20.1717 25.398 20.4982 26.2198 20.4982H183.062C183.883 20.4982 184.671 20.1717 185.253 19.5906C185.834 19.0095 186.16 18.2213 186.16 17.3995C186.16 16.5777 185.834 15.7895 185.253 15.2084C184.671 14.6273 183.883 14.3008 183.062 14.3008H26.2198Z"
              fill="#CCCCCC"/>
        <path d="M26.2198 30.5117C25.398 30.5117 24.6098 30.8382 24.0287 31.4193C23.4476 32.0004 23.1211 32.7886 23.1211 33.6104C23.1211 34.4322 23.4476 35.2204 24.0287 35.8015C24.6098 36.3826 25.398 36.7091 26.2198 36.7091H183.062C183.883 36.7091 184.671 36.3826 185.253 35.8015C185.834 35.2204 186.16 34.4322 186.16 33.6104C186.16 32.7886 185.834 32.0004 185.253 31.4193C184.671 30.8382 183.883 30.5117 183.062 30.5117H26.2198Z"
              fill="#CCCCCC"/>
        <path d="M26.2198 46.7188C25.398 46.7187 24.6098 47.0452 24.0287 47.6263C23.4476 48.2075 23.1211 48.9956 23.1211 49.8174C23.1211 50.6393 23.4476 51.4274 24.0287 52.0086C24.6098 52.5897 25.398 52.9161 26.2198 52.9161H183.062C183.883 52.9161 184.671 52.5897 185.253 52.0086C185.834 51.4274 186.16 50.6393 186.16 49.8174C186.16 48.9956 185.834 48.2075 185.253 47.6263C184.671 47.0452 183.883 46.7188 183.062 46.7188H26.2198Z"
              fill="#CCCCCC"/>
        <path d="M26.2198 14.3008C25.398 14.3008 24.6098 14.6273 24.0287 15.2084C23.4476 15.7895 23.1211 16.5777 23.1211 17.3995C23.1211 18.2213 23.4476 19.0095 24.0287 19.5906C24.6098 20.1717 25.398 20.4982 26.2198 20.4982H183.062C183.883 20.4982 184.671 20.1717 185.253 19.5906C185.834 19.0095 186.16 18.2213 186.16 17.3995C186.16 16.5777 185.834 15.7895 185.253 15.2084C184.671 14.6273 183.883 14.3008 183.062 14.3008H26.2198Z"
              fill="#CCCCCC"/>
        <path d="M26.2198 30.5117C25.398 30.5117 24.6098 30.8382 24.0287 31.4193C23.4476 32.0004 23.1211 32.7886 23.1211 33.6104C23.1211 34.4322 23.4476 35.2204 24.0287 35.8015C24.6098 36.3826 25.398 36.7091 26.2198 36.7091H183.062C183.883 36.7091 184.671 36.3826 185.253 35.8015C185.834 35.2204 186.16 34.4322 186.16 33.6104C186.16 32.7886 185.834 32.0004 185.253 31.4193C184.671 30.8382 183.883 30.5117 183.062 30.5117H26.2198Z"
              fill="#CCCCCC"/>
        <path d="M26.2198 46.7188C25.398 46.7187 24.6098 47.0452 24.0287 47.6263C23.4476 48.2075 23.1211 48.9956 23.1211 49.8174C23.1211 50.6393 23.4476 51.4274 24.0287 52.0086C24.6098 52.5897 25.398 52.9161 26.2198 52.9161H183.062C183.883 52.9161 184.671 52.5897 185.253 52.0086C185.834 51.4274 186.16 50.6393 186.16 49.8174C186.16 48.9956 185.834 48.2075 185.253 47.6263C184.671 47.0452 183.883 46.7188 183.062 46.7188H26.2198Z"
              fill="#CCCCCC"/>
    </g>
    <defs>
        <clipPath id="clip0_891_87538">
            <rect width="382.309" height="256" fill="white"/>
        </clipPath>
    </defs>
</svg>
