<svg width="118" height="132" viewBox="0 0 118 132" fill="none" xmlns="http://www.w3.org/2000/svg">
    <g clip-path="url(#clip0_188_85057)">
        <path d="M66.4589 101.708C94.4994 101.708 117.231 78.9401 117.231 50.8541C117.231 22.7682 94.4994 0 66.4589 0C38.4184 0 15.687 22.7682 15.687 50.8541C15.687 78.9401 38.4184 101.708 66.4589 101.708Z" fill="#F2F2F2"/>
        <path d="M99.6374 22.742H6.63034C6.4309 22.7377 6.27267 22.5723 6.27694 22.3725C6.28108 22.1788 6.4369 22.0227 6.63034 22.0186H99.6374C99.8369 22.0228 99.9951 22.1882 99.9908 22.388C99.9867 22.5817 99.8308 22.7378 99.6374 22.742Z" fill="#CACACA"/>
        <path d="M67.9409 34.9316H42.2301C40.2989 34.9316 38.7334 36.4997 38.7334 38.434V38.434C38.7334 40.3683 40.2989 41.9364 42.2301 41.9364H67.9409C69.872 41.9364 71.4376 40.3683 71.4376 38.434C71.4376 36.4997 69.872 34.9316 67.9409 34.9316Z" fill="white"/>
        <path d="M25.6207 48.9412H84.5502C86.4813 48.9412 88.0469 50.5092 88.0469 52.4435C88.0469 54.3778 86.4813 55.9459 84.5502 55.9459H25.6207C23.6895 55.9459 22.124 54.3778 22.124 52.4435C22.124 50.5092 23.6895 48.9412 25.6207 48.9412Z" fill="white"/>
        <path d="M25.6207 62.9507H84.5502C86.4813 62.9507 88.0469 64.5187 88.0469 66.453C88.0469 68.3874 86.4813 69.9554 84.5502 69.9554H25.6207C23.6895 69.9554 22.124 68.3874 22.124 66.453C22.124 64.5187 23.6895 62.9507 25.6207 62.9507Z" fill="white"/>
        <path d="M18.3182 131.692L18.1795 131.678C13.474 131.192 9.22023 128.657 6.54829 124.747C5.81642 123.658 5.22442 122.48 4.78626 121.243L4.74415 121.125L4.86883 121.115C6.3574 120.995 7.88662 120.742 8.56595 120.621L4.18543 119.135L4.15835 119.004C3.89864 117.782 4.40743 116.525 5.44333 115.829C6.48204 115.099 7.85946 115.076 8.92222 115.77C9.39915 116.075 9.898 116.377 10.3804 116.669C12.0381 117.674 13.7523 118.712 15.0375 120.133C16.9863 122.331 17.8405 125.293 17.3622 128.193L18.3182 131.692Z" fill="#F2F2F2"/>
        <path d="M34.2408 129.51L36.3996 129.51L37.4269 121.168L34.2402 121.169L34.2408 129.51Z" fill="#A0616A"/>
        <path d="M34.1651 131.766L40.8043 131.766V131.681C40.8042 130.252 39.6473 129.093 38.2202 129.093H38.22L37.0073 128.172L34.7446 129.093L34.165 129.093L34.1651 131.766Z" fill="#2F2E41"/>
        <path d="M16.939 123.52L18.6658 124.818L24.4852 118.763L21.9362 116.848L16.939 123.52Z" fill="#A0616A"/>
        <path d="M15.5264 125.279L20.8372 129.27L20.8876 129.203C21.744 128.059 21.5129 126.437 20.3713 125.579L20.3712 125.579L19.9533 124.113L17.5911 123.49L17.1275 123.141L15.5264 125.279H15.5264Z" fill="#2F2E41"/>
        <path d="M24.1156 90.3666C24.1156 90.3666 24.2348 93.6229 24.3851 96.2344C24.4098 96.6626 23.408 97.1279 23.4339 97.5938C23.4511 97.9029 23.6394 98.2034 23.6569 98.5258C23.6754 98.8659 23.4154 99.167 23.4339 99.5188C23.452 99.8625 23.7486 100.257 23.7665 100.608C23.959 104.394 24.6569 108.927 23.9581 110.194C23.6137 110.818 19.2236 119.468 19.2236 119.468C19.2236 119.468 21.6696 123.143 22.3685 121.918C23.2915 120.3 30.4052 112.731 30.4052 111.285C30.4052 109.842 32.051 99.0218 32.051 99.0218L33.1986 105.425L33.7248 106.694L33.5594 107.438L33.8995 108.444L33.9179 109.438L34.2489 111.285C34.2489 111.285 33.2531 125.677 33.8139 126.078C34.3765 126.48 37.1002 127.203 37.4217 126.48C37.7414 125.758 39.8225 111.46 39.8225 111.46C39.8225 111.46 40.158 104.909 40.5214 98.8188C40.5423 98.4653 40.7904 98.0383 40.8097 97.69C40.8324 97.2858 40.6751 96.7608 40.6961 96.3688C40.7188 95.9191 40.918 95.6024 40.9372 95.1719C41.0857 91.8452 40.252 87.7942 39.9865 87.3952C39.1845 86.1912 38.463 85.2287 38.463 85.2287C38.463 85.2287 27.6618 81.6742 24.7756 85.2861L24.1156 90.3666L24.1156 90.3666Z" fill="#2F2E41"/>
        <path d="M34.8882 56.8812L30.6064 56.0234L28.6082 58.7396C24.8798 62.4117 24.8236 65.6525 25.4892 70.8473V78.1381L25.0075 83.0257C25.0075 83.0257 23.3021 86.5986 25.061 87.4304C26.8199 88.2623 38.3733 88.1914 39.4764 87.8593C40.5795 87.5272 39.6234 87.1195 39.3337 85.572C38.7896 82.665 39.1535 84.0672 39.191 83.1417C39.7279 69.8648 38.4773 64.4142 38.3504 62.9815L36.1728 59.0256L34.8882 56.8812Z" fill="#3F3D56"/>
        <path d="M57.456 67.5861C57.0098 68.433 55.9626 68.7572 55.117 68.3102C55.0269 68.2626 54.9411 68.207 54.8607 68.1442L45.6138 74.0251L45.6404 70.8232L54.6231 65.602C55.263 64.8835 56.3632 64.8205 57.0806 65.4614C57.6809 65.9976 57.8361 66.876 57.456 67.5861Z" fill="#A0616A"/>
        <path d="M31.5074 60.5893L30.4547 60.4776C29.4819 60.3765 28.5276 60.7938 27.9402 61.5769C27.7152 61.8739 27.5536 62.2141 27.4654 62.5763L27.4648 62.5792C27.2007 63.6695 27.6149 64.812 28.5158 65.4785L32.1519 68.1636C34.7036 71.6171 39.4991 73.9083 45.1244 75.7696L53.8681 70.3305L50.7754 66.5789L44.7781 69.7982L35.8633 62.8861L35.8582 62.882L32.4652 60.6925L31.5074 60.5893L31.5074 60.5893Z" fill="#3F3D56"/>
        <path d="M33.4414 54.7753C36.1991 54.7753 38.4346 52.5361 38.4346 49.774C38.4346 47.0119 36.1991 44.7727 33.4414 44.7727C30.6838 44.7727 28.4482 47.0119 28.4482 49.774C28.4482 52.5361 30.6838 54.7753 33.4414 54.7753Z" fill="#A0616A"/>
        <path d="M33.5566 54.7764C33.5164 54.7777 33.476 54.7786 33.4357 54.7797C33.4185 54.8245 33.3999 54.8689 33.3784 54.9125L33.5566 54.7764V54.7764Z" fill="#2F2E41"/>
        <path d="M34.9272 49.9128C34.9351 49.9621 34.9471 50.0106 34.9631 50.0579C34.9565 50.0084 34.9444 49.9597 34.9272 49.9128Z" fill="#2F2E41"/>
        <path d="M38.4986 44.9867C38.293 45.6259 38.1096 44.815 37.4335 44.9609C36.6202 45.1363 35.6737 45.0761 35.0077 44.5767C34.0153 43.8474 32.7292 43.6511 31.5649 44.0512C30.4252 44.455 28.5159 44.7398 28.219 45.9135C28.1157 46.3215 28.0747 46.7643 27.8245 47.1024C27.6058 47.398 27.2605 47.5666 26.9718 47.7941C25.9969 48.5624 26.742 50.7452 27.2034 51.8986C27.6648 53.0519 28.7233 53.8922 29.887 54.3225C31.0129 54.7389 32.235 54.8124 33.4361 54.7796C33.645 54.2369 33.5547 53.6101 33.3824 53.0475C33.1958 52.4385 32.9194 51.8507 32.8415 51.2184C32.7635 50.5861 32.9347 49.8679 33.464 49.5146C33.9505 49.1899 34.7422 49.3877 34.9273 49.9127C34.8193 49.2563 35.4832 48.6212 36.1677 48.5095C36.9026 48.3895 37.6374 48.6553 38.3702 48.7876C39.103 48.9198 38.8429 45.8298 38.4986 44.9867Z" fill="#2F2E41"/>
        <path d="M66.4242 58.0472C66.8897 52.4138 62.7077 47.4692 57.0835 47.003C51.4593 46.5367 46.5226 50.7255 46.0572 56.3588C45.5917 61.9921 49.7737 66.9368 55.3979 67.403C61.0221 67.8692 65.9588 63.6805 66.4242 58.0472Z" fill="#EF4444"/>
        <path d="M58.9249 52.9385L56.2408 55.627L53.5566 52.9385C53.1221 52.5033 52.4176 52.5033 51.9831 52.9385C51.5486 53.3737 51.5486 54.0793 51.9831 54.5145L54.6673 57.203L51.9831 59.8915C51.549 60.3271 51.5497 61.0328 51.9846 61.4676C52.4189 61.9018 53.1223 61.9018 53.5566 61.4676L56.2408 58.779L58.9249 61.4676C59.3598 61.9024 60.0643 61.9017 60.4984 61.4661C60.9319 61.031 60.9319 60.3266 60.4984 59.8915L57.8142 57.203L60.4984 54.5145C60.9329 54.0793 60.9329 53.3737 60.4984 52.9385C60.0639 52.5033 59.3594 52.5033 58.9249 52.9385Z" fill="white"/>
        <path d="M52.214 48.6004C52.5152 49.5092 52.0238 50.4906 51.1164 50.7923C51.0197 50.8244 50.9203 50.848 50.8194 50.8626L48.6545 61.6175L46.3662 59.3815L48.8234 49.2743C48.7487 48.3144 49.465 47.4756 50.4234 47.4008C51.2253 47.3382 51.9656 47.8341 52.214 48.6004Z" fill="#A0616A"/>
        <path d="M29.2091 62.5115L28.3998 63.1951C27.6535 63.8282 27.2934 64.8069 27.451 65.7736C27.5092 66.1418 27.6424 66.4941 27.8424 66.8086L27.844 66.8111C28.4466 67.7567 29.5565 68.2483 30.6604 68.0586L35.1121 67.2895C39.3666 67.836 44.3373 65.9561 49.5727 63.179L51.7074 53.0937L46.8635 52.7317L45.0309 59.2952L33.8794 60.9533L33.8729 60.9541L29.9465 61.8906L29.2091 62.5115L29.2091 62.5115Z" fill="#3F3D56"/>
        <path d="M54.5571 131.938L0.237236 132C0.105791 132 -0.000424489 131.892 1.27555e-06 131.761C0.000423042 131.63 0.106388 131.524 0.237236 131.523L54.5571 131.462C54.6886 131.462 54.7948 131.569 54.7944 131.701C54.794 131.832 54.688 131.938 54.5571 131.938Z" fill="#CACACA"/>
        <path d="M11.3491 18.16C12.2827 18.16 13.0395 17.385 13.0395 16.4291C13.0395 15.4732 12.2827 14.6982 11.3491 14.6982C10.4155 14.6982 9.65869 15.4732 9.65869 16.4291C9.65869 17.385 10.4155 18.16 11.3491 18.16Z" fill="#3F3D56"/>
        <path d="M17.1884 18.16C18.122 18.16 18.8788 17.385 18.8788 16.4291C18.8788 15.4732 18.122 14.6982 17.1884 14.6982C16.2549 14.6982 15.498 15.4732 15.498 16.4291C15.498 17.385 16.2549 18.16 17.1884 18.16Z" fill="#3F3D56"/>
        <path d="M23.0283 18.16C23.9619 18.16 24.7187 17.385 24.7187 16.4291C24.7187 15.4732 23.9619 14.6982 23.0283 14.6982C22.0947 14.6982 21.3379 15.4732 21.3379 16.4291C21.3379 17.385 22.0947 18.16 23.0283 18.16Z" fill="#3F3D56"/>
        <path d="M29.6867 17.7972C29.6348 17.7972 29.5829 17.7771 29.5438 17.737L28.4032 16.5691C28.3272 16.4913 28.3272 16.367 28.4032 16.2891L29.5438 15.1214C29.6212 15.0424 29.7479 15.0411 29.8265 15.1183C29.9054 15.1956 29.9068 15.3224 29.8296 15.4014L28.8257 16.4291L29.8296 17.457C29.9068 17.536 29.9054 17.6628 29.8265 17.7401C29.7876 17.7782 29.7371 17.7972 29.6867 17.7972Z" fill="#3F3D56"/>
        <path d="M31.6032 17.7971C31.5528 17.7971 31.5023 17.7781 31.4635 17.74C31.3845 17.6627 31.3831 17.536 31.4603 17.4569L32.4641 16.429L31.4603 15.4013C31.3831 15.3223 31.3845 15.1955 31.4635 15.1182C31.5422 15.0407 31.6689 15.0422 31.7461 15.1213L32.8866 16.2891C32.9626 16.3669 32.9626 16.4912 32.8866 16.569L31.7461 17.7369C31.707 17.777 31.6551 17.7971 31.6032 17.7971Z" fill="#3F3D56"/>
        <path d="M91.2724 14.8987H89.1516C88.9098 14.8987 88.7139 15.0949 88.7139 15.3371V17.4634C88.7139 17.7057 88.9098 17.9019 89.1516 17.9019H91.2724C91.5143 17.9019 91.7122 17.7057 91.7122 17.4634V15.3371C91.7122 15.0949 91.5143 14.8987 91.2724 14.8987Z" fill="#3F3D56"/>
        <path d="M86.0752 14.8987H83.9544C83.7125 14.8987 83.5166 15.0949 83.5166 15.3371V17.4634C83.5166 17.7057 83.7125 17.9019 83.9544 17.9019H86.0752C86.3171 17.9019 86.5149 17.7057 86.5149 17.4634V15.3371C86.5149 15.0949 86.3171 14.8987 86.0752 14.8987Z" fill="#3F3D56"/>
        <path d="M96.1694 14.9988H94.0486C93.8067 14.9988 93.6108 15.195 93.6108 15.4372V17.5635C93.6108 17.8058 93.8067 18.002 94.0486 18.002H96.1694C96.4113 18.002 96.6092 17.8058 96.6092 17.5635V15.4372C96.6092 15.195 96.4113 14.9988 96.1694 14.9988Z" fill="#3F3D56"/>
        <path d="M64.2031 15.8076H47.2505C46.9547 15.8076 46.7168 16.0479 46.7168 16.3422C46.7168 16.6365 46.9547 16.8768 47.2505 16.8768H64.2031C64.4969 16.8768 64.7368 16.6365 64.7368 16.3422C64.7368 16.0479 64.4969 15.8076 64.2031 15.8076Z" fill="#3F3D56"/>
    </g>
    <defs>
        <clipPath id="clip0_188_85057">
            <rect width="117.231" height="132" fill="white"/>
        </clipPath>
    </defs>
</svg>