<svg width="16" height="20" viewBox="0 0 16 20" fill="none" xmlns="http://www.w3.org/2000/svg">
<path fill-rule="evenodd" clip-rule="evenodd" d="M3.1998 0.398438C1.87432 0.398438 0.799805 1.47296 0.799805 2.79844V17.1984C0.799805 18.5239 1.87432 19.5984 3.1998 19.5984H12.7998C14.1253 19.5984 15.1998 18.5239 15.1998 17.1984V6.89549C15.1998 6.25897 14.9469 5.64853 14.4969 5.19844L10.3998 1.10138C9.94972 0.651294 9.33927 0.398438 8.70275 0.398438H3.1998ZM9.19981 7.59844C9.19981 6.9357 8.66255 6.39844 7.9998 6.39844C7.33706 6.39844 6.7998 6.9357 6.7998 7.59844V11.9014L5.24833 10.3499C4.7797 9.88128 4.01991 9.88128 3.55128 10.3499C3.08265 10.8185 3.08265 11.5783 3.55128 12.047L7.15128 15.647C7.61991 16.1156 8.3797 16.1156 8.84833 15.647L12.4483 12.047C12.917 11.5783 12.917 10.8185 12.4483 10.3499C11.9797 9.88128 11.2199 9.88128 10.7513 10.3499L9.19981 11.9014V7.59844Z" fill="#9DA3AE"/>
</svg>
