<svg width="260" height="217" viewBox="0 0 260 217" fill="none" xmlns="http://www.w3.org/2000/svg">
<path d="M241 108C266 209 229.944 234.11 127.5 205C36 179 0 178.14 0 108C9.5 27 109.36 0 179.5 0C249.64 0 283 26 241 108Z" fill="white"/>
<path d="M134.684 175.791C135.664 176.135 136.716 176.221 137.739 176.041C138.762 175.861 139.721 175.421 140.524 174.764C142.57 173.049 143.211 170.225 143.733 167.61L145.276 159.874L142.045 162.096C139.721 163.694 137.345 165.343 135.736 167.657C134.127 169.972 133.425 173.131 134.717 175.636" fill="#E4E4E4"/>
<path d="M135.183 185.696C134.777 182.737 134.358 179.739 134.644 176.749C134.897 174.092 135.709 171.499 137.361 169.371C138.238 168.244 139.305 167.278 140.514 166.518C140.829 166.319 141.12 166.818 140.806 167.016C138.713 168.336 137.095 170.286 136.184 172.584C135.178 175.14 135.016 177.925 135.19 180.64C135.294 182.282 135.517 183.913 135.741 185.542C135.758 185.616 135.747 185.693 135.71 185.759C135.672 185.825 135.611 185.874 135.539 185.897C135.465 185.917 135.386 185.907 135.32 185.869C135.253 185.831 135.204 185.769 135.183 185.695L135.183 185.696Z" fill="#F2F2F2"/>
<path d="M138.11 180.947C138.531 181.585 139.108 182.105 139.788 182.455C140.467 182.805 141.225 182.975 141.989 182.947C143.954 182.854 145.59 181.486 147.064 180.186L151.423 176.343L148.538 176.205C146.463 176.106 144.335 176.013 142.359 176.653C140.383 177.292 138.561 178.829 138.2 180.872" fill="#E4E4E4"/>
<path d="M134.034 187.396C135.992 183.937 138.263 180.092 142.321 178.863C143.449 178.522 144.632 178.4 145.806 178.503C146.176 178.535 146.084 179.105 145.715 179.073C143.746 178.91 141.782 179.429 140.152 180.543C138.584 181.609 137.362 183.091 136.329 184.663C135.696 185.626 135.129 186.629 134.561 187.631C134.38 187.952 133.85 187.721 134.034 187.396Z" fill="#F2F2F2"/>
<path d="M199.026 145.46H56V44H199.026V145.46Z" fill="white"/>
<path d="M67.6509 85.6715C67.2813 85.6715 66.9268 85.8181 66.6655 86.0791C66.4041 86.3401 66.2573 86.6941 66.2573 87.0632C66.2573 87.4323 66.4041 87.7863 66.6655 88.0473C66.9268 88.3083 67.2813 88.4549 67.6509 88.4549H115.951C116.32 88.4542 116.674 88.3073 116.935 88.0463C117.196 87.7854 117.342 87.4318 117.342 87.0632C117.342 86.6946 117.196 86.341 116.935 86.0801C116.674 85.8191 116.32 85.6722 115.951 85.6715H67.6509Z" fill="#8C2BE3"/>
<path d="M67.6509 94.0217C67.2813 94.021 66.9265 94.1668 66.6647 94.4273C66.4028 94.6877 66.2552 95.0414 66.2544 95.4105C66.2536 95.7796 66.3997 96.1339 66.6605 96.3954C66.9213 96.657 67.2754 96.8043 67.645 96.8051H115.987C116.357 96.8051 116.711 96.6585 116.972 96.3975C117.234 96.1365 117.381 95.7825 117.381 95.4134C117.381 95.0443 117.234 94.6903 116.972 94.4293C116.711 94.1684 116.357 94.0217 115.987 94.0217H67.6509Z" fill="#8C2BE3"/>
<path d="M67.6509 102.252C67.2813 102.252 66.9265 102.398 66.6647 102.658C66.4028 102.918 66.2552 103.272 66.2544 103.641C66.2536 104.01 66.3997 104.365 66.6605 104.626C66.9213 104.888 67.2754 105.035 67.645 105.036H78.5234C78.893 105.036 79.2475 104.889 79.5088 104.628C79.7702 104.367 79.917 104.013 79.917 103.644C79.917 103.275 79.7702 102.921 79.5088 102.66C79.2475 102.399 78.893 102.252 78.5234 102.252H67.6509Z" fill="#8C2BE3"/>
<path d="M199.026 145.46H56V44H199.026V145.46ZM58.3511 143.112H196.675V46.3479H58.3511V143.112Z" fill="#E5E5E5"/>
<path d="M154.022 123.166C153.358 123.165 152.72 123.428 152.25 123.896C151.779 124.365 151.514 125.001 151.512 125.664C151.511 126.328 151.773 126.965 152.242 127.435C152.711 127.906 153.347 128.171 154.012 128.173H177.948C178.277 128.173 178.604 128.109 178.908 127.983C179.212 127.857 179.489 127.673 179.722 127.441C179.955 127.208 180.14 126.932 180.266 126.628C180.392 126.324 180.457 125.999 180.457 125.67C180.457 125.341 180.392 125.015 180.266 124.711C180.14 124.407 179.955 124.131 179.722 123.899C179.489 123.666 179.212 123.482 178.908 123.356C178.604 123.23 178.277 123.166 177.948 123.166H154.022Z" fill="#E4E4E4"/>
<path d="M154.022 92.8503C153.358 92.8494 152.72 93.112 152.25 93.5805C151.779 94.0489 151.514 94.6848 151.512 95.3484C151.511 96.0121 151.773 96.6491 152.242 97.1195C152.711 97.5899 153.347 97.8552 154.012 97.8571H177.948C178.277 97.8574 178.604 97.7929 178.908 97.6672C179.212 97.5416 179.489 97.3572 179.722 97.1247C179.955 96.8923 180.14 96.6162 180.266 96.3123C180.392 96.0084 180.457 95.6827 180.457 95.3537C180.457 95.0248 180.392 94.699 180.266 94.3951C180.14 94.0913 179.955 93.8152 179.722 93.5827C179.489 93.3502 179.212 93.1658 178.908 93.0402C178.604 92.9145 178.277 92.85 177.948 92.8503H154.022Z" fill="#E4E4E4"/>
<path d="M67.6509 124.326C67.4679 124.325 67.2866 124.361 67.1174 124.431C66.9482 124.5 66.7943 124.602 66.6647 124.731C66.535 124.86 66.432 125.014 66.3616 125.182C66.2912 125.351 66.2548 125.532 66.2544 125.715C66.254 125.897 66.2897 126.078 66.3594 126.247C66.429 126.416 66.5314 126.57 66.6605 126.699C66.7896 126.829 66.943 126.932 67.112 127.002C67.2809 127.072 67.462 127.109 67.645 127.109H115.987C116.357 127.109 116.711 126.963 116.972 126.702C117.234 126.441 117.381 126.087 117.381 125.717C117.381 125.348 117.234 124.994 116.972 124.733C116.711 124.472 116.357 124.326 115.987 124.326H67.6509Z" fill="#E4E4E4"/>
<path d="M67.6509 132.557C67.4679 132.556 67.2866 132.592 67.1174 132.661C66.9482 132.731 66.7943 132.833 66.6647 132.962C66.535 133.091 66.432 133.244 66.3616 133.413C66.2912 133.582 66.2548 133.763 66.2544 133.945C66.254 134.128 66.2897 134.309 66.3594 134.478C66.429 134.647 66.5314 134.801 66.6605 134.93C66.7896 135.06 66.943 135.163 67.112 135.233C67.2809 135.303 67.462 135.34 67.645 135.34H78.5234C78.893 135.34 79.2475 135.193 79.5088 134.932C79.7702 134.671 79.917 134.317 79.917 133.948C79.917 133.579 79.7702 133.225 79.5088 132.964C79.2475 132.703 78.893 132.557 78.5234 132.557H67.6509Z" fill="#E4E4E4"/>
<path d="M67.6509 115.976C67.2813 115.976 66.9268 116.122 66.6655 116.383C66.4041 116.644 66.2573 116.998 66.2573 117.367C66.2573 117.736 66.4041 118.09 66.6655 118.351C66.9268 118.612 67.2813 118.759 67.6509 118.759H115.951C116.32 118.758 116.674 118.611 116.935 118.351C117.196 118.09 117.342 117.736 117.342 117.367C117.342 116.999 117.196 116.645 116.935 116.384C116.674 116.123 116.32 115.976 115.951 115.976H67.6509Z" fill="#E4E4E4"/>
<path d="M67.6509 55.3674C67.2813 55.3674 66.9268 55.5141 66.6655 55.7751C66.4041 56.036 66.2573 56.39 66.2573 56.7591C66.2573 57.1282 66.4041 57.4822 66.6655 57.7432C66.9268 58.0042 67.2813 58.1508 67.6509 58.1508H115.951C116.32 58.1501 116.674 58.0032 116.935 57.7423C117.196 57.4813 117.342 57.1278 117.342 56.7591C117.342 56.3905 117.196 56.0369 116.935 55.776C116.674 55.5151 116.32 55.3681 115.951 55.3674H67.6509Z" fill="#E4E4E4"/>
<path d="M67.6509 63.7177C67.4679 63.7173 67.2866 63.7529 67.1174 63.8225C66.9482 63.8921 66.7943 63.9942 66.6647 64.1232C66.535 64.2522 66.432 64.4054 66.3616 64.5741C66.2912 64.7428 66.2548 64.9237 66.2544 65.1064C66.254 65.2892 66.2897 65.4702 66.3594 65.6392C66.429 65.8082 66.5314 65.9618 66.6605 66.0913C66.7896 66.2208 66.943 66.3237 67.112 66.394C67.2809 66.4643 67.462 66.5006 67.645 66.501H115.987C116.17 66.501 116.351 66.465 116.52 66.3951C116.689 66.3252 116.843 66.2226 116.972 66.0934C117.102 65.9642 117.204 65.8108 117.274 65.6419C117.344 65.4731 117.381 65.2921 117.381 65.1093C117.381 64.9266 117.344 64.7456 117.274 64.5768C117.204 64.4079 117.102 64.2545 116.972 64.1253C116.843 63.996 116.689 63.8935 116.52 63.8236C116.351 63.7537 116.17 63.7177 115.987 63.7177H67.6509Z" fill="#E4E4E4"/>
<path d="M67.6509 71.9484C67.2813 71.9476 66.9265 72.0935 66.6647 72.3539C66.4028 72.6143 66.2552 72.968 66.2544 73.3371C66.2536 73.7062 66.3997 74.0605 66.6605 74.322C66.9213 74.5836 67.2754 74.731 67.645 74.7317H78.5234C78.893 74.7317 79.2475 74.5851 79.5088 74.3241C79.7702 74.0631 79.917 73.7092 79.917 73.3401C79.917 72.971 79.7702 72.617 79.5088 72.356C79.2475 72.095 78.893 71.9484 78.5234 71.9484H67.6509Z" fill="#E4E4E4"/>
<path d="M154.022 62.5581C153.358 62.5572 152.72 62.8198 152.25 63.2882C151.779 63.7567 151.514 64.3926 151.512 65.0562C151.511 65.7198 151.773 66.3568 152.242 66.8272C152.711 67.2977 153.347 67.563 154.012 67.5648H177.948C178.277 67.5652 178.604 67.5007 178.908 67.375C179.212 67.2493 179.489 67.065 179.722 66.8325C179.955 66.6 180.14 66.3239 180.266 66.02C180.392 65.7162 180.457 65.3904 180.457 65.0615C180.457 64.7325 180.392 64.4068 180.266 64.1029C180.14 63.799 179.955 63.5229 179.722 63.2904C179.489 63.0579 179.212 62.8736 178.908 62.7479C178.604 62.6223 178.277 62.5578 177.948 62.5581H154.022Z" fill="#E4E4E4"/>
<path d="M159.065 69.5272C161.548 69.5272 163.561 67.5172 163.561 65.0377C163.561 62.5582 161.548 60.5482 159.065 60.5482C156.582 60.5482 154.569 62.5582 154.569 65.0377C154.569 67.5172 156.582 69.5272 159.065 69.5272Z" fill="#CACACA"/>
<path d="M166.923 96.4392C166.873 96.7996 166.903 97.1665 167.01 97.5142C167.118 97.8618 167.301 98.1816 167.545 98.4511C167.79 98.7207 168.091 98.9333 168.427 99.0742C168.763 99.215 169.125 99.2806 169.489 99.2663L171.877 104.429L175.372 103.746L171.899 96.5018C171.834 95.8927 171.548 95.3284 171.094 94.9159C170.641 94.5033 170.052 94.2712 169.439 94.2635C168.825 94.2558 168.23 94.473 167.767 94.874C167.303 95.275 167.003 95.8319 166.923 96.4392V96.4392Z" fill="#FFB6B6"/>
<path d="M191.107 115.978L181.367 111.166L174.493 99.5166L169.689 101.837L175.924 115.295L191.675 124.375L191.107 115.978Z" fill="#3F3D56"/>
<path d="M169.117 184.844L166.054 184.844L164.598 176.028L169.117 176.028L169.117 184.844Z" fill="#FFB6B6"/>
<path d="M169.897 187.808L160.024 187.808V187.683C160.024 186.666 160.429 185.69 161.15 184.97C161.871 184.25 162.848 183.846 163.867 183.846H163.868L169.898 183.846L169.897 187.808Z" fill="#2F2E41"/>
<path d="M199.68 179.236L197.544 181.426L190.203 176.317L193.356 173.084L199.68 179.236Z" fill="#FFB6B6"/>
<path d="M202.352 180.745L195.463 187.808L195.373 187.721C194.643 187.011 194.226 186.041 194.212 185.023C194.199 184.005 194.591 183.024 195.302 182.295L195.302 182.295L199.509 177.981L202.352 180.745Z" fill="#2F2E41"/>
<path d="M172.902 132.375H170.784C165.279 138.383 161.076 145.462 158.441 153.169L155.911 160.566L164.927 179.42L170.554 179.52L164.123 159.504L170.602 150.924L170.929 168.171L191.781 179.087L195.955 172.93L178.986 163.664L181.876 148.993C181.876 148.993 187.69 144.152 184.304 136.582L172.902 132.375Z" fill="#2F2E41"/>
<path d="M200.774 113.175L191.974 109.326L182.288 113.612C182.288 113.612 179.545 115.17 181.293 119.161L170.784 132.375C170.784 132.375 170.804 132.38 184.011 136.582L195.927 126.103C197.737 124.512 199.126 122.5 199.971 120.245C200.816 117.99 201.092 115.562 200.774 113.175V113.175Z" fill="#3F3D56"/>
<path d="M199.298 109.212C202.686 109.212 205.432 106.47 205.432 103.086C205.432 99.7032 202.686 96.9606 199.298 96.9606C195.91 96.9606 193.164 99.7032 193.164 103.086C193.164 106.47 195.91 109.212 199.298 109.212Z" fill="#FFB6B6"/>
<path d="M207.242 94.9571C205.834 93.8133 203.651 93.5636 202.197 94.649C199.663 93.3204 196.237 94.0134 194.42 96.2225C193.766 97.0174 193.303 98.0928 193.626 99.0695C193.95 100.046 195.345 100.62 196.072 99.8918L196.059 100.192C196.714 100.847 197.169 101.675 197.369 102.579C197.568 103.483 197.506 104.426 197.188 105.295C196.87 106.165 196.31 106.926 195.574 107.489C194.838 108.051 193.956 108.393 193.032 108.472C195.042 109.283 197.053 110.094 199.063 110.905C199.909 111.246 200.781 111.593 201.693 111.588C202.606 111.583 203.578 111.141 203.932 110.301C204.186 111.08 204.441 111.859 204.695 112.638C206.194 110.258 207.426 107.721 208.371 105.072C208.979 103.364 209.471 101.579 209.405 99.7677C209.34 97.9565 208.65 96.1008 207.242 94.9571Z" fill="#2F2E41"/>
<path d="M159.065 130.135C161.548 130.135 163.561 128.125 163.561 125.646C163.561 123.166 161.548 121.156 159.065 121.156C156.582 121.156 154.569 123.166 154.569 125.646C154.569 128.125 156.582 130.135 159.065 130.135Z" fill="#CACACA"/>
<path d="M173.052 99.8431C175.535 99.8431 177.547 97.8331 177.547 95.3536C177.547 92.8742 175.535 90.8641 173.052 90.8641C170.569 90.8641 168.556 92.8742 168.556 95.3536C168.556 97.8331 170.569 99.8431 173.052 99.8431Z" fill="#8C2BE3"/>
<path d="M173.166 93.9451C173.117 94.3055 173.147 94.6724 173.254 95.02C173.362 95.3676 173.544 95.6875 173.789 95.957C174.034 96.2265 174.334 96.4392 174.67 96.58C175.006 96.7209 175.369 96.7864 175.733 96.7721L178.12 101.935L181.616 101.252L178.142 94.0077C178.078 93.3986 177.791 92.8343 177.338 92.4217C176.885 92.0092 176.295 91.7771 175.682 91.7694C175.069 91.7616 174.474 91.9789 174.01 92.3799C173.547 92.7809 173.246 93.3378 173.166 93.9451V93.9451Z" fill="#FFB6B6"/>
<path d="M197.351 113.483L187.61 108.672L180.737 97.0225L175.933 99.3433L182.168 112.801L197.918 121.881L197.351 113.483Z" fill="#3F3D56"/>
<path d="M224.75 188H129.593C129.527 188 129.463 187.974 129.416 187.927C129.37 187.88 129.343 187.817 129.343 187.751C129.343 187.684 129.37 187.621 129.416 187.574C129.463 187.527 129.527 187.501 129.593 187.501H224.75C224.817 187.501 224.88 187.527 224.927 187.574C224.974 187.621 225 187.684 225 187.751C225 187.817 224.974 187.88 224.927 187.927C224.88 187.974 224.817 188 224.75 188Z" fill="#CACACA"/>
</svg>
