<svg width="254" height="199" viewBox="0 0 254 199" fill="none" xmlns="http://www.w3.org/2000/svg">
<path d="M254 108C254 178.14 242.5 199 116 199C19.5 199 0 178.14 0 108C9.5 27 109.36 0 179.5 0C249.64 0 254 37.8598 254 108Z" fill="white"/>
<path d="M222.304 39.9807H98.6276C98.3559 39.9748 98.1406 39.7509 98.1466 39.4807C98.1524 39.2188 98.3644 39.008 98.6276 39.0022H222.304C222.575 39.0082 222.791 39.2321 222.785 39.5023C222.779 39.7641 222.567 39.975 222.304 39.9807Z" fill="#E6E6E6"/>
<path d="M120.408 90.259H170.305C170.432 90.259 170.535 90.3613 170.535 90.4875V119.35C170.535 119.476 170.432 119.579 170.305 119.579H120.408V90.259V90.259Z" fill="#E6E6E6"/>
<path d="M170.247 119.734L120.343 90.4804L120.474 90.0376L170.379 119.292C170.501 119.328 170.572 119.456 170.535 119.578C170.499 119.701 170.37 119.771 170.247 119.734H170.247Z" fill="white"/>
<path d="M120.474 119.8L120.343 119.357L170.247 90.103C170.37 90.0669 170.499 90.1367 170.535 90.259V90.259C170.572 90.3813 170.501 90.5097 170.379 90.5458L120.474 119.8Z" fill="white"/>
<path d="M164.638 61.3859H126.249C125.649 61.3859 125.162 61.8698 125.162 62.4667V62.4667C125.162 63.0636 125.649 63.5475 126.249 63.5475H164.638C165.238 63.5475 165.725 63.0636 165.725 62.4667C165.725 61.8698 165.238 61.3859 164.638 61.3859Z" fill="#E6E6E6"/>
<path d="M169.799 68.1333H121.088C120.488 68.1333 120.001 68.6172 120.001 69.2141V69.2141C120.001 69.8111 120.488 70.295 121.088 70.295H169.799C170.399 70.295 170.886 69.8111 170.886 69.2141C170.886 68.6172 170.399 68.1333 169.799 68.1333Z" fill="#E6E6E6"/>
<path d="M169.799 74.8806H121.088C120.488 74.8806 120.001 75.3645 120.001 75.9614C120.001 76.5584 120.488 77.0423 121.088 77.0423H169.799C170.399 77.0423 170.886 76.5584 170.886 75.9614C170.886 75.3645 170.399 74.8806 169.799 74.8806Z" fill="#8C2BE3"/>
<path d="M215.991 97.6583C215.987 106.002 210.686 113.434 202.771 116.194C202.603 116.254 202.434 116.308 202.265 116.361C191.882 119.663 180.775 113.967 177.456 103.639C174.137 93.3104 179.863 82.2611 190.245 78.9593C200.627 75.6575 211.734 81.3535 215.053 91.6817C215.674 93.6138 215.99 95.6299 215.991 97.6584V97.6583Z" fill="#E6E6E6"/>
<path d="M169.791 77.4758C169.711 78.3859 170.388 79.1876 171.303 79.2666C171.401 79.2751 171.499 79.2749 171.596 79.2662L174.026 84.6235L175.667 82.042L173.108 77.3504C172.964 76.4432 172.109 75.8235 171.197 75.9663C170.434 76.0858 169.852 76.7098 169.791 77.4758V77.4758Z" fill="#FFB6B6"/>
<path d="M193.74 97.6511C193.705 97.4928 193.66 97.3368 193.605 97.184C193.257 96.1993 192.547 95.3819 191.619 94.8954C191.597 94.8827 191.573 94.87 191.551 94.8591L180.449 89.255L179.464 87.3446L175.485 79.632L174.509 79.921L172.203 80.6026L172.15 80.6172L175.972 93.414L176.85 94.0829L186.784 101.641L187.108 101.888C188.758 103.141 191.082 103.005 192.573 101.568C192.722 101.426 192.859 101.273 192.984 101.11C193.741 100.127 194.019 98.8587 193.74 97.6511V97.6511Z" fill="#8C2BE3"/>
<path d="M199.913 111.706L199.855 109.597L199.686 103.482C200.295 99.5687 200.726 99.1343 197.792 96.4586C197.565 96.4102 197.369 96.269 197.253 96.0696C196.986 95.5279 197.627 94.6081 197.074 93.1921L192.705 93.4412L191.619 94.8954L187.252 100.748C187.081 101.038 186.925 101.336 186.784 101.641C184.915 105.68 187.449 107.827 187.647 108.196L188.856 111.986L189.523 115.661L189.739 116.172L190.347 116.394C194.229 117.6 198.39 117.588 202.265 116.361C201.613 114.747 200.826 113.19 199.913 111.706Z" fill="#8C2BE3"/>
<path d="M208.375 126.571C208.748 125.736 208.371 124.758 207.533 124.387C207.443 124.347 207.351 124.315 207.255 124.292L206.717 118.439L204.318 120.346L205.198 125.612C205.036 126.516 205.641 127.379 206.55 127.541C207.31 127.676 208.065 127.275 208.375 126.571Z" fill="#FFB6B6"/>
<path d="M200.019 97.8711C199.386 96.9174 198.385 96.2658 197.253 96.0697C197.01 96.0261 196.765 96.0042 196.518 96.0043C195.697 96.0044 194.895 96.2453 194.211 96.6968C193.993 96.8393 193.791 97.0025 193.606 97.184C191.945 98.7839 191.903 101.42 193.511 103.072L193.513 103.073L199.855 109.597L202.166 111.975L202.771 116.194L203.701 122.685L204.717 122.729L207.122 122.834L207.177 122.836L207.577 113.74L207.763 109.499L200.019 97.8711V97.8711Z" fill="#8C2BE3"/>
<path d="M191.352 83.2145C189.808 86.2431 190.817 89.7512 193.683 91.596C196.782 93.5908 200.806 93.154 202.108 89.2774C203.558 84.9604 202.367 83.1085 199.777 80.8959C196.743 78.3031 193.021 79.9422 191.352 83.2145Z" fill="#2F2E41"/>
<path d="M198.956 89.9613C197.317 92.0975 194.249 92.5081 192.101 90.8784C189.957 89.2508 189.542 86.2031 191.174 84.0667L191.216 84.0112C192.902 81.9121 195.979 81.5699 198.09 83.247C200.152 84.886 200.534 87.8571 198.954 89.9604L198.956 89.9613Z" fill="#FFB6B6"/>
<path d="M189.855 82.7242C190.65 83.4765 191.619 84.0226 192.676 84.3142C192.888 84.0704 193.139 83.8632 193.419 83.7014C193.285 83.979 193.193 84.275 193.146 84.5795C193.618 85.5529 195.544 86.2526 197.384 86.9683L199.822 82.6883L196.595 80.8694C194.002 79.0861 190.95 79.8472 189.855 82.7242Z" fill="#2F2E41"/>
<path d="M201.661 80.9013C202.139 80.726 202.674 80.8037 203.082 81.1077C203.475 81.4048 203.793 81.7891 204.01 82.23C204.404 82.9433 204.688 83.7121 204.851 84.5101C204.99 85.2004 204.966 86.0351 204.344 86.3953C203.824 86.6959 203.081 86.5067 202.604 86.1055C202.161 85.6846 201.825 85.1651 201.624 84.5898C201.391 84.0393 201.171 83.4685 200.757 83.0112L201.187 83.211C201.051 82.8004 200.988 82.3693 201 81.9371C201.02 81.4995 201.272 81.1053 201.661 80.9013Z" fill="#2F2E41"/>
<path d="M196.08 81.4623L199.542 83.4136C201.491 84.5124 202.176 86.9752 201.071 88.9144C199.47 91.7247 195.983 92.863 193.02 91.5429L196.183 88.7649L191.892 90.94L190.976 90.4235C195.578 89.5911 196.466 85.9997 196.08 81.4623Z" fill="#2F2E41"/>
<path d="M202.62 84.892C203.202 85.5668 204.114 85.8291 204.937 86.1802C207.886 87.467 210.005 90.1188 210.602 93.2664C210.829 94.5292 210.799 95.8364 211.159 97.0675C211.516 98.2986 212.401 99.5064 213.67 99.7201C214.529 99.866 215.39 99.536 216.198 99.2103C216.643 99.0326 217.087 98.8542 217.531 98.6751C217.068 97.5181 216.605 96.361 216.143 95.204C216.886 96.2959 217.749 97.3013 218.718 98.2013C220.311 97.5625 221.905 96.9237 223.5 96.2849C219.575 96.2997 220.245 92.5091 219.366 88.7059C218.884 86.616 214.774 85.2009 213.968 83.2125C212.709 80.0952 209.148 78.5832 206.015 79.8353C204.664 80.3749 203.552 81.3758 202.877 82.6583C202.071 82.9777 202.048 84.2257 202.62 84.892Z" fill="#2F2E41"/>
<path d="M88.5976 121.507C87.8622 120.581 88.021 119.236 88.9522 118.505C89.0424 118.434 89.1382 118.37 89.2386 118.315L88.1177 107.72L90.9873 106.691L92.2262 119.284C92.7243 120.354 92.2563 121.623 91.1811 122.118C90.2814 122.533 89.2134 122.28 88.5976 121.507V121.507H88.5976Z" fill="#FFB6B6"/>
<path d="M87.0631 82.6626C87.0631 82.6626 91.7216 84.9237 91.7367 87.582C91.7518 90.2402 92.1377 92.6445 91.7731 93.673C91.4086 94.7016 92.6996 102.178 92.0952 102.918C91.4909 103.659 92.7359 104.037 92.0817 105.304C91.4275 106.571 91.1378 106.81 91.3776 107.098C91.6173 107.386 91.9695 112.879 91.9695 112.879L88.1308 113.357L84.0474 95.6283L87.0631 82.6626H87.0631Z" fill="#3F3D56"/>
<path d="M64.9094 122.583C65.7824 121.784 65.8387 120.432 65.0351 119.563C64.9572 119.479 64.8727 119.401 64.7823 119.33L67.5685 109.044L64.8979 107.578L61.6785 119.819C61.0171 120.797 61.2781 122.124 62.2613 122.782C63.0841 123.332 64.1788 123.25 64.9094 122.583L64.9094 122.583Z" fill="#FFB6B6"/>
<path d="M72.5815 84.4655C72.5815 84.4655 67.6229 85.9676 67.1866 88.5902C66.7504 91.2128 65.9883 93.5265 66.1852 94.5994C66.3822 95.6722 63.9224 102.852 64.4019 103.678C64.8813 104.504 63.5918 104.683 64.037 106.037C64.4822 107.391 64.7305 107.672 64.448 107.919C64.1656 108.166 62.9473 113.534 62.9473 113.534L66.6622 114.608L73.5045 97.742L72.5815 84.4655Z" fill="#3F3D56"/>
<path d="M91.6245 168.605L94.9318 168.605L96.5053 155.914L91.624 155.915L91.6245 168.605Z" fill="#FFB6B6"/>
<path d="M96.0324 168.901V166.671L95.1629 166.724L91.6235 166.932L90.8043 166.982L90.1781 174.453L90.1445 174.853H92.4929L92.5684 174.456L92.9095 172.648L93.7902 174.456L93.9831 174.853H100.209C100.98 174.848 101.604 174.227 101.607 173.46C101.87 172.239 96.6922 169.6 96.0324 168.901H96.0324Z" fill="#2F2E41"/>
<path d="M52.8765 165.024L55.7532 166.647L63.4172 156.382L59.1716 153.986L52.8765 165.024Z" fill="#FFB6B6"/>
<path d="M56.5648 167.444L57.6691 165.506L56.8919 165.124L53.7076 163.57L52.9695 163.208L49.3434 168.49L48.4907 169.73L49.4553 170.275L50.5316 170.884L51.991 169.171L51.8288 171.616L56.9143 174.489H56.9171L57.2442 174.672C57.9167 175.05 58.7699 174.815 59.1509 174.147C59.984 173.212 56.7913 168.379 56.5648 167.444H56.5648Z" fill="#2F2E41"/>
<path d="M75.2111 106.309C67.8807 106.571 65.3046 136.303 67.5431 136.842L57.0967 156.209L71.9656 162.84L81.7422 129.07L83.3716 141.497L81.199 161.219L90.8101 163.531L97.4578 163.058C95.7304 139.551 91.4175 114.757 87.8432 105.167L75.2111 106.309Z" fill="#2F2E41"/>
<path d="M71.8459 108.393L71.7977 108.574C76.4831 111.167 79.6826 110.612 84.8043 109.043L88.5433 108.261C89.3594 107.202 88.6943 106.167 87.7901 105.159L90.0316 86.818C90.0166 84.4418 88.068 82.5277 85.6794 82.5427C85.5813 82.5433 85.4832 82.5473 85.3853 82.5545L82.0183 80.0732L77.2249 80.2377L74.0187 83.7609L72.1032 84.4418L70.6149 84.9696C70.314 85.2392 69.9856 85.5499 69.6709 85.8927L72.0251 99.83L73.0265 103.998C71.6841 105.52 70.9445 107.006 71.8459 108.393Z" fill="#3F3D56"/>
<path d="M44.6527 172.551C41.1648 172.138 38.0507 170.181 36.1778 167.225C34.9753 165.285 34.3548 162.981 33.7547 160.753C33.58 160.104 33.3994 159.434 33.2082 158.787C32.7659 157.342 33.2518 155.775 34.4354 154.829C35.5797 153.875 37.1924 153.709 38.5084 154.411L38.6488 154.485L38.8948 159.986C39.2594 159.249 40.0595 157.584 40.6933 155.922L40.7465 155.782L40.8679 155.87C42.1422 156.78 43.2962 157.847 44.3026 159.045C47.8993 163.394 49.3906 169.098 48.3803 174.64L48.3496 174.803L44.6527 172.551H44.6527Z" fill="#F2F2F2"/>
<path d="M29.5 174.763C29.4996 174.912 29.6212 175.034 29.7717 175.035H223.227C223.378 175.035 223.5 174.913 223.5 174.763C223.5 174.612 223.378 174.491 223.227 174.491H29.7733C29.6228 174.49 29.5004 174.611 29.5 174.761V174.763H29.5Z" fill="#CCCCCC"/>
<path d="M86.4382 76.9445L86.443 76.9433C86.965 76.8058 87.2761 76.2735 87.138 75.7542L85.7454 70.506C85.4968 69.5654 85.0607 68.6843 84.4629 67.9148C83.2939 66.4138 81.5878 65.4196 79.7 65.1392C78.7257 64.9956 77.7323 65.0497 76.7796 65.2983C72.8819 66.3153 71.7933 67.5976 71.5733 74.1603C71.3533 80.7229 72.968 79.4165 72.968 79.4165C73.0015 79.543 73.0602 79.6616 73.1406 79.7651C73.2981 79.9668 73.5278 80.1002 73.7818 80.1374C73.912 80.1564 74.0448 80.1491 74.1722 80.1161C79.0395 79.6176 83.9689 79.1637 86.439 76.9443L86.4382 76.9445L86.4382 76.9445Z" fill="#2F2E41"/>
<path d="M74.9945 71.4038C74.2802 74.2721 76.0385 77.1734 78.9218 77.884C80.3037 78.2245 81.7649 78.0062 82.9853 77.2768C84.2052 76.5527 85.0831 75.3731 85.4231 74.0009C86.1351 71.1321 84.3743 68.2322 81.4905 67.524C80.112 67.1855 78.655 67.4029 77.437 68.1289C76.2155 68.8518 75.3358 70.0314 74.9946 71.404L74.9945 71.4038V71.4038Z" fill="#FFB6B6"/>
<path d="M87.5321 70.4937C87.3355 69.7499 86.9905 69.053 86.5178 68.4444C85.8462 66.7789 84.7927 65.4326 82.7515 66.2499C81.9859 66.1374 81.2053 66.1792 80.4563 66.3728L79.399 66.6448C79.3871 66.6479 79.3753 66.6509 79.3634 66.6541C76.2889 67.4634 74.4561 70.5989 75.2697 73.6574L75.2976 73.7626L77.5337 73.185L77.7337 70.8681L78.4488 72.949L79.6039 72.6512L79.7046 71.4823L80.0653 72.5314C82.2555 73.3779 84.7938 72.5381 87.5591 70.5993L87.5321 70.4937L87.5321 70.4937Z" fill="#2F2E41"/>
<path d="M82.4018 77.8276C82.4818 77.9881 82.5149 78.1677 82.4974 78.346C82.489 78.4371 82.4679 78.5265 82.4345 78.6118C82.4059 78.6845 82.3688 78.7535 82.3239 78.8175C82.1907 79.0066 81.9942 79.1423 81.7695 79.2003C81.7555 79.2039 81.7414 79.2071 81.7272 79.2102C81.7131 79.2132 81.6988 79.2159 81.6845 79.2182C81.6701 79.2208 81.6556 79.2229 81.6411 79.2246C81.6266 79.2264 81.612 79.2278 81.5972 79.2291L80.7664 79.2939L79.0586 77.2598L79.6226 79.3856L75.8468 79.6866L73.4531 70.6656L79.5036 69.1077L79.4 69.3195C79.0578 70.0288 78.919 70.8184 78.9988 71.6011C79.0835 72.393 79.304 73.1645 79.6506 73.8823C79.9956 74.6101 80.41 75.3032 80.8882 75.9522C81.3084 76.5281 81.7616 77.0793 82.2456 77.6033C82.308 77.6704 82.3605 77.746 82.4018 77.8276Z" fill="#2F2E41"/>
<path d="M112.357 34.985C113.43 34.985 114.3 34.1007 114.3 33.0098C114.3 31.9189 113.43 31.0345 112.357 31.0345C111.285 31.0345 110.415 31.9189 110.415 33.0098C110.415 34.1007 111.285 34.985 112.357 34.985Z" fill="#3F3D56"/>
<path d="M119.067 34.985C120.139 34.985 121.009 34.1007 121.009 33.0098C121.009 31.9189 120.139 31.0345 119.067 31.0345C117.994 31.0345 117.125 31.9189 117.125 33.0098C117.125 34.1007 117.994 34.985 119.067 34.985Z" fill="#3F3D56"/>
<path d="M125.777 34.985C126.849 34.985 127.719 34.1007 127.719 33.0098C127.719 31.9189 126.849 31.0345 125.777 31.0345C124.704 31.0345 123.834 31.9189 123.834 33.0098C123.834 34.1007 124.704 34.985 125.777 34.985Z" fill="#3F3D56"/>
<path d="M133.427 34.5709C133.368 34.5709 133.308 34.548 133.263 34.5022L131.953 33.1695C131.865 33.0807 131.865 32.9388 131.953 32.85L133.263 31.5173C133.352 31.4272 133.498 31.4257 133.588 31.5138C133.679 31.602 133.68 31.7467 133.592 31.8369L132.438 33.0097L133.592 34.1827C133.68 34.2728 133.679 34.4175 133.588 34.5058C133.543 34.5493 133.485 34.5709 133.427 34.5709Z" fill="#3F3D56"/>
<path d="M135.63 34.571C135.572 34.571 135.514 34.5493 135.469 34.5058C135.378 34.4176 135.377 34.273 135.465 34.1827L136.619 33.0098L135.465 31.8369C135.377 31.7468 135.378 31.6021 135.469 31.5138C135.56 31.4255 135.705 31.4271 135.794 31.5174L137.104 32.85C137.192 32.9388 137.192 33.0807 137.104 33.1695L135.794 34.5023C135.749 34.548 135.689 34.571 135.63 34.571Z" fill="#3F3D56"/>
<path d="M204.19 31.2632H201.753C201.476 31.2632 201.25 31.4871 201.25 31.7636V34.19C201.25 34.4665 201.476 34.6904 201.753 34.6904H204.19C204.468 34.6904 204.696 34.4665 204.696 34.19V31.7636C204.696 31.4871 204.468 31.2632 204.19 31.2632Z" fill="#3F3D56"/>
<path d="M198.219 31.2632H195.782C195.504 31.2632 195.279 31.4871 195.279 31.7636V34.19C195.279 34.4665 195.504 34.6904 195.782 34.6904H198.219C198.497 34.6904 198.724 34.4665 198.724 34.19V31.7636C198.724 31.4871 198.497 31.2632 198.219 31.2632Z" fill="#3F3D56"/>
<path d="M209.817 31.3774H207.38C207.103 31.3774 206.877 31.6013 206.877 31.8778V34.3043C206.877 34.5808 207.103 34.8047 207.38 34.8047H209.817C210.095 34.8047 210.323 34.5808 210.323 34.3043V31.8778C210.323 31.6013 210.095 31.3774 209.817 31.3774Z" fill="#3F3D56"/>
<path d="M173.087 32.3005H153.608C153.268 32.3005 152.995 32.5747 152.995 32.9106C152.995 33.2465 153.268 33.5206 153.608 33.5206H173.087C173.425 33.5206 173.7 33.2465 173.7 32.9106C173.7 32.5747 173.425 32.3005 173.087 32.3005Z" fill="#3F3D56"/>
</svg>
