<svg width="236" height="189" viewBox="0 0 236 189" fill="none" xmlns="http://www.w3.org/2000/svg">
<path d="M235 77C235 147.14 246.561 200.112 141 186C47.5 173.5 -4.00543e-05 144 9.25102e-10 72C4.53719e-05 -9.55524 57.8598 0.500018 128 0.500018C198.14 0.500018 235 6.85983 235 77Z" fill="white"/>
<path d="M149.919 70.0377C149.913 73.1106 148.997 76.1129 147.285 78.6648C145.573 81.2168 143.143 83.2039 140.302 84.3748C137.46 85.5457 134.336 85.8479 131.323 85.243C128.31 84.6382 125.544 83.1536 123.375 80.9768C121.206 78.8001 119.731 76.0291 119.137 73.0142C118.543 69.9993 118.856 66.876 120.037 64.0391C121.218 61.2022 123.214 58.7792 125.772 57.0765C128.33 55.3739 131.336 54.468 134.409 54.4734C136.451 54.4717 138.473 54.8736 140.359 55.6558C142.245 56.4381 143.958 57.5854 145.399 59.0317C146.84 60.4781 147.982 62.1949 148.757 64.0837C149.533 65.9725 149.927 67.9959 149.919 70.0377Z" fill="#F2F2F2"/>
<path d="M175.778 79.0945L177.962 74.9232C176.003 72.5576 169.576 69.6885 169.576 69.6885L160.877 61.7708C160.784 61.4175 160.6 61.0949 160.343 60.8354C160.086 60.5759 159.765 60.3887 159.413 60.2925C159.06 60.1964 158.689 60.1948 158.336 60.2879C157.983 60.3809 157.66 60.5654 157.401 60.8226C157.142 61.0799 156.955 61.4009 156.859 61.7534C156.764 62.1058 156.762 62.4772 156.856 62.8303C156.949 63.1833 157.134 63.5055 157.392 63.7643C157.649 64.0232 157.971 64.2097 158.323 64.305L167.721 75.5762L175.778 79.0945Z" fill="#9E616A"/>
<path d="M174.72 78.8067L177.804 79.7888C180.048 80.503 182.465 80.4492 184.674 79.6359C185.342 79.3871 185.928 78.9564 186.364 78.3923C186.8 77.8283 187.07 77.1535 187.143 76.4442C187.236 75.482 186.959 74.5207 186.37 73.7545C185.78 72.9883 184.922 72.4745 183.968 72.317C181.075 71.8416 177.348 71.6072 176.018 73.1896L176.005 73.2056L174.72 78.8067Z" fill="#3F3D56"/>
<path d="M152.532 91.5765C161.113 91.5765 168.069 84.6205 168.069 76.0397C168.069 67.459 161.113 60.5029 152.532 60.5029C143.95 60.5029 136.994 67.459 136.994 76.0397C136.994 84.6205 143.95 91.5765 152.532 91.5765Z" fill="white"/>
<path d="M146.19 69.9626C145.977 71.1083 145.627 72.2243 145.149 73.2869C142.408 79.0848 150.213 77.195 153.003 77.195C156.052 77.195 158.97 78.7986 158.525 71.6731C158.334 68.6294 156.052 66.1512 153.003 66.1512C150.398 66.1512 146.735 67.3091 146.19 69.9626Z" fill="#2F2E41"/>
<path d="M152.546 77.1936C155.024 77.1936 157.033 75.1847 157.033 72.7065C157.033 70.2283 155.024 68.2194 152.546 68.2194C150.068 68.2194 148.059 70.2283 148.059 72.7065C148.059 75.1847 150.068 77.1936 152.546 77.1936Z" fill="#FFB6B6"/>
<path d="M149.498 68.1325C150.285 67.6531 151.185 67.3938 152.106 67.3817C153.027 67.3695 153.934 67.605 154.733 68.0634C155.531 68.5219 156.192 69.1865 156.646 69.9878C157.1 70.789 157.33 71.6975 157.313 72.6182C155.026 73.1923 152.624 73.6316 150.186 72.7555L149.61 71.3462L149.271 72.7566C148.528 73.0601 147.784 73.3169 147.039 72.7536C147.009 71.8355 147.22 70.9255 147.651 70.1146C148.083 69.3036 148.72 68.6201 149.498 68.1325Z" fill="#2F2E41"/>
<path d="M164.612 86.3708C161.921 89.4335 158.132 91.3149 154.065 91.6088C149.998 91.9027 145.979 90.5856 142.875 87.9417L144.207 84.2232C144.508 83.5628 144.984 82.9968 145.582 82.5859C146.18 82.175 146.879 81.9347 147.604 81.8908L148.452 81.8387L150.473 80.0952C150.473 80.0952 155.921 79.9007 155.84 79.8076L159.139 81.7922L159.136 81.7785L160.434 81.8579C161.158 81.9016 161.857 82.1418 162.456 82.5527C163.054 82.9637 163.529 83.5298 163.83 84.1904L164.612 86.3708Z" fill="#8C2BE3"/>
<path d="M151.168 150.391L150.782 145.022C148.253 143.758 145.454 143.13 142.627 143.193C146.604 146.267 146.285 152.41 149.039 156.615C149.908 157.919 151.06 159.012 152.408 159.811C153.757 160.61 155.268 161.096 156.83 161.232L160.14 163.136C160.518 160.633 160.35 158.079 159.646 155.648C158.942 153.217 157.72 150.968 156.063 149.055C155.123 147.991 154.053 147.05 152.877 146.253C152.154 148.33 151.168 150.391 151.168 150.391Z" fill="#F2F2F2"/>
<path d="M50.5411 55.2178L50.155 49.8483C47.626 48.5841 44.8267 47.9564 42 48.0196C45.9767 51.0934 45.6582 57.2368 48.4123 61.4411C49.2814 62.7459 50.4329 63.8383 51.7815 64.6375C53.1301 65.4368 54.6414 65.9222 56.2032 66.0581L59.5128 67.962C59.8914 65.4599 59.723 62.9054 59.0192 60.4745C58.3155 58.0437 57.0931 55.7943 55.4363 53.8814C54.4962 52.8175 53.4258 51.8761 52.2505 51.0796C51.5271 53.1565 50.5411 55.2178 50.5411 55.2178Z" fill="#F2F2F2"/>
<path d="M165.646 161.32L163.065 161.32L161.836 151.363H165.647L165.646 161.32Z" fill="#9E616A"/>
<path d="M166.305 163.823L157.98 163.822V163.717C157.981 162.858 158.322 162.034 158.93 161.426C159.537 160.819 160.361 160.477 161.22 160.477H161.221L162.741 159.324L165.578 160.477L166.305 160.477L166.305 163.823Z" fill="#2F2E41"/>
<path d="M188.399 161.32L185.818 161.32L184.589 151.363H188.4L188.399 161.32Z" fill="#9E616A"/>
<path d="M189.057 163.823L180.733 163.822V163.717C180.733 162.858 181.074 162.034 181.682 161.426C182.29 160.819 183.114 160.477 183.973 160.477H183.973L185.494 159.324L188.331 160.477L189.057 160.477L189.057 163.823Z" fill="#2F2E41"/>
<path d="M184.472 108.029L186.644 128.656C186.644 128.656 189.534 149.309 188.991 152.159C188.449 155.009 189.127 155.416 189.127 155.416L184.174 155.063C184.174 155.063 184.31 153.299 183.495 152.485C182.681 151.67 183.088 149.228 183.088 149.228L173.48 115.628L167.645 133.269C167.645 133.269 166.695 152.675 166.559 152.946C166.423 153.218 166.016 156.882 166.016 156.882H160.995C160.995 156.882 161.673 154.711 160.723 154.032C159.773 153.354 158.959 153.896 159.773 152.675C160.588 151.454 160.859 149.961 160.588 149.282C160.316 148.604 160.316 145.89 160.316 145.89C160.316 145.89 160.723 109.25 163.03 108.029C165.337 106.807 184.472 108.029 184.472 108.029Z" fill="#2F2E41"/>
<path d="M174.189 66.2643C177.139 66.2643 179.53 63.8734 179.53 60.924C179.53 57.9746 177.139 55.5836 174.189 55.5836C171.24 55.5836 168.849 57.9746 168.849 60.924C168.849 63.8734 171.24 66.2643 174.189 66.2643Z" fill="#9E616A"/>
<path d="M186.318 110.277C175.975 112.413 162.269 108.741 162.269 108.741L165.925 92.8921L164.625 76.3063C164.467 74.278 165.622 72.3768 167.419 71.7031L169.901 70.7736L171.952 67.837L177.811 68.0293L180.154 71.1122L182.002 72.0928L186.009 74.2181L186.027 74.2269V74.2357L184.769 86.4335L184.011 93.788C184.011 93.788 186.314 102.06 185.842 103.157C185.369 104.252 185.78 103.723 185.895 104.308C186.009 104.894 186.36 104.931 186.413 106.085C186.468 107.236 186.318 110.277 186.318 110.277Z" fill="#3F3D56"/>
<path d="M198.821 164H118.928C118.881 164 118.836 163.981 118.802 163.947C118.769 163.914 118.75 163.868 118.75 163.821C118.75 163.774 118.769 163.728 118.802 163.695C118.836 163.661 118.881 163.642 118.928 163.642H198.821C198.869 163.642 198.914 163.661 198.948 163.695C198.981 163.728 199 163.774 199 163.821C199 163.868 198.981 163.914 198.948 163.948C198.914 163.981 198.869 164 198.821 164Z" fill="#CCCCCC"/>
<path d="M173.929 66.0078C174.866 65.9982 175.8 65.9086 176.722 65.7401C177.634 65.5299 179.647 63.9737 180.195 63.0543C180.603 62.3712 180.847 61.3146 180.981 60.5486C181.161 59.5348 181.126 58.4945 180.879 57.495C180.631 56.4955 180.177 55.5591 179.544 54.7465C179.301 54.406 178.969 54.1378 178.586 53.9701C178.552 53.9578 178.517 53.9471 178.482 53.938C177.925 53.807 177.421 53.5126 177.034 53.0929C176.958 53.0079 176.877 52.9284 176.79 52.8551C176.355 52.5069 175.844 52.2666 175.299 52.1538C174.417 51.9421 173.156 52.2074 171.551 52.9428C170.745 53.3123 169.85 53.2093 169.16 53.0782C169.121 53.0717 169.082 53.0755 169.045 53.0892C169.008 53.1028 168.975 53.1259 168.95 53.156C168.666 53.4376 168.285 53.6009 167.884 53.6131C167.64 53.6302 167.391 53.9764 167.092 54.4271C167.024 54.5295 166.944 54.6489 166.887 54.7217L166.875 54.5849L166.74 54.7414C166.529 54.9873 166.382 55.2829 166.316 55.6005C166.249 55.9181 166.263 56.2475 166.358 56.5579C166.453 56.8684 166.625 57.1498 166.857 57.376C167.09 57.6022 167.376 57.7659 167.689 57.8517C167.938 57.9109 168.192 57.9447 168.447 57.9524C168.602 57.9623 168.762 57.9725 168.915 57.9951C169.409 58.083 169.871 58.2974 170.258 58.6174C170.644 58.9374 170.94 59.352 171.118 59.8208C171.16 59.9291 171.227 60.0263 171.312 60.1049C171.398 60.1836 171.5 60.2415 171.612 60.2742C171.723 60.3069 171.841 60.3135 171.955 60.2936C172.07 60.2737 172.178 60.2278 172.272 60.1593C172.428 60.0311 172.613 59.9425 172.811 59.9012C173.009 59.8599 173.214 59.867 173.408 59.922C173.577 60.0104 173.711 60.1542 173.787 60.3294C173.878 60.5244 174.025 60.6877 174.21 60.7985C174.84 61.1029 174.919 62.5211 174.727 63.71C174.541 64.8561 174.137 65.6921 173.744 65.743C173.442 65.7822 173.408 65.8046 173.387 65.8588L173.369 65.9073L173.404 65.9513C173.573 66.0077 173.752 66.0269 173.929 66.0078Z" fill="#2F2E41"/>
<path d="M152.531 91.7711C149.42 91.7711 146.378 90.8485 143.791 89.1199C141.204 87.3913 139.188 84.9344 137.997 82.0599C136.806 79.1854 136.495 76.0223 137.102 72.9707C137.709 69.9191 139.207 67.1161 141.407 64.916C143.607 62.7159 146.41 61.2176 149.462 60.6106C152.514 60.0036 155.677 60.3152 158.552 61.5058C161.426 62.6965 163.883 64.7128 165.612 67.2999C167.341 69.8869 168.263 72.9284 168.263 76.0398C168.259 80.2105 166.6 84.2091 163.65 87.1583C160.701 90.1075 156.702 91.7664 152.531 91.7711ZM152.531 60.6976C149.497 60.6976 146.53 61.5974 144.007 63.2832C141.484 64.969 139.518 67.3652 138.356 70.1686C137.195 72.972 136.891 76.0568 137.483 79.0328C138.075 82.0089 139.537 84.7426 141.682 86.8883C143.828 89.0339 146.562 90.4951 149.538 91.0871C152.514 91.6791 155.599 91.3752 158.403 90.214C161.206 89.0528 163.602 87.0864 165.288 84.5634C166.974 82.0404 167.874 79.0741 167.874 76.0398C167.869 71.9722 166.252 68.0725 163.375 65.1963C160.499 62.3201 156.599 60.7022 152.531 60.6976Z" fill="#3F3D56"/>
<path d="M98.2278 59.2682C106.809 59.2682 113.765 52.3121 113.765 43.7314C113.765 35.1506 106.809 28.1946 98.2278 28.1946C89.6468 28.1946 82.6904 35.1506 82.6904 43.7314C82.6904 52.3121 89.6468 59.2682 98.2278 59.2682Z" fill="white"/>
<path d="M98.9468 45.3163C101.745 45.3163 104.013 43.048 104.013 40.25C104.013 37.452 101.745 35.1837 98.9468 35.1837C96.1487 35.1837 93.8804 37.452 93.8804 40.25C93.8804 43.048 96.1487 45.3163 98.9468 45.3163Z" fill="#FFB8B8"/>
<path d="M103.408 36.9031C103.408 36.9031 104.727 34.3815 101.825 34.1522C101.825 34.1522 99.3507 31.908 96.8289 33.7419C96.8289 33.7419 95.4534 33.7419 94.7012 35.2984C94.7012 35.2984 93.6194 34.8882 93.3816 35.9862C93.3816 35.9862 92.59 38.2786 93.3816 40.3418C94.1732 42.405 94.4362 42.6342 94.4362 42.6342C94.4362 42.6342 93.8808 40.0739 97.047 39.8447C100.213 39.6154 103.118 37.632 103.382 40.1537C103.646 42.6754 103.936 41.5362 103.936 41.5362C103.936 41.5362 106.442 37.9347 103.408 36.9031Z" fill="#2F2E41"/>
<path d="M109.913 54.0624C107.221 57.1252 103.433 59.0066 99.3655 59.3005C95.2985 59.5944 91.279 58.2772 88.1748 55.6334L89.5075 51.9149C89.8086 51.2544 90.2839 50.6884 90.8823 50.2775C91.4807 49.8666 92.1797 49.6263 92.9042 49.5824L93.752 49.5304L95.7737 47.7869C95.7737 47.7869 101.221 47.5924 101.14 47.4993L104.439 49.4838L104.437 49.4701L105.734 49.5496C106.458 49.5933 107.157 49.8335 107.756 50.2444C108.354 50.6553 108.83 51.2214 109.131 51.882L109.913 54.0624Z" fill="#8C2BE3"/>
<path d="M98.2276 59.4628C95.1161 59.4628 92.0745 58.5402 89.4874 56.8116C86.9003 55.083 84.8839 52.6261 83.6931 49.7515C82.5024 46.877 82.1909 43.714 82.7979 40.6624C83.4049 37.6108 84.9033 34.8077 87.1034 32.6076C89.3036 30.4076 92.1067 28.9093 95.1585 28.3023C98.2102 27.6953 101.373 28.0068 104.248 29.1975C107.123 30.3882 109.58 32.4045 111.308 34.9915C113.037 37.5785 113.96 40.62 113.96 43.7314C113.955 47.9022 112.296 51.9008 109.347 54.8499C106.397 57.7991 102.399 59.4581 98.2276 59.4628ZM98.2276 28.3893C95.1931 28.3893 92.2268 29.2891 89.7037 30.9749C87.1806 32.6607 85.214 35.0568 84.0528 37.8602C82.8915 40.6636 82.5877 43.7484 83.1797 46.7245C83.7717 49.7006 85.2329 52.4343 87.3787 54.5799C89.5244 56.7256 92.2582 58.1868 95.2344 58.7787C98.2106 59.3707 101.296 59.0669 104.099 57.9057C106.903 56.7445 109.299 54.778 110.985 52.255C112.671 49.732 113.57 46.7658 113.57 43.7314C113.566 39.6638 111.948 35.7642 109.071 32.888C106.195 30.0118 102.295 28.3939 98.2276 28.3893Z" fill="#3F3D56"/>
<path d="M61.9627 83.7914C70.5438 83.7914 77.5001 76.8353 77.5001 68.2546C77.5001 59.6738 70.5438 52.7178 61.9627 52.7178C53.3816 52.7178 46.4253 59.6738 46.4253 68.2546C46.4253 76.8353 53.3816 83.7914 61.9627 83.7914Z" fill="white"/>
<path d="M54.7612 63.2005C55.4037 61.1531 56.8647 59.2753 58.8852 58.5831C60.9058 57.891 63.8645 58.9453 65.3836 60.4592C68.1623 63.2283 68.8403 72.7414 66.9313 75.7476C66.5516 75.7275 65.2413 75.7127 64.857 75.6983L64.3133 73.8863V75.6804C63.7011 75.6615 63.084 75.6484 62.4622 75.6412C60.3772 75.6154 58.3835 74.7822 56.9001 73.3169C55.4167 71.8516 54.5593 69.8682 54.508 67.7838C54.4583 65.7898 54.5081 64.0074 54.7612 63.2005Z" fill="#2F2E41"/>
<path d="M61.7322 69.9861C64.1778 69.9861 66.1603 68.0037 66.1603 65.5582C66.1603 63.1128 64.1778 61.1304 61.7322 61.1304C59.2867 61.1304 57.3042 63.1128 57.3042 65.5582C57.3042 68.0037 59.2867 69.9861 61.7322 69.9861Z" fill="#9E616A"/>
<path d="M57.9106 61.6695L63.0091 59.1167C64.0515 59.5864 64.9492 60.3264 65.6092 61.2599C66.2691 62.1934 66.6673 63.2865 66.7624 64.4258L66.8895 65.948L64.7545 65.4045L64.5206 63.4582L64.1581 65.2527L63.1728 65.002L63.1821 61.9803L62.1963 64.9999L58.6773 64.1914L57.9106 61.6695Z" fill="#2F2E41"/>
<path d="M73.4922 78.5363C70.8004 81.599 67.0121 83.4804 62.9451 83.7743C58.8781 84.0683 54.8586 82.7511 51.7544 80.1072L53.0871 76.3887C53.3882 75.7283 53.8635 75.1623 54.4619 74.7514C55.0603 74.3405 55.7592 74.1002 56.4838 74.0563L57.3316 74.0043L59.3533 72.2608C59.3533 72.2608 64.8004 72.0663 64.7196 71.9731L68.0191 73.9577L68.0163 73.944L69.3134 74.0234C70.038 74.0671 70.7371 74.3073 71.3355 74.7183C71.9339 75.1292 72.4091 75.6953 72.7102 76.3559L73.4922 78.5363Z" fill="#8C2BE3"/>
<path d="M61.9625 83.986C58.851 83.986 55.8094 83.0634 53.2222 81.3348C50.6351 79.6062 48.6187 77.1493 47.428 74.2747C46.2373 71.4002 45.9257 68.2371 46.5328 65.1856C47.1398 62.134 48.6381 59.3309 50.8383 57.1308C53.0384 54.9307 55.8416 53.4325 58.8933 52.8255C61.945 52.2185 65.1082 52.53 67.9829 53.7207C70.8575 54.9114 73.3145 56.9277 75.0432 59.5147C76.7718 62.1017 77.6945 65.1432 77.6945 68.2546C77.6898 72.4254 76.0308 76.424 73.0815 79.3731C70.1322 82.3223 66.1334 83.9813 61.9625 83.986ZM61.9625 52.9125C58.928 52.9125 55.9616 53.8123 53.4385 55.4981C50.9154 57.1839 48.9489 59.58 47.7876 62.3834C46.6264 65.1868 46.3226 68.2716 46.9146 71.2477C47.5066 74.2238 48.9678 76.9575 51.1135 79.1031C53.2593 81.2488 55.9931 82.71 58.9693 83.3019C61.9455 83.8939 65.0304 83.5901 67.8339 82.4289C70.6374 81.2677 73.0336 79.3012 74.7195 76.7782C76.4054 74.2552 77.3052 71.289 77.3052 68.2546C77.3006 64.187 75.6827 60.2874 72.8063 57.4112C69.93 54.5349 66.0302 52.9171 61.9625 52.9125V52.9125Z" fill="#3F3D56"/>
<path d="M166.881 84.1L164.529 80.0209C161.482 80.4079 155.616 84.2984 155.616 84.2984L144.27 87.4028C143.922 87.2918 143.551 87.2744 143.194 87.3524C142.837 87.4303 142.507 87.6009 142.238 87.8469C141.968 88.093 141.767 88.4057 141.657 88.7538C141.546 89.1018 141.529 89.4729 141.608 89.8296C141.686 90.1863 141.857 90.516 142.103 90.7856C142.35 91.0552 142.663 91.2551 143.011 91.3653C143.359 91.4755 143.73 91.492 144.087 91.4132C144.443 91.3343 144.773 91.163 145.042 90.9163L159.595 89.0182L166.881 84.1Z" fill="#9E616A"/>
<path d="M166.072 84.8395L171.338 80.4286L172.104 76.8782C172.252 76.1806 172.202 75.4556 171.959 74.7851C171.717 74.1145 171.291 73.5252 170.731 73.0837C169.968 72.4902 169.008 72.2087 168.046 72.296C167.083 72.3832 166.189 72.8328 165.545 73.5537C163.594 75.7418 161.4 78.7637 162.024 80.7342L162.03 80.7541L166.072 84.8395Z" fill="#3F3D56"/>
<path d="M85.3544 100.163H65.5666C65.0363 100.162 64.5279 99.951 64.1529 99.5761C63.7779 99.2011 63.567 98.6927 63.5664 98.1624V85.9755C63.567 85.4452 63.7779 84.9368 64.1529 84.5618C64.5279 84.1869 65.0363 83.9759 65.5666 83.9753H85.3544C85.8847 83.9759 86.3931 84.1869 86.7681 84.5618C87.1431 84.9368 87.354 85.4452 87.3546 85.9755V98.1624C87.354 98.6927 87.1431 99.2011 86.7681 99.5761C86.3931 99.9511 85.8847 100.162 85.3544 100.163Z" fill="#E6E6E6"/>
<path d="M77.4926 98.5928H66.9578C66.4612 98.5922 65.985 98.3947 65.6338 98.0435C65.2826 97.6923 65.085 97.2162 65.0845 96.7196V87.4183C65.085 86.9216 65.2826 86.4455 65.6338 86.0943C65.985 85.7431 66.4612 85.5456 66.9578 85.545H83.9637C84.4604 85.5456 84.9366 85.7431 85.2877 86.0943C85.6389 86.4455 85.8365 86.9216 85.837 87.4183V90.2488C85.8345 92.461 84.9546 94.5819 83.3902 96.1461C81.8259 97.7104 79.7049 98.5903 77.4926 98.5928Z" fill="white"/>
<path d="M82.2674 90.6383H68.6544C68.5367 90.6383 68.4237 90.5915 68.3405 90.5082C68.2572 90.425 68.2104 90.3121 68.2104 90.1943C68.2104 90.0766 68.2572 89.9637 68.3405 89.8804C68.4237 89.7971 68.5367 89.7504 68.6544 89.7504H82.2674C82.3851 89.7504 82.4981 89.7971 82.5813 89.8804C82.6646 89.9637 82.7114 90.0766 82.7114 90.1943C82.7114 90.3121 82.6646 90.425 82.5813 90.5082C82.4981 90.5915 82.3851 90.6383 82.2674 90.6383Z" fill="#8C2BE3"/>
<path d="M70.7839 92.3925H68.6544C68.5367 92.3925 68.4238 92.3457 68.3405 92.2624C68.2572 92.1792 68.2104 92.0662 68.2104 91.9485C68.2104 91.8307 68.2572 91.7178 68.3405 91.6345C68.4238 91.5513 68.5367 91.5045 68.6544 91.5045H70.7839C70.9016 91.5045 71.0145 91.5513 71.0978 91.6345C71.1811 91.7178 71.2278 91.8307 71.2278 91.9485C71.2278 92.0662 71.1811 92.1792 71.0978 92.2624C71.0145 92.3457 70.9016 92.3925 70.7839 92.3925Z" fill="#8C2BE3"/>
<path d="M74.5549 94.1467H68.654C68.5364 94.1465 68.4237 94.0996 68.3407 94.0164C68.2576 93.9331 68.2109 93.8203 68.2109 93.7028C68.2109 93.5852 68.2576 93.4724 68.3407 93.3892C68.4237 93.3059 68.5364 93.259 68.654 93.2588H74.5549C74.6725 93.259 74.7852 93.3059 74.8682 93.3892C74.9513 93.4724 74.998 93.5852 74.998 93.7028C74.998 93.8203 74.9513 93.9331 74.8682 94.0164C74.7852 94.0996 74.6725 94.1465 74.5549 94.1467Z" fill="#8C2BE3"/>
<path d="M62.8758 87.9183C65.1876 87.9183 67.0617 86.0443 67.0617 83.7326C67.0617 81.4209 65.1876 79.5469 62.8758 79.5469C60.564 79.5469 58.6899 81.4209 58.6899 83.7326C58.6899 86.0443 60.564 87.9183 62.8758 87.9183Z" fill="#3F3D56"/>
<path d="M136.739 44.8879H116.951C116.421 44.8873 115.912 44.6764 115.537 44.3014C115.162 43.9264 114.951 43.418 114.951 42.8878V30.7008C114.951 30.1706 115.162 29.6622 115.537 29.2872C115.912 28.9122 116.421 28.7013 116.951 28.7007H136.739C137.269 28.7013 137.777 28.9122 138.152 29.2872C138.527 29.6622 138.738 30.1706 138.739 30.7008V42.8877C138.738 43.418 138.527 43.9264 138.152 44.3014C137.777 44.6764 137.269 44.8873 136.739 44.8879Z" fill="#E6E6E6"/>
<path d="M128.876 43.3181H118.342C117.845 43.3176 117.369 43.12 117.018 42.7689C116.666 42.4177 116.469 41.9416 116.468 41.4449V32.1436C116.469 31.6469 116.666 31.1708 117.018 30.8196C117.369 30.4685 117.845 30.2709 118.342 30.2704H135.348C135.844 30.2709 136.32 30.4685 136.672 30.8196C137.023 31.1708 137.22 31.647 137.221 32.1436V34.9742C137.218 37.1864 136.338 39.3072 134.774 40.8715C133.21 42.4357 131.089 43.3156 128.876 43.3181Z" fill="white"/>
<path d="M133.651 35.3636H120.038C119.92 35.3636 119.808 35.3168 119.724 35.2336C119.641 35.1503 119.594 35.0374 119.594 34.9197C119.594 34.8019 119.641 34.689 119.724 34.6057C119.808 34.5225 119.92 34.4757 120.038 34.4757H133.651C133.769 34.4757 133.882 34.5225 133.965 34.6057C134.048 34.689 134.095 34.8019 134.095 34.9197C134.095 35.0374 134.048 35.1503 133.965 35.2336C133.882 35.3168 133.769 35.3636 133.651 35.3636Z" fill="#8C2BE3"/>
<path d="M122.168 37.1179H120.038C119.92 37.1179 119.808 37.0711 119.724 36.9879C119.641 36.9046 119.594 36.7917 119.594 36.6739C119.594 36.5562 119.641 36.4433 119.724 36.36C119.808 36.2768 119.92 36.23 120.038 36.23H122.168C122.285 36.23 122.398 36.2768 122.482 36.36C122.565 36.4433 122.612 36.5562 122.612 36.6739C122.612 36.7917 122.565 36.9046 122.482 36.9879C122.398 37.0711 122.285 37.1179 122.168 37.1179Z" fill="#8C2BE3"/>
<path d="M125.939 38.8721H120.038C119.921 38.8718 119.808 38.8249 119.725 38.7417C119.642 38.6585 119.595 38.5457 119.595 38.4281C119.595 38.3105 119.642 38.1977 119.725 38.1145C119.808 38.0313 119.921 37.9844 120.038 37.9841H125.939C126.057 37.9841 126.17 38.0309 126.253 38.1142C126.336 38.1974 126.383 38.3104 126.383 38.4281C126.383 38.5458 126.336 38.6588 126.253 38.742C126.17 38.8253 126.057 38.8721 125.939 38.8721Z" fill="#8C2BE3"/>
<path d="M114.26 47.2408C116.572 47.2408 118.446 45.3668 118.446 43.0551C118.446 40.7434 116.572 38.8694 114.26 38.8694C111.948 38.8694 110.074 40.7434 110.074 43.0551C110.074 45.3668 111.948 47.2408 114.26 47.2408Z" fill="#3F3D56"/>
</svg>
