<svg width="24" height="24" viewBox="0 0 24 24" fill="none" xmlns="http://www.w3.org/2000/svg">
    <path fill-rule="evenodd" clip-rule="evenodd"
          d="M12.0004 21.5984C17.3023 21.5984 21.6004 17.3004 21.6004 11.9984C21.6004 6.6965 17.3023 2.39844 12.0004 2.39844C6.69846 2.39844 2.40039 6.6965 2.40039 11.9984C2.40039 17.3004 6.69846 21.5984 12.0004 21.5984ZM16.4489 10.447C16.9175 9.97834 16.9175 9.21854 16.4489 8.74991C15.9803 8.28128 15.2205 8.28128 14.7519 8.74991L10.8004 12.7014L9.24892 11.1499C8.78029 10.6813 8.02049 10.6813 7.55186 11.1499C7.08323 11.6185 7.08323 12.3783 7.55186 12.847L9.95186 15.247C10.4205 15.7156 11.1803 15.7156 11.6489 15.247L16.4489 10.447Z"
          fill="#8C2BE3"/>
</svg>
