<svg width="24" height="24" viewBox="0 0 24 24" fill="none" xmlns="http://www.w3.org/2000/svg">
    <path fill-rule="evenodd" clip-rule="evenodd"
          d="M7.1998 2.39844C5.87432 2.39844 4.7998 3.47296 4.7998 4.79844V19.1984C4.7998 20.5239 5.87432 21.5984 7.1998 21.5984H16.7998C18.1253 21.5984 19.1998 20.5239 19.1998 19.1984V8.89549C19.1998 8.25897 18.9469 7.64853 18.4969 7.19844L14.3998 3.10138C13.9497 2.65129 13.3393 2.39844 12.7027 2.39844H7.1998ZM13.1998 9.59844C13.1998 8.9357 12.6625 8.39844 11.9998 8.39844C11.3371 8.39844 10.7998 8.9357 10.7998 9.59844V13.9014L9.24833 12.3499C8.7797 11.8813 8.01991 11.8813 7.55128 12.3499C7.08265 12.8185 7.08265 13.5783 7.55128 14.047L11.1513 17.647C11.6199 18.1156 12.3797 18.1156 12.8483 17.647L16.4483 14.047C16.917 13.5783 16.917 12.8185 16.4483 12.3499C15.9797 11.8813 15.2199 11.8813 14.7513 12.3499L13.1998 13.9014V9.59844Z"
          fill="#9DA3AE"/>
</svg>
