<svg width="24" height="24" viewBox="0 0 24 24" fill="none" xmlns="http://www.w3.org/2000/svg">
    <path d="M11.6 3C6.296 3 2 7.296 2 12.6C2 16.848 4.748 20.436 8.564 21.708C9.044 21.792 9.224 21.504 9.224 21.252C9.224 21.024 9.212 20.268 9.212 19.464C6.8 19.908 6.176 18.876 5.984 18.336C5.876 18.06 5.408 17.208 5 16.98C4.664 16.8 4.184 16.356 4.988 16.344C5.744 16.332 6.284 17.04 6.464 17.328C7.328 18.78 8.708 18.372 9.26 18.12C9.344 17.496 9.596 17.076 9.872 16.836C7.736 16.596 5.504 15.768 5.504 12.096C5.504 11.052 5.876 10.188 6.488 9.516C6.392 9.276 6.056 8.292 6.584 6.972C6.584 6.972 7.388 6.72 9.224 7.956C9.992 7.74 10.808 7.632 11.624 7.632C12.44 7.632 13.256 7.74 14.024 7.956C15.86 6.708 16.664 6.972 16.664 6.972C17.192 8.292 16.856 9.276 16.76 9.516C17.372 10.188 17.744 11.04 17.744 12.096C17.744 15.78 15.5 16.596 13.364 16.836C13.712 17.136 14.012 17.712 14.012 18.612C14.012 19.896 14 20.928 14 21.252C14 21.504 14.18 21.804 14.66 21.708C16.5658 21.0646 18.2218 19.8398 19.395 18.2059C20.5682 16.5721 21.1995 14.6114 21.2 12.6C21.2 7.296 16.904 3 11.6 3Z"
          fill="#9DA3AE"/>
</svg>
