<svg width="24" height="24" viewBox="0 0 24 24" fill="none" xmlns="http://www.w3.org/2000/svg">
    <path fill-rule="evenodd" clip-rule="evenodd"
          d="M21.6004 11.9984C21.6004 17.3004 17.3023 21.5984 12.0004 21.5984C6.69846 21.5984 2.40039 17.3004 2.40039 11.9984C2.40039 6.6965 6.69846 2.39844 12.0004 2.39844C17.3023 2.39844 21.6004 6.6965 21.6004 11.9984ZM13.2004 7.19844C13.2004 7.86118 12.6631 8.39844 12.0004 8.39844C11.3376 8.39844 10.8004 7.86118 10.8004 7.19844C10.8004 6.5357 11.3376 5.99844 12.0004 5.99844C12.6631 5.99844 13.2004 6.5357 13.2004 7.19844ZM10.8004 10.7984C10.1376 10.7984 9.60039 11.3357 9.60039 11.9984C9.60039 12.6612 10.1376 13.1984 10.8004 13.1984V16.7984C10.8004 17.4612 11.3376 17.9984 12.0004 17.9984H13.2004C13.8631 17.9984 14.4004 17.4612 14.4004 16.7984C14.4004 16.1357 13.8631 15.5984 13.2004 15.5984V11.9984C13.2004 11.3357 12.6631 10.7984 12.0004 10.7984H10.8004Z"
          fill="#8C2BE3"/>
</svg>
