<svg width="64" height="64" viewBox="0 0 64 64" fill="none" xmlns="http://www.w3.org/2000/svg">
    <path d="M0 32C0 5.648 5.648 0 32 0C58.352 0 64 5.648 64 32C64 58.352 58.352 64 32 64C5.648 64 0 58.352 0 32Z"
          fill="currentColor"/>
    <path d="M25.705 43.3772L36.105 19.7233C36.3762 19.1067 37.0861 18.8309 37.6909 19.1073C38.2453 19.3607 38.5187 19.9901 38.3517 20.5682L38.2951 20.7243L27.895 44.3782C27.6239 44.9948 26.9139 45.2705 26.3091 44.9942C25.7548 44.7409 25.4813 44.1113 25.6484 43.5334L25.705 43.3772L36.105 19.7233L25.705 43.3772ZM16.3515 31.1857L23.1515 24.2526C23.6201 23.7748 24.3799 23.7748 24.8485 24.2526C25.2746 24.6869 25.3133 25.3666 24.9647 25.8456L24.8485 25.9828L18.8971 32.0508L24.8485 38.1187C25.3172 38.5964 25.3172 39.3711 24.8485 39.8489C24.4225 40.2833 23.7558 40.3228 23.2861 39.9673L23.1515 39.8489L16.3515 32.9159C15.9254 32.4814 15.8867 31.8018 16.2353 31.3229L16.3515 31.1857L23.1515 24.2526L16.3515 31.1857ZM39.1515 24.2526C39.5775 23.8182 40.2442 23.7787 40.7139 24.1341L40.8485 24.2526L47.6485 31.1857C48.0746 31.6199 48.1133 32.2997 47.7647 32.7787L47.6485 32.9159L40.8485 39.8489C40.3799 40.3267 39.6202 40.3267 39.1515 39.8489C38.7255 39.4145 38.6867 38.7349 39.0354 38.2559L39.1515 38.1187L45.1029 32.0508L39.1515 25.9828C38.6829 25.505 38.6829 24.7304 39.1515 24.2526Z"
          fill="white"/>
</svg>
