<svg width="64" height="64" viewBox="0 0 64 64" fill="none" xmlns="http://www.w3.org/2000/svg">
    <path d="M0 32C0 5.648 5.648 0 32 0C58.352 0 64 5.648 64 32C64 58.352 58.352 64 32 64C5.648 64 0 58.352 0 32Z"
          fill="currentColor"/>
    <path d="M20.7059 17C18.1069 17 16 19.1069 16 21.7059V38.6471C16 41.246 18.1069 43.3529 20.7059 43.3529H27.2941V41.4706H20.7059C19.1465 41.4706 17.8824 40.2064 17.8824 38.6471V25.4706H25.5462C26.3189 25.4706 27.0579 25.1539 27.5908 24.5943L30.3418 21.7059H41.4118C42.9711 21.7059 44.2353 22.97 44.2353 24.5294V32.0588C44.8952 32.0588 45.5288 32.1721 46.1176 32.3801V24.5294C46.1176 21.9304 44.0107 19.8235 41.4118 19.8235H30.4314L27.4196 17.5647C26.9309 17.1982 26.3364 17 25.7255 17H20.7059ZM17.8824 21.7059C17.8824 20.1465 19.1465 18.8824 20.7059 18.8824H25.7255C25.9291 18.8824 26.1273 18.9484 26.2902 19.0706L28.6013 20.8039L26.2278 23.2962C26.0501 23.4827 25.8038 23.5882 25.5462 23.5882H17.8824V21.7059ZM34.8235 31.1176C34.8235 30.5979 35.245 30.1765 35.7647 30.1765H41.4118C41.9315 30.1765 42.3529 30.5979 42.3529 31.1176V33.9412H44.2353C46.3145 33.9412 48 35.6266 48 37.7059V43.3529C48 45.4322 46.3145 47.1176 44.2353 47.1176H32.9412C30.862 47.1176 29.1765 45.4322 29.1765 43.3529V37.7059C29.1765 35.6266 30.862 33.9412 32.9412 33.9412H34.8235V31.1176ZM40.4706 32.0588H36.7059V33.9412H40.4706V32.0588Z"
          fill="white"/>
</svg>
