<svg width="174" height="138" viewBox="0 0 174 138" fill="none" xmlns="http://www.w3.org/2000/svg">
<path d="M145.887 132.13C146.568 132.173 146.945 131.326 146.429 130.832L146.377 130.628C146.384 130.612 146.391 130.596 146.398 130.58C146.804 129.61 147.924 129.15 148.896 129.552C151.969 130.823 148.724 133.742 148.968 135.718C149.054 136.4 151.725 136.437 151.574 137.106C152.994 134.001 153.741 130.61 153.74 127.201C153.739 126.344 153.692 125.488 153.596 124.633C153.517 123.934 153.408 123.24 153.267 122.551C152.505 118.831 150.856 115.288 148.479 112.328C147.337 111.704 148.034 110.728 147.458 109.559C147.251 109.137 145.406 109.127 145.33 108.665C145.412 108.676 146.605 107.437 146.211 106.825C145.951 106.422 146.032 105.909 146.365 105.564C146.398 105.531 146.429 105.495 146.457 105.457C147.44 104.122 148.796 104.355 149.504 106.167C151.016 106.93 151.032 108.195 150.104 109.413C149.514 110.187 149.434 111.235 148.916 112.064C148.969 112.132 149.025 112.198 149.078 112.266C150.056 113.519 150.901 114.866 151.614 116.28C151.412 114.708 151.708 112.813 152.215 111.592C152.795 110.19 153.887 109.011 154.844 107.799C155.986 106.351 158.312 107.008 158.514 108.841C158.516 108.859 158.518 108.876 158.519 108.894C158.378 108.974 158.239 109.059 158.104 109.148C157.332 109.659 157.6 110.856 158.514 110.996L158.535 110.999C158.484 111.509 156.677 113.113 156.549 113.61C157.771 118.331 156.857 118.954 153.096 119.033L152.898 119.314C153.255 120.339 153.542 121.388 153.757 122.451C153.96 123.437 154.101 124.435 154.18 125.436C154.278 126.7 154.27 127.97 154.164 129.232L154.171 129.187C154.441 127.797 155.195 126.499 156.29 125.6C157.921 124.259 160.226 123.764 161.986 122.686C162.833 122.167 163.919 122.837 163.772 123.82L163.765 123.867C163.503 123.973 163.247 124.097 163 124.236C162.858 124.316 162.719 124.401 162.584 124.49C161.812 125.001 162.08 126.198 162.995 126.338L163.015 126.341C163.03 126.343 163.043 126.345 163.058 126.347C162.609 127.415 158.328 128.921 157.544 129.776C156.782 133.9 157.157 133.777 153.648 132.577H153.645C153.262 134.248 152.703 135.881 151.983 137.437L146.037 137.439C146.016 137.373 145.997 137.304 145.978 137.238C146.527 137.272 147.082 137.24 147.623 137.14C147.181 136.599 146.74 136.053 146.299 135.512C146.288 135.502 146.28 135.491 146.271 135.48L146.264 135.472L145.652 133.457C145.701 133.01 145.779 132.567 145.886 132.13L145.887 132.13V132.13V132.13Z" fill="#F2F2F2"/>
<path d="M83.0585 137.39L30.4487 137.408C27.8057 137.409 25.4382 136.043 24.1159 133.755C23.4547 132.61 23.124 131.355 23.1235 130.099C23.1231 128.844 23.4531 127.588 24.1134 126.444L50.4016 78.5874C51.7224 76.2979 54.089 74.9306 56.732 74.9297C59.375 74.9288 61.7425 76.2944 63.0649 78.583L89.3896 126.427C90.0491 127.568 90.379 128.822 90.3791 130.077C90.379 131.332 90.0492 132.587 89.3888 133.732C88.0681 136.022 85.7015 137.389 83.0585 137.39H83.0585H83.0585ZM23.7848 130.099C23.7848 131.241 29.5901 128.779 30.1915 129.82C31.3945 131.902 28.0439 136.749 30.4484 136.748C30.4484 136.748 87.6157 135.485 88.8172 133.402C89.4179 132.361 89.7182 131.219 89.7178 130.076C89.7174 128.934 89.4164 127.792 88.8148 126.751L62.4901 78.9072C61.2905 76.8312 59.1368 75.5887 56.7322 75.5896C54.3288 75.5904 23.7849 128.956 23.7848 130.099H23.7848V130.099Z" fill="#3F3D56"/>
<path d="M83.6427 136.729C82.9833 138.048 113.869 137.643 114.234 137.643C114.234 137.643 122.915 137.451 123.098 137.135C123.189 136.976 123.235 136.803 123.234 136.63C123.234 136.456 123.189 136.283 123.097 136.125L119.1 128.859C118.918 128.544 118.591 128.355 118.225 128.355C118.21 128.355 118.188 128.369 118.159 128.395C112.826 133.16 106.254 136.311 99.103 136.417C91.4991 136.53 83.6846 136.645 83.6427 136.729H83.6427V136.729Z" fill="#3F3D56"/>
<path d="M2.46958e-08 137.609C7.59089e-05 137.826 0.175009 138.001 0.392773 138.001L172.713 137.941C172.93 137.941 173.105 137.767 173.105 137.549C173.105 137.331 172.93 137.156 172.712 137.156L0.392503 137.216C0.174738 137.216 -7.58595e-05 137.391 2.46958e-08 137.609H2.46958e-08Z" fill="#CCCCCC"/>
<path d="M133.251 135.706L130.267 135.706L128.843 124.197L133.248 124.195L133.251 135.706Z" fill="#A0616A"/>
<path d="M123.027 135.643C122.935 135.799 122.886 136.304 122.886 136.486C122.886 137.046 123.34 137.499 123.899 137.499L133.14 137.496C133.522 137.495 133.831 137.186 133.831 136.804L133.831 136.42C133.831 136.42 134.288 135.263 133.346 133.838C133.346 133.838 132.177 134.955 130.428 133.207L129.912 132.273L126.182 135.004L124.114 135.259C123.661 135.315 123.26 135.251 123.027 135.643H123.027V135.643Z" fill="#2F2E41"/>
<path d="M121.81 125.86L118.983 126.816L113.948 116.369L118.12 114.957L121.81 125.86Z" fill="#A0616A"/>
<path d="M112.104 129.069C112.066 129.247 112.181 129.741 112.24 129.913C112.419 130.443 112.994 130.727 113.524 130.548L122.277 127.585C122.639 127.463 122.833 127.07 122.71 126.709L122.587 126.345C122.587 126.345 122.649 125.103 121.301 124.054C121.301 124.054 120.551 125.486 118.334 124.391L117.547 123.672L114.887 127.453L113.01 128.357C112.599 128.555 112.198 128.623 112.104 129.069L112.104 129.069V129.069Z" fill="#2F2E41"/>
<path d="M117.2 59.0893L111.412 78.2585L104.579 95.5011L115.397 120.125L119.408 118.341L114.609 95.7205L124.674 80.3712L129.371 128.288L133.383 128.064L138.823 70.2255L139.599 57.6328L117.2 59.0893Z" fill="#2F2E41"/>
<path d="M134.681 16.625L126.212 18.1881L125.545 21.9772L120.42 24.4306L117.755 52.2909C117.755 52.2909 113.299 58.0872 116.866 59.8689L139.598 57.6323C139.598 57.6323 140.711 53.5114 139.597 53.1204C138.482 52.7295 138.479 42.8861 138.479 42.8861L143.598 22.6395L136.019 19.9677L134.681 16.625Z" fill="#E6E6E6"/>
<path d="M129.686 16.5524C133.463 16.5524 136.525 13.4906 136.525 9.71368C136.525 5.93678 133.463 2.875 129.686 2.875C125.909 2.875 122.847 5.93678 122.847 9.71368C122.847 13.4906 125.909 16.5524 129.686 16.5524Z" fill="#A0616A"/>
<path d="M134.215 10.7268C133.669 11.0256 134.187 12.4519 133.846 12.5752C133.451 12.7178 132.014 11.0816 131.996 9.24895C131.991 8.69428 132.118 8.42795 131.996 7.77031C131.835 6.91008 131.342 5.89547 130.886 5.92241C130.616 5.93837 130.352 6.32071 130.332 6.66191C130.304 7.14012 130.769 7.32834 130.702 7.58593C130.574 8.07657 128.624 8.41531 127.929 7.58689C127.385 6.93742 127.802 5.79711 127.559 5.73873C127.38 5.69569 127.187 6.3235 126.451 7.03291C126.173 7.30019 125.76 7.69769 125.527 7.58772C125.189 7.42881 125.434 6.30883 125.341 6.29398C125.264 6.28168 125.216 7.06889 124.787 7.77281C124.236 8.67716 123.1 9.37421 122.57 9.06738C122.245 8.87939 122.219 8.35603 122.2 7.95854C122.159 7.12112 120.942 5.19489 121.257 4.29905C121.897 2.47575 122.995 3.76101 123.492 3.15253C124.164 2.32879 124.767 2.77167 125.894 1.85789C126.995 0.965214 127.005 0.0679995 127.742 0.00895501C128.406 -0.0442167 128.642 0.663961 129.406 0.562867C130.052 0.477226 130.193 -0.0720398 130.699 0.00792892C131.162 0.0811407 131.193 0.565015 131.808 0.746863C132.201 0.862959 132.288 0.694922 132.733 0.746543C133.658 0.853955 134.28 1.69702 134.396 1.85494C134.845 2.46375 134.671 2.72049 135.136 3.33332C135.537 3.8618 136.426 3.63738 136.76 3.90134C137.852 4.76381 138.321 6.35436 138.331 8.16722C138.337 9.43518 138.172 10.0758 137.803 11.6763C137.523 12.8915 136.225 14.462 135.51 15.1623C135.318 15.3503 134.78 15.8772 134.401 15.7171C134.043 15.5654 134.032 14.8832 134.031 14.7931C134.03 14.4833 134.112 14.1 134.77 13.1294C135.461 12.1099 135.735 11.9935 135.694 11.6504C135.62 11.044 134.65 10.4887 134.215 10.7268H134.215V10.7268Z" fill="#2F2E41"/>
<path d="M110.361 74.483C110.148 76.2655 110.895 77.8203 112.029 77.9557C113.164 78.0912 114.256 76.756 114.469 74.9735C114.562 74.1932 114.471 73.4566 114.244 72.8636L115.052 65.2993L111.494 64.9961L111.076 72.4852C110.716 73.0082 110.454 73.7027 110.361 74.483H110.361H110.361Z" fill="#A0616A"/>
<path d="M120.588 24.2461C120.588 24.2461 118.744 24.2723 117.524 26.6559C116.875 27.9225 113.406 51.6078 113.406 51.6078L110.209 71.0105L115.654 71.038L119.897 52.6631L123.466 42.006L120.588 24.2461L120.588 24.2461Z" fill="#E6E6E6"/>
<path d="M135.908 71.6346C135.387 73.3524 135.85 75.0139 136.943 75.3457C138.036 75.6775 139.345 74.5539 139.867 72.8361C140.095 72.0842 140.134 71.343 140.015 70.7195L142.133 63.413L138.683 62.4922L136.961 69.7927C136.515 70.2447 136.136 70.8827 135.908 71.6346V71.6346V71.6346Z" fill="#A0616A"/>
<path d="M139.698 22.9752C139.698 22.9752 142.372 20.9684 144.602 24.0879C146.832 27.2074 147.732 52.8377 147.732 52.8377L141.497 68.664L136.816 67.1055L141.267 47.7138L133.461 33.0067L139.698 22.9752H139.698V22.9752Z" fill="#E6E6E6"/>
<path d="M72.083 126.842C85.3848 126.842 96.168 116.059 96.168 102.757C96.168 89.4551 85.3848 78.6719 72.083 78.6719C58.7813 78.6719 47.998 89.4551 47.998 102.757C47.998 116.059 58.7813 126.842 72.083 126.842Z" fill="#8C2BE3"/>
<path d="M72.0874 117.517C73.3087 117.517 74.2988 116.526 74.2988 115.305C74.2988 114.084 73.3087 113.094 72.0874 113.094C70.8661 113.094 69.876 114.084 69.876 115.305C69.876 116.526 70.8661 117.517 72.0874 117.517Z" fill="white"/>
<path d="M72.0779 87.9897C71.8748 89.3395 72.2387 89.622 72.2408 95.4413C72.2428 101.261 73.4502 109.063 72.0852 109.063C70.7202 109.064 70.2209 92.9616 65.481 91.5365C59.9082 89.861 72.7355 83.6201 72.0779 87.9897V87.9897Z" fill="white"/>
<path d="M39.758 115.049L37.582 119.646C40.2126 117.76 44.3215 116.134 47.5913 115.263C44.5447 113.792 40.8168 111.419 38.5896 109.07L39.8412 113.928C25.1678 110.939 14.6307 99.6824 14.6262 86.7878L14.0962 86.6055C14.1009 100.074 24.4922 111.997 39.758 115.049V115.049Z" fill="#3F3D56"/>
</svg>
