<svg width="197" height="138" viewBox="0 0 197 138" fill="none" xmlns="http://www.w3.org/2000/svg">
<path d="M159.89 91.3512C160.11 91.0663 160.264 90.7367 160.342 90.3857C160.421 90.0347 160.421 89.6708 160.344 89.3196C160.266 88.9684 160.113 88.6385 159.894 88.3531C159.675 88.0677 159.396 87.8338 159.077 87.6677L159.563 82.0669L156.231 80.9414L155.656 88.8604C155.412 89.4148 155.381 90.0392 155.567 90.6152C155.754 91.1913 156.145 91.679 156.666 91.9861C157.188 92.2931 157.805 92.398 158.399 92.2811C158.993 92.1641 159.523 91.8334 159.89 91.3515L159.89 91.3512Z" fill="#FFB8B8"/>
<path d="M176.514 134.894H173.516L172.09 123.324H176.517L176.514 134.894Z" fill="#FFB8B8"/>
<path d="M171.374 134.035H177.158V137.677H167.732C167.732 136.711 168.116 135.785 168.799 135.102C169.482 134.419 170.408 134.035 171.374 134.035Z" fill="#2F2E41"/>
<path d="M169.707 127.219L166.795 127.935L162.648 117.041L166.947 115.984L169.707 127.219Z" fill="#FFB8B8"/>
<path d="M164.551 127.508L170.168 126.126L171.038 129.662L161.885 131.915C161.654 130.977 161.805 129.986 162.305 129.16C162.805 128.333 163.613 127.739 164.551 127.508V127.508Z" fill="#2F2E41"/>
<path d="M173.005 131.205C172.731 131.206 172.467 131.105 172.263 130.921C172.06 130.738 171.931 130.486 171.903 130.213L168.453 98.0615L165.45 107.894L169.703 123.25C169.776 123.513 169.75 123.794 169.629 124.039C169.507 124.284 169.3 124.475 169.046 124.577L165.664 125.929C165.525 125.985 165.376 126.012 165.226 126.008C165.076 126.005 164.928 125.971 164.792 125.909C164.656 125.847 164.533 125.757 164.432 125.647C164.331 125.536 164.254 125.406 164.204 125.264L158.991 110.308C158.421 108.674 158.168 106.947 158.248 105.219L158.975 89.0781L178.139 89.8896L177.839 129.824C177.836 130.102 177.729 130.369 177.539 130.572C177.349 130.775 177.09 130.9 176.813 130.923L173.092 131.203C173.063 131.204 173.034 131.205 173.005 131.205Z" fill="#2F2E41"/>
<path d="M169.831 53.3563C173.39 53.3563 176.275 50.4713 176.275 46.9125C176.275 43.3537 173.39 40.4688 169.831 40.4688C166.273 40.4688 163.388 43.3537 163.388 46.9125C163.388 50.4713 166.273 53.3563 169.831 53.3563Z" fill="#FFB8B8"/>
<path d="M174.57 90.9406C172.873 90.9406 170.766 90.8018 168.584 90.6583C165.603 90.462 162.522 90.2592 160.221 90.3925C159.911 90.4233 159.597 90.3741 159.311 90.2494C159.025 90.1248 158.775 89.9289 158.586 89.6805C156.215 86.6439 159.872 74.8027 160.029 74.3003L163.005 61.0596L163.133 61.0885L163.005 61.0596C163.661 58.1475 165.752 55.9993 168.466 55.4536C171.005 54.9436 173.462 55.9602 175.037 58.1755C175.121 58.2931 175.204 58.4137 175.288 58.5373C180.417 66.1344 177.516 85.0092 177.322 86.2263C177.593 86.5508 179.058 88.386 178.655 89.6608C178.491 90.1795 178.046 90.5329 177.332 90.7102C176.423 90.8904 175.496 90.9674 174.569 90.9398L174.57 90.9406Z" fill="#8C2BE3"/>
<path d="M160.325 90.9448C159.741 90.9448 158.954 90.7294 157.893 90.2889C157.436 90.099 156.048 89.5216 157.734 74.791C158.562 67.5552 159.748 60.3697 159.76 60.2981L159.771 60.2288L159.835 60.2C159.865 60.1861 162.894 58.7977 163.421 57.0134C163.439 56.9516 163.459 56.8917 163.483 56.8337C163.628 56.437 163.92 56.1117 164.299 55.9256C164.678 55.7394 165.115 55.7068 165.517 55.8346C165.942 55.9362 166.313 56.1958 166.554 56.5606C166.794 56.9255 166.887 57.3683 166.814 57.7991C166.63 58.9629 166.277 60.0936 165.766 61.1552C164.341 64.0962 163.375 71.893 163.366 71.9714C163.311 72.6373 162.018 88.4139 161.769 89.611C161.682 90.0292 161.522 90.5408 161.052 90.789C160.826 90.9002 160.577 90.9543 160.326 90.9464L160.325 90.9448Z" fill="#2F2E41"/>
<path d="M167.364 90.3409C167.246 90.3409 167.132 90.3017 167.039 90.2294C165.143 88.7888 168.211 71.3263 170.03 65.3012C170.394 64.0944 170.719 63.0615 170.994 62.2301C171.497 60.7382 171.847 59.1995 172.041 57.6372C172.141 56.7909 172.359 56.3076 172.707 56.1594C172.948 56.0563 173.231 56.1263 173.551 56.3674C175.232 56.2845 176.865 56.9709 178.379 57.7267L179.741 58.4062L181.269 85.4681C181.226 87.1952 177.822 88.4144 176.337 88.4923C173.952 88.6175 169.671 89.0058 167.784 90.2C167.661 90.286 167.515 90.3348 167.364 90.3406L167.364 90.3409Z" fill="#2F2E41"/>
<path d="M158.849 85.2623C158.827 85.2623 158.804 85.2623 158.781 85.2602L155.694 85.0702C155.54 85.0608 155.39 85.0195 155.253 84.9489C155.116 84.8784 154.996 84.7801 154.899 84.6603C154.802 84.5405 154.731 84.4019 154.691 84.2533C154.651 84.1047 154.642 83.9493 154.665 83.797L156.062 74.5413L158.692 61.5546C158.757 61.2347 158.888 60.932 159.077 60.6661C159.266 60.4002 159.509 60.177 159.79 60.0111C160.071 59.8451 160.384 59.7401 160.709 59.7028C161.033 59.6655 161.361 59.6967 161.673 59.7945V59.7945C162.205 59.9643 162.659 60.3189 162.953 60.7942C163.247 61.2695 163.361 61.8342 163.275 62.3863L161.186 75.3992L159.949 84.3055C159.911 84.5703 159.779 84.8127 159.577 84.9883C159.375 85.164 159.117 85.2612 158.849 85.2623H158.849Z" fill="#2F2E41"/>
<path d="M169.396 75.131C169.585 74.8246 169.838 74.5632 170.138 74.3652C170.438 74.1673 170.778 74.0376 171.134 73.9852C171.49 73.9328 171.853 73.9591 172.198 74.0622C172.542 74.1653 172.86 74.3427 173.128 74.5819L178.191 72.1367L180.427 74.8505L173.23 78.2032C172.798 78.6278 172.226 78.8792 171.621 78.9099C171.016 78.9405 170.421 78.7483 169.949 78.3696C169.476 77.991 169.159 77.4521 169.057 76.8552C168.955 76.2583 169.076 75.6448 169.396 75.131V75.131Z" fill="#FFB8B8"/>
<path d="M176.428 77.7607C176.179 77.7607 175.937 77.6768 175.741 77.5226C175.546 77.3683 175.407 77.1527 175.349 76.9104L174.615 73.8539C174.558 73.6241 174.578 73.3822 174.669 73.1641C174.761 72.9459 174.92 72.7629 175.124 72.6421L179.557 69.9881L177.291 61.6887C177.094 60.9779 177.184 60.2187 177.541 59.5735C177.898 58.9282 178.493 58.4482 179.199 58.2363C179.905 58.0243 180.666 58.0972 181.319 58.4394C181.972 58.7816 182.466 59.3658 182.693 60.067L185.196 67.7082C185.503 68.6396 185.506 69.6449 185.203 70.5778C184.9 71.5107 184.307 72.3227 183.511 72.8958L177.078 77.55C176.889 77.6869 176.662 77.7606 176.428 77.7607V77.7607Z" fill="#2F2E41"/>
<path d="M128.522 0H4.37612C3.21593 0.00138862 2.10365 0.462891 1.28327 1.28327C0.462887 2.10365 0.00138862 3.21593 0 4.37612V17.7354C0.00138862 18.8956 0.462887 20.0078 1.28327 20.8282C2.10365 21.6486 3.21593 22.1101 4.37612 22.1115H128.522C129.682 22.1101 130.795 21.6486 131.615 20.8282C132.435 20.0078 132.897 18.8956 132.898 17.7354V4.37612C132.897 3.21593 132.435 2.10365 131.615 1.28327C130.795 0.462891 129.682 0.00138862 128.522 0ZM132.437 17.7354C132.436 18.7733 132.023 19.7683 131.289 20.5023C130.555 21.2362 129.56 21.6493 128.522 21.6508H4.37612C3.33815 21.6493 2.34314 21.2362 1.60918 20.5023C0.875232 19.7683 0.462225 18.7733 0.460699 17.7354V4.37612C0.462225 3.33815 0.875232 2.34314 1.60918 1.60918C2.34314 0.875232 3.33815 0.462225 4.37612 0.460699H128.522C129.56 0.462225 130.555 0.875232 131.289 1.60918C132.023 2.34314 132.436 3.33815 132.437 4.37612V17.7354Z" fill="#3F3D56"/>
<path d="M128.522 53.6659H4.37612C3.21593 53.6645 2.10365 53.203 1.28327 52.3826C0.462887 51.5623 0.00138862 50.45 0 49.2898V35.9308C0.00138862 34.7706 0.462887 33.6583 1.28327 32.838C2.10365 32.0176 3.21593 31.5561 4.37612 31.5547H128.522C129.682 31.5561 130.795 32.0176 131.615 32.838C132.435 33.6583 132.897 34.7706 132.898 35.9308V49.2898C132.897 50.45 132.435 51.5623 131.615 52.3826C130.795 53.203 129.682 53.6645 128.522 53.6659ZM4.37612 32.0154C3.33805 32.0166 2.34283 32.4295 1.6088 33.1635C0.874776 33.8975 0.461879 34.8927 0.460699 35.9308V49.2898C0.461671 50.328 0.874474 51.3234 1.60852 52.0576C2.34258 52.7918 3.33791 53.2048 4.37612 53.206H128.522C129.56 53.2049 130.555 52.792 131.29 52.058C132.024 51.324 132.437 50.3287 132.438 49.2906V35.9308C132.437 34.8927 132.024 33.8975 131.29 33.1635C130.556 32.4295 129.56 32.0166 128.522 32.0154H4.37612Z" fill="#CCCCCC"/>
<path d="M128.522 85.2206H4.37612C3.21593 85.2192 2.10365 84.7577 1.28327 83.9373C0.462887 83.1169 0.00138862 82.0047 0 80.8445V67.4855C0.00138862 66.3253 0.462887 65.213 1.28327 64.3926C2.10365 63.5723 3.21593 63.1108 4.37612 63.1094H128.522C129.682 63.1108 130.795 63.5723 131.615 64.3926C132.435 65.213 132.897 66.3253 132.898 67.4855V80.8445C132.897 82.0047 132.435 83.1169 131.615 83.9373C130.795 84.7577 129.682 85.2192 128.522 85.2206ZM4.37612 63.569C3.33805 63.5702 2.34283 63.9831 1.6088 64.7171C0.874776 65.4512 0.461879 66.4464 0.460699 67.4844V80.8434C0.46181 81.8815 0.874677 82.8768 1.60871 83.6109C2.34275 84.345 3.338 84.7579 4.37612 84.7591H128.522C129.56 84.758 130.555 84.3451 131.29 83.6111C132.024 82.8771 132.437 81.8818 132.438 80.8437V67.4855C132.437 66.4472 132.024 65.4517 131.29 64.7174C130.556 63.9831 129.56 63.5701 128.522 63.569H4.37612Z" fill="#CCCCCC"/>
<path d="M21.1509 18.671C19.6445 18.671 18.1719 18.2243 16.9193 17.3874C15.6667 16.5504 14.6905 15.3609 14.114 13.9691C13.5375 12.5773 13.3866 11.0458 13.6805 9.56831C13.9744 8.0908 14.6999 6.73362 15.7651 5.6684C16.8303 4.60318 18.1875 3.87775 19.665 3.58386C21.1425 3.28996 22.674 3.4408 24.0658 4.01729C25.4575 4.59379 26.6471 5.57005 27.484 6.82262C28.321 8.07519 28.7677 9.54781 28.7677 11.0543C28.7677 13.0744 27.9652 15.0117 26.5368 16.4401C25.1084 17.8685 23.171 18.671 21.1509 18.671Z" fill="#8C2BE3"/>
<path d="M117.276 17.2752H35.9716C35.4829 17.2752 35.0142 17.081 34.6686 16.7355C34.3231 16.3899 34.1289 15.9212 34.1289 15.4325C34.1289 14.9438 34.3231 14.4751 34.6686 14.1295C35.0142 13.784 35.4829 13.5898 35.9716 13.5898H117.276C117.765 13.5898 118.234 13.784 118.579 14.1295C118.925 14.4751 119.119 14.9438 119.119 15.4325C119.119 15.9212 118.925 16.3899 118.579 16.7355C118.234 17.081 117.765 17.2752 117.276 17.2752V17.2752Z" fill="#CCCCCC"/>
<path d="M90.7876 9.44315H35.9701C35.4814 9.44315 35.0127 9.24901 34.6671 8.90344C34.3216 8.55787 34.1274 8.08919 34.1274 7.60048C34.1274 7.11177 34.3216 6.64308 34.6671 6.29752C35.0127 5.95195 35.4814 5.75781 35.9701 5.75781H90.7876C91.2763 5.75781 91.745 5.95195 92.0906 6.29752C92.4361 6.64308 92.6303 7.11177 92.6303 7.60048C92.6303 8.08919 92.4361 8.55787 92.0906 8.90344C91.745 9.24901 91.2763 9.44315 90.7876 9.44315V9.44315Z" fill="#CCCCCC"/>
<path d="M21.1509 50.2257C19.6445 50.2257 18.1719 49.779 16.9193 48.9421C15.6667 48.1051 14.6905 46.9155 14.114 45.5238C13.5375 44.132 13.3866 42.6005 13.6805 41.123C13.9744 39.6455 14.6999 38.2883 15.7651 37.2231C16.8303 36.1579 18.1875 35.4324 19.665 35.1385C21.1425 34.8446 22.674 34.9955 24.0658 35.572C25.4575 36.1485 26.6471 37.1247 27.484 38.3773C28.321 39.6299 28.7677 41.1025 28.7677 42.6089C28.7677 44.629 27.9652 46.5664 26.5368 47.9948C25.1084 49.4232 23.171 50.2257 21.1509 50.2257V50.2257Z" fill="#E6E6E6"/>
<path d="M117.276 48.8299H35.9716C35.4829 48.8299 35.0142 48.6357 34.6686 48.2902C34.3231 47.9446 34.1289 47.4759 34.1289 46.9872C34.1289 46.4985 34.3231 46.0298 34.6686 45.6842C35.0142 45.3387 35.4829 45.1445 35.9716 45.1445H117.276C117.765 45.1445 118.234 45.3387 118.579 45.6842C118.925 46.0298 119.119 46.4985 119.119 46.9872C119.119 47.4759 118.925 47.9446 118.579 48.2902C118.234 48.6357 117.765 48.8299 117.276 48.8299Z" fill="#E6E6E6"/>
<path d="M90.7876 40.9978H35.9701C35.4814 40.9978 35.0127 40.8037 34.6671 40.4581C34.3216 40.1126 34.1274 39.6439 34.1274 39.1552C34.1274 38.6665 34.3216 38.1978 34.6671 37.8522C35.0127 37.5066 35.4814 37.3125 35.9701 37.3125H90.7876C91.2763 37.3125 91.745 37.5066 92.0906 37.8522C92.4361 38.1978 92.6303 38.6665 92.6303 39.1552C92.6303 39.6439 92.4361 40.1126 92.0906 40.4581C91.745 40.8037 91.2763 40.9978 90.7876 40.9978V40.9978Z" fill="#E6E6E6"/>
<path d="M21.1509 81.7804C19.6445 81.7804 18.1719 81.3337 16.9193 80.4967C15.6667 79.6598 14.6905 78.4702 14.114 77.0784C13.5375 75.6867 13.3866 74.1552 13.6805 72.6777C13.9744 71.2002 14.6999 69.843 15.7651 68.7778C16.8303 67.7126 18.1875 66.9871 19.665 66.6932C21.1425 66.3993 22.674 66.5502 24.0658 67.1267C25.4575 67.7032 26.6471 68.6794 27.484 69.932C28.321 71.1846 28.7677 72.6572 28.7677 74.1636C28.7677 76.1837 27.9652 78.1211 26.5368 79.5495C25.1084 80.9779 23.171 81.7804 21.1509 81.7804V81.7804Z" fill="#E6E6E6"/>
<path d="M117.276 80.3846H35.9716C35.4829 80.3846 35.0142 80.1904 34.6686 79.8448C34.3231 79.4993 34.1289 79.0306 34.1289 78.5419C34.1289 78.0532 34.3231 77.5845 34.6686 77.2389C35.0142 76.8934 35.4829 76.6992 35.9716 76.6992H117.276C117.765 76.6992 118.234 76.8934 118.579 77.2389C118.925 77.5845 119.119 78.0532 119.119 78.5419C119.119 79.0306 118.925 79.4993 118.579 79.8448C118.234 80.1904 117.765 80.3846 117.276 80.3846Z" fill="#E6E6E6"/>
<path d="M90.7876 72.5525H35.9701C35.4814 72.5525 35.0127 72.3584 34.6671 72.0128C34.3216 71.6673 34.1274 71.1986 34.1274 70.7099C34.1274 70.2211 34.3216 69.7525 34.6671 69.4069C35.0127 69.0613 35.4814 68.8672 35.9701 68.8672H90.7876C91.2763 68.8672 91.745 69.0613 92.0906 69.4069C92.4361 69.7525 92.6303 70.2211 92.6303 70.7099C92.6303 71.1986 92.4361 71.6673 92.0906 72.0128C91.745 72.3584 91.2763 72.5525 90.7876 72.5525V72.5525Z" fill="#E6E6E6"/>
<path d="M20.7621 13.7365C20.573 13.7369 20.3888 13.6757 20.2374 13.5622L20.228 13.5552L18.2537 12.045C18.1623 11.9749 18.0856 11.8875 18.0279 11.7878C17.9702 11.688 17.9328 11.5779 17.9177 11.4637C17.9026 11.3494 17.9102 11.2334 17.9399 11.1221C17.9697 11.0108 18.0211 10.9064 18.0912 10.815C18.1613 10.7235 18.2487 10.6468 18.3485 10.5891C18.4482 10.5315 18.5584 10.494 18.6726 10.479C18.7868 10.4639 18.9029 10.4714 19.0142 10.5012C19.1255 10.5309 19.2298 10.5823 19.3213 10.6524L20.6 11.6331L23.6216 7.69095C23.7631 7.50643 23.9721 7.38567 24.2026 7.35521C24.4332 7.32476 24.6664 7.38711 24.851 7.52855V7.52855L24.8323 7.55479L24.8515 7.52855C25.0358 7.67029 25.1564 7.87935 25.1868 8.10987C25.2172 8.34039 25.1549 8.57355 25.0136 8.75822L21.4595 13.393C21.3771 13.4996 21.2714 13.5858 21.1503 13.645C21.0293 13.7041 20.8963 13.7346 20.7616 13.7341L20.7621 13.7365Z" fill="white"/>
<path d="M195.881 138.001H143.935C143.865 138.001 143.798 137.974 143.749 137.924C143.7 137.875 143.672 137.809 143.672 137.739C143.672 137.669 143.7 137.603 143.749 137.553C143.798 137.504 143.865 137.477 143.935 137.477H195.881C195.951 137.477 196.018 137.504 196.067 137.553C196.116 137.603 196.144 137.669 196.144 137.739C196.144 137.809 196.116 137.875 196.067 137.924C196.018 137.974 195.951 138.001 195.881 138.001Z" fill="#CCCCCC"/>
<path d="M172.2 48.6292C172.2 48.6292 171.416 44.2934 169.632 44.8114C167.848 45.3294 163.255 45.8595 163.247 43.8176C163.238 41.7756 167.57 39.9708 170.123 40.2151C172.676 40.4594 177.018 41.2067 176.779 45.0363C176.588 47.4482 175.843 49.7834 174.601 51.8602L172.2 48.6292Z" fill="#2F2E41"/>
</svg>
