<svg width="200" height="141" viewBox="0 0 200 141" fill="none" xmlns="http://www.w3.org/2000/svg">
<g clip-path="url(#clip0_2904_119810)">
<path d="M44.318 14.1175H31.5636C30.3374 14.1186 29.1618 14.6062 28.2947 15.4732C27.4276 16.3403 26.94 17.516 26.9389 18.7422V32.57C26.7759 32.5603 26.6128 32.5457 26.4521 32.5262C23.4305 32.2083 20.5578 31.0526 18.1578 29.1894C15.7579 27.3262 13.9262 24.8296 12.8692 21.981C11.8122 19.1325 11.572 16.0453 12.1757 13.0676C12.7794 10.0899 14.203 7.34003 16.2859 5.12806C18.3688 2.91609 21.0282 1.32998 23.9643 0.548572C26.9004 -0.232841 29.9964 -0.178486 32.9032 0.705513C35.8101 1.58951 38.4122 3.268 40.4162 5.55172C42.4201 7.83545 43.7463 10.6336 44.245 13.6307C44.2718 13.7913 44.2962 13.9544 44.318 14.1175Z" fill="#F2F2F2"/>
<path d="M194.888 13.6289H31.5637C30.2085 13.6304 28.9092 14.1694 27.9509 15.1277C26.9926 16.0859 26.4536 17.3852 26.4521 18.7404V104.906C26.4536 106.261 26.9926 107.56 27.9509 108.518C28.9092 109.477 30.2085 110.016 31.5637 110.017H194.888C196.244 110.016 197.543 109.477 198.501 108.518C199.459 107.56 199.998 106.261 200 104.906V18.7404C199.998 17.3852 199.459 16.0859 198.501 15.1277C197.543 14.1694 196.244 13.6304 194.888 13.6289ZM199.513 104.906C199.512 106.132 199.024 107.308 198.157 108.175C197.29 109.042 196.115 109.529 194.888 109.53H31.5637C30.3374 109.529 29.1618 109.042 28.2947 108.175C27.4277 107.308 26.9401 106.132 26.939 104.906V18.7404C26.9401 17.5142 27.4277 16.3385 28.2947 15.4715C29.1618 14.6044 30.3374 14.1168 31.5637 14.1157H194.888C196.115 14.1168 197.29 14.6044 198.157 15.4715C199.024 16.3385 199.512 17.5142 199.513 18.7404V104.906Z" fill="#3F3D56"/>
<path d="M186.856 27.5962H39.5964C39.5319 27.5962 39.47 27.5705 39.4243 27.5249C39.3787 27.4792 39.353 27.4173 39.353 27.3528C39.353 27.2882 39.3787 27.2263 39.4243 27.1807C39.47 27.135 39.5319 27.1094 39.5964 27.1094H186.856C186.921 27.1094 186.983 27.135 187.028 27.1807C187.074 27.2263 187.1 27.2882 187.1 27.3528C187.1 27.4173 187.074 27.4792 187.028 27.5249C186.983 27.5705 186.921 27.5962 186.856 27.5962Z" fill="#3F3D56"/>
<path d="M81.2185 99.5514C81.1539 99.5514 81.092 99.5257 81.0464 99.4801C81.0007 99.4345 80.9751 99.3725 80.9751 99.308V19.2278C80.9751 19.1632 81.0007 19.1013 81.0464 19.0557C81.092 19.01 81.1539 18.9844 81.2185 18.9844C81.2831 18.9844 81.345 19.01 81.3906 19.0557C81.4363 19.1013 81.4619 19.1632 81.4619 19.2278V99.308C81.4619 99.3725 81.4363 99.4345 81.3906 99.4801C81.345 99.5257 81.2831 99.5514 81.2185 99.5514V99.5514Z" fill="#3F3D56"/>
<path d="M117.972 99.5514C117.908 99.5514 117.846 99.5257 117.8 99.4801C117.755 99.4345 117.729 99.3725 117.729 99.308V19.2278C117.729 19.1632 117.755 19.1013 117.8 19.0557C117.846 19.01 117.908 18.9844 117.972 18.9844C118.037 18.9844 118.099 19.01 118.145 19.0557C118.19 19.1013 118.216 19.1632 118.216 19.2278V99.308C118.216 99.3725 118.19 99.4345 118.145 99.4801C118.099 99.5257 118.037 99.5514 117.972 99.5514V99.5514Z" fill="#3F3D56"/>
<path d="M154.727 99.5514C154.662 99.5514 154.6 99.5257 154.555 99.4801C154.509 99.4345 154.483 99.3725 154.483 99.308V19.2278C154.483 19.1632 154.509 19.1013 154.555 19.0557C154.6 19.01 154.662 18.9844 154.727 18.9844C154.791 18.9844 154.853 19.01 154.899 19.0557C154.945 19.1013 154.97 19.1632 154.97 19.2278V99.308C154.97 99.3725 154.945 99.4345 154.899 99.4801C154.853 99.5257 154.791 99.5514 154.727 99.5514V99.5514Z" fill="#3F3D56"/>
<path d="M57.5875 52.7174H48.6935C48.4031 52.7171 48.1247 52.6016 47.9193 52.3962C47.714 52.1909 47.5985 51.9125 47.5981 51.6221V41.1266C47.5985 40.8362 47.714 40.5578 47.9193 40.3524C48.1247 40.1471 48.4031 40.0316 48.6935 40.0312H57.5875C57.8779 40.0316 58.1563 40.1471 58.3616 40.3524C58.567 40.5578 58.6825 40.8362 58.6828 41.1266V51.6221C58.6825 51.9125 58.567 52.1909 58.3616 52.3962C58.1563 52.6016 57.8779 52.7171 57.5875 52.7174V52.7174Z" fill="#8C2BE3"/>
<path d="M70.2447 82.6588H61.3507C61.0603 82.6585 60.7819 82.543 60.5765 82.3377C60.3712 82.1323 60.2557 81.8539 60.2554 81.5635V71.068C60.2557 70.7776 60.3712 70.4992 60.5765 70.2938C60.7819 70.0885 61.0603 69.973 61.3507 69.9727H70.2447C70.5351 69.973 70.8135 70.0885 71.0189 70.2938C71.2242 70.4992 71.3397 70.7776 71.34 71.068V81.5635C71.3397 81.8539 71.2242 82.1323 71.0189 82.3377C70.8135 82.543 70.5351 82.6585 70.2447 82.6588V82.6588Z" fill="#8C2BE3"/>
<path d="M98.9664 59.0455H90.0724C89.782 59.0452 89.5036 58.9297 89.2982 58.7244C89.0929 58.519 88.9774 58.2406 88.9771 57.9502V47.4547C88.9774 47.1643 89.0929 46.8859 89.2982 46.6805C89.5036 46.4752 89.782 46.3597 90.0724 46.3594H98.9664C99.2568 46.3597 99.5352 46.4752 99.7405 46.6805C99.9459 46.8859 100.061 47.1643 100.062 47.4547V57.9502C100.061 58.2406 99.9459 58.519 99.7405 58.7244C99.5352 58.9297 99.2568 59.0452 98.9664 59.0455V59.0455Z" fill="#8C2BE3"/>
<path d="M136.208 47.608H127.314C127.023 47.6077 126.745 47.4922 126.539 47.2869C126.334 47.0815 126.219 46.8031 126.218 46.5127V36.0172C126.219 35.7268 126.334 35.4484 126.539 35.243C126.745 35.0377 127.023 34.9222 127.314 34.9219H136.208C136.498 34.9222 136.776 35.0377 136.982 35.243C137.187 35.4484 137.303 35.7268 137.303 36.0172V46.5127C137.303 46.8031 137.187 47.0815 136.982 47.2869C136.776 47.4922 136.498 47.6077 136.208 47.608V47.608Z" fill="#EF4444"/>
<path d="M170.527 47.608H161.633C161.343 47.6077 161.065 47.4922 160.859 47.2869C160.654 47.0815 160.538 46.8031 160.538 46.5127V36.0172C160.538 35.7268 160.654 35.4484 160.859 35.243C161.065 35.0377 161.343 34.9222 161.633 34.9219H170.527C170.818 34.9222 171.096 35.0377 171.302 35.243C171.507 35.4484 171.622 35.7268 171.623 36.0172V46.5127C171.622 46.8031 171.507 47.0815 171.302 47.2869C171.096 47.4922 170.818 47.6077 170.527 47.608V47.608Z" fill="#22C55E"/>
<path d="M186.349 50.526H177.455C177.164 50.5257 176.886 50.4102 176.681 50.2048C176.475 49.9995 176.36 49.7211 176.359 49.4307V38.9352C176.36 38.6448 176.475 38.3664 176.681 38.161C176.886 37.9557 177.164 37.8402 177.455 37.8398H186.349C186.639 37.8402 186.918 37.9557 187.123 38.161C187.328 38.3664 187.444 38.6448 187.444 38.9352V49.4307C187.444 49.7211 187.328 49.9995 187.123 50.2048C186.918 50.4102 186.639 50.5257 186.349 50.526Z" fill="#E6E6E6"/>
<path d="M179.29 69.2682H170.396C170.106 69.2679 169.827 69.1524 169.622 68.947C169.417 68.7417 169.301 68.4633 169.301 68.1729V57.6774C169.301 57.387 169.417 57.1085 169.622 56.9032C169.827 56.6979 170.106 56.5824 170.396 56.582H179.29C179.581 56.5824 179.859 56.6979 180.064 56.9032C180.27 57.1085 180.385 57.387 180.385 57.6774V68.1729C180.385 68.4633 180.27 68.7417 180.064 68.947C179.859 69.1524 179.581 69.2679 179.29 69.2682Z" fill="#E6E6E6"/>
<path d="M149.108 65.3737H140.214C139.924 65.3733 139.645 65.2578 139.44 65.0525C139.234 64.8471 139.119 64.5687 139.119 64.2783V53.7828C139.119 53.4924 139.234 53.214 139.44 53.0087C139.645 52.8033 139.924 52.6878 140.214 52.6875H149.108C149.398 52.6878 149.677 52.8033 149.882 53.0087C150.087 53.214 150.203 53.4924 150.203 53.7828V64.2783C150.203 64.5687 150.087 64.8472 149.882 65.0525C149.677 65.2578 149.398 65.3733 149.108 65.3737Z" fill="#EF4444"/>
<path d="M131.826 69.2682H122.932C122.642 69.2679 122.363 69.1524 122.158 68.947C121.953 68.7417 121.837 68.4633 121.837 68.1729V57.6774C121.837 57.387 121.953 57.1085 122.158 56.9032C122.363 56.6979 122.642 56.5824 122.932 56.582H131.826C132.117 56.5824 132.395 56.6979 132.6 56.9032C132.806 57.1085 132.921 57.387 132.922 57.6774V68.1729C132.921 68.4633 132.806 68.7417 132.6 68.947C132.395 69.1524 132.117 69.2679 131.826 69.2682V69.2682Z" fill="#E6E6E6"/>
<path d="M94.585 85.8229H85.691C85.4006 85.8225 85.1222 85.707 84.9169 85.5017C84.7115 85.2964 84.596 85.018 84.5957 84.7276V74.232C84.596 73.9416 84.7115 73.6632 84.9169 73.4579C85.1222 73.2525 85.4006 73.137 85.691 73.1367H94.585C94.8754 73.137 95.1538 73.2525 95.3592 73.4579C95.5645 73.6632 95.68 73.9416 95.6804 74.232V84.7276C95.68 85.018 95.5645 85.2964 95.3592 85.5017C95.1538 85.7071 94.8754 85.8225 94.585 85.8229Z" fill="#E6E6E6"/>
<path d="M49.5553 71.9479H40.6612C40.3708 71.9476 40.0924 71.8321 39.8871 71.6267C39.6817 71.4214 39.5662 71.143 39.5659 70.8526V60.357C39.5662 60.0666 39.6817 59.7882 39.8871 59.5829C40.0924 59.3775 40.3708 59.262 40.6612 59.2617H49.5553C49.8457 59.262 50.1241 59.3775 50.3294 59.5829C50.5348 59.7882 50.6503 60.0666 50.6506 60.357V70.8526C50.6503 71.143 50.5348 71.4214 50.3294 71.6267C50.1241 71.8321 49.8457 71.9476 49.5553 71.9479V71.9479Z" fill="#E6E6E6"/>
<path d="M74.6261 52.7174H65.732C65.4416 52.7171 65.1632 52.6016 64.9579 52.3962C64.7525 52.1909 64.637 51.9125 64.6367 51.6221V41.1266C64.637 40.8362 64.7525 40.5578 64.9579 40.3524C65.1632 40.1471 65.4416 40.0316 65.732 40.0312H74.6261C74.9165 40.0316 75.1949 40.1471 75.4002 40.3524C75.6056 40.5578 75.7211 40.8362 75.7214 41.1266V51.6221C75.7211 51.9125 75.6056 52.1909 75.4002 52.3962C75.1949 52.6016 74.9165 52.7171 74.6261 52.7174V52.7174Z" fill="#E6E6E6"/>
<path d="M67.3443 23.6113H53.4702C53.212 23.6113 52.9643 23.5087 52.7817 23.3261C52.5992 23.1435 52.4966 22.8959 52.4966 22.6377C52.4966 22.3795 52.5992 22.1318 52.7817 21.9492C52.9643 21.7666 53.212 21.6641 53.4702 21.6641H67.3443C67.6025 21.6641 67.8501 21.7666 68.0327 21.9492C68.2153 22.1318 68.3179 22.3795 68.3179 22.6377C68.3179 22.8959 68.2153 23.1435 68.0327 23.3261C67.8501 23.5087 67.6025 23.6113 67.3443 23.6113Z" fill="#CCCCCC"/>
<path d="M106.533 23.6113H92.6587C92.4005 23.6113 92.1528 23.5087 91.9702 23.3261C91.7876 23.1435 91.6851 22.8959 91.6851 22.6377C91.6851 22.3795 91.7876 22.1318 91.9702 21.9492C92.1528 21.7666 92.4005 21.6641 92.6587 21.6641H106.533C106.791 21.6641 107.039 21.7666 107.221 21.9492C107.404 22.1318 107.506 22.3795 107.506 22.6377C107.506 22.8959 107.404 23.1435 107.221 23.3261C107.039 23.5087 106.791 23.6113 106.533 23.6113Z" fill="#CCCCCC"/>
<path d="M143.287 23.6113H129.413C129.154 23.6113 128.907 23.5087 128.724 23.3261C128.542 23.1435 128.439 22.8959 128.439 22.6377C128.439 22.3795 128.542 22.1318 128.724 21.9492C128.907 21.7666 129.154 21.6641 129.413 21.6641H143.287C143.545 21.6641 143.793 21.7666 143.975 21.9492C144.158 22.1318 144.26 22.3795 144.26 22.6377C144.26 22.8959 144.158 23.1435 143.975 23.3261C143.793 23.5087 143.545 23.6113 143.287 23.6113Z" fill="#CCCCCC"/>
<path d="M177.607 23.6113H163.733C163.475 23.6113 163.227 23.5087 163.044 23.3261C162.862 23.1435 162.759 22.8959 162.759 22.6377C162.759 22.3795 162.862 22.1318 163.044 21.9492C163.227 21.7666 163.475 21.6641 163.733 21.6641H177.607C177.865 21.6641 178.113 21.7666 178.295 21.9492C178.478 22.1318 178.581 22.3795 178.581 22.6377C178.581 22.8959 178.478 23.1435 178.295 23.3261C178.113 23.5087 177.865 23.6113 177.607 23.6113Z" fill="#CCCCCC"/>
<path d="M36.2694 94.8997C35.9133 94.8648 35.5691 94.7523 35.2612 94.57C34.9533 94.3877 34.6891 94.1401 34.4872 93.8447C34.2853 93.5493 34.1506 93.2132 34.0927 92.8601C34.0347 92.507 34.0549 92.1455 34.1518 91.801L27.9126 85.9931L31.2114 85.1562L37.3466 90.1324C37.9145 90.3335 38.3889 90.7359 38.6799 91.2634C38.9709 91.7909 39.0583 92.4069 38.9255 92.9945C38.7927 93.5821 38.449 94.1006 37.9595 94.4518C37.4699 94.8029 36.8686 94.9623 36.2694 94.8997V94.8997Z" fill="#FFB8B8"/>
<path d="M44.8848 137.83H47.8689L49.2884 126.32H44.8843L44.8848 137.83Z" fill="#FFB8B8"/>
<path d="M53.624 140.598L44.2455 140.598L44.2453 136.975L50.0003 136.974C50.9613 136.974 51.883 137.356 52.5626 138.035C53.2422 138.715 53.624 139.637 53.624 140.598V140.598L53.624 140.598Z" fill="#2F2E41"/>
<path d="M24.4243 135.673L27.3082 136.441L31.641 125.684L27.3851 124.551L24.4243 135.673Z" fill="#FFB8B8"/>
<path d="M32.1567 140.602L23.0938 138.189L24.0258 134.688L29.5872 136.168C30.5159 136.415 31.3083 137.021 31.7902 137.853C32.2721 138.684 32.4039 139.673 32.1567 140.602V140.602V140.602Z" fill="#2F2E41"/>
<path d="M48.6717 135.65H44.1182C43.8306 135.651 43.553 135.545 43.3401 135.351C43.1272 135.158 42.9944 134.892 42.9679 134.605L40.2037 105.9C40.1834 105.69 40.0906 105.493 39.9411 105.343C39.7917 105.193 39.5948 105.1 39.3843 105.08C39.1738 105.059 38.9626 105.112 38.787 105.23C38.6115 105.348 38.4823 105.523 38.4217 105.726L30.3958 132.549C30.3109 132.834 30.1192 133.076 29.8607 133.223C29.6023 133.37 29.2969 133.412 29.0084 133.339L24.7724 132.28C24.6245 132.243 24.4855 132.177 24.3632 132.086C24.2409 131.996 24.1378 131.881 24.0598 131.75C23.9818 131.619 23.9305 131.474 23.9087 131.324C23.887 131.173 23.8954 131.019 23.9333 130.871C24.0025 130.601 30.8486 103.847 30.9084 103.572C32.4596 92.1395 34.3153 89.076 35.3123 87.4304C35.3949 87.2942 35.4707 87.1689 35.539 87.0506C35.6244 86.9025 36.1505 85.4332 36.4842 84.4791C36.5276 84.3239 36.6026 84.1794 36.7046 84.0546C36.8067 83.9299 36.9334 83.8276 37.0769 83.7544C41.2661 81.612 46.1675 83.095 47.5699 83.6006C47.8024 83.6824 48.0021 83.8375 48.139 84.0424C52.3462 90.3883 50.2815 127.245 49.8249 134.569C49.8059 134.862 49.6761 135.136 49.462 135.337C49.2478 135.538 48.9653 135.65 48.6717 135.65V135.65Z" fill="#2F2E41"/>
<path d="M36.9207 62.9409C40.2224 62.9409 42.8989 60.2644 42.8989 56.9627C42.8989 53.6609 40.2224 50.9844 36.9207 50.9844C33.6189 50.9844 30.9424 53.6609 30.9424 56.9627C30.9424 60.2644 33.6189 62.9409 36.9207 62.9409Z" fill="#FFB8B8"/>
<path d="M36.2873 85.64L36.2443 85.5984C36.1637 85.5204 28.1984 77.717 29.2293 70.5014C29.6701 67.4151 32.1672 65.4431 36.4505 64.7982C38.0241 64.5645 39.6292 64.9067 40.9707 65.7617C42.3122 66.6168 43.3001 67.9273 43.7526 69.4524L47.9878 83.9312L36.2873 85.64Z" fill="#CCCCCC"/>
<path d="M32.2102 91.1893L26.5344 85.5494C26.1463 85.1615 25.8646 84.6804 25.7162 84.1521C25.5679 83.6239 25.558 83.0664 25.6874 82.5332L28.4351 71.3563C28.5174 71.0214 28.6676 70.7069 28.8763 70.4324C29.0851 70.1578 29.348 69.9291 29.6487 69.7602C29.9494 69.5914 30.2816 69.486 30.6246 69.4507C30.9677 69.4154 31.3144 69.4509 31.6432 69.555C32.2699 69.757 32.7934 70.1951 33.1027 70.7763C33.4121 71.3576 33.483 72.0365 33.3006 72.6691L30.4078 82.5018L35.0856 87.5249L32.2102 91.1893Z" fill="#CCCCCC"/>
<path d="M62.6534 71.941C62.5034 72.2658 62.2839 72.5538 62.0105 72.7847C61.7371 73.0155 61.4164 73.1836 61.071 73.2771C60.7256 73.3706 60.3639 73.3872 60.0114 73.3258C59.6589 73.2644 59.3241 73.1264 59.0307 72.9216L51.4536 76.8488L51.7885 73.5128L58.5057 69.3557C58.8824 68.8856 59.4185 68.5699 60.0124 68.4686C60.6063 68.3673 61.2166 68.4874 61.7279 68.8061C62.2392 69.1247 62.6158 69.6199 62.7864 70.1977C62.9569 70.7755 62.9097 71.3958 62.6535 71.941H62.6534Z" fill="#FFB8B8"/>
<path d="M58.2035 74.4238L50.817 77.6157C50.3254 77.8265 49.7878 77.9072 49.2559 77.8502C48.7241 77.7931 48.2158 77.6002 47.7801 77.2899L38.3874 70.56C38.107 70.3591 37.8709 70.1029 37.6936 69.8071C37.5163 69.5113 37.4016 69.1822 37.3565 68.8403C37.3115 68.4984 37.3371 68.1509 37.4318 67.8192C37.5265 67.4876 37.6882 67.179 37.907 66.9124C38.3274 66.4055 38.9286 66.0822 39.5832 66.011C40.2379 65.9397 40.8945 66.1261 41.4141 66.5307L49.468 72.8695L55.8696 70.3928L58.2035 74.4238Z" fill="#CCCCCC"/>
<path d="M37.9117 58.8783C38.6492 57.9542 40.0271 57.9045 41.0401 57.295C42.3671 56.4965 42.9157 54.7123 42.4881 53.2238C42.0605 51.7353 40.7993 50.5753 39.3534 50.0205C37.9075 49.4657 36.2989 49.4589 34.7736 49.7271C32.5025 50.1264 30.2666 51.1863 28.8816 53.0298C27.4965 54.8733 27.144 57.5732 28.3993 59.5074C28.9762 60.3964 29.8668 61.1302 30.0971 62.1647C30.3995 63.5228 29.4469 64.8326 28.4264 65.7783C27.2637 66.8556 25.9297 67.758 24.9111 68.9725C23.8925 70.1869 23.2132 71.8461 23.678 73.3616C24.0675 74.6313 25.2008 75.5667 26.4435 76.0351C27.6862 76.5036 29.0396 76.5713 30.3674 76.5973C31.6568 76.6225 33.0263 76.5911 34.1125 75.8959C35.2753 75.1517 35.8961 73.7398 35.942 72.36C35.9878 70.9802 35.5268 69.6283 34.9088 68.3938C34.5405 67.658 34.1122 66.9449 33.8675 66.1593C33.6227 65.3736 33.5803 64.4822 33.9723 63.7586C34.3843 62.9981 35.2178 62.5394 36.0666 62.3726C36.1107 62.364 36.1573 62.3562 36.2061 62.3494C36.4476 62.318 36.6802 62.2381 36.8899 62.1143C37.0996 61.9905 37.282 61.8254 37.4261 61.6291C37.5702 61.4328 37.673 61.2093 37.7283 60.9722C37.7836 60.735 37.7901 60.4891 37.7477 60.2493C37.651 59.7104 37.6593 59.1945 37.9117 58.8783Z" fill="#2F2E41"/>
<path d="M117.62 138.084H114.636L113.217 126.574L117.621 126.574L117.62 138.084Z" fill="#A0616A"/>
<path d="M112.504 137.23H118.259V140.854H108.881C108.881 140.378 108.975 139.907 109.157 139.467C109.339 139.028 109.606 138.628 109.942 138.292C110.279 137.955 110.678 137.688 111.118 137.506C111.557 137.324 112.029 137.23 112.504 137.23Z" fill="#2F2E41"/>
<path d="M139.273 134.704L136.558 135.944L130.484 126.064L134.491 124.234L139.273 134.704Z" fill="#A0616A"/>
<path d="M134.265 136.053L139.5 133.662L141.005 136.958L132.474 140.855C132.276 140.422 132.166 139.954 132.149 139.479C132.132 139.003 132.209 138.529 132.375 138.083C132.541 137.637 132.794 137.228 133.118 136.88C133.442 136.532 133.832 136.251 134.265 136.053V136.053Z" fill="#2F2E41"/>
<path d="M130.582 99.2738C130.868 99.0586 131.103 98.7834 131.271 98.4675C131.439 98.1515 131.536 97.8026 131.555 97.4453C131.573 97.0879 131.513 96.7309 131.379 96.3992C131.245 96.0676 131.039 95.7694 130.777 95.5257L134.285 87.5664L129.829 88.3216L127.181 95.7642C126.801 96.2315 126.605 96.8221 126.631 97.4239C126.657 98.0258 126.903 98.5972 127.323 99.0298C127.742 99.4624 128.305 99.7262 128.906 99.7711C129.507 99.8161 130.103 99.6392 130.582 99.2738Z" fill="#A0616A"/>
<path d="M117.43 135.049H114.579C114.303 135.048 114.037 134.943 113.834 134.755C113.632 134.567 113.508 134.309 113.487 134.033L111.932 92.5184C111.921 92.3593 111.944 92.1996 112 92.0505C112.057 91.9014 112.145 91.7664 112.26 91.655C112.374 91.5436 112.511 91.4585 112.661 91.4057C112.812 91.3528 112.972 91.3334 113.131 91.3489L129.618 93.0998C129.885 93.126 130.133 93.2493 130.316 93.4465C130.498 93.6436 130.602 93.9008 130.607 94.1692L130.952 112.482C130.954 112.581 130.973 112.68 131.009 112.772L137.772 130.31C137.824 130.446 137.849 130.59 137.845 130.736C137.841 130.881 137.808 131.024 137.748 131.156C137.688 131.288 137.603 131.407 137.496 131.506C137.39 131.605 137.265 131.682 137.129 131.732L134.24 132.796C133.989 132.889 133.713 132.886 133.464 132.789C133.215 132.692 133.01 132.507 132.887 132.27L124.579 116.115C124.534 116.027 124.501 115.934 124.481 115.837L123.062 108.999C123.02 108.801 122.91 108.623 122.75 108.499C122.59 108.375 122.391 108.312 122.189 108.321C121.987 108.33 121.794 108.411 121.646 108.549C121.498 108.687 121.404 108.874 121.381 109.075L118.518 134.078C118.488 134.346 118.36 134.592 118.159 134.771C117.958 134.95 117.699 135.049 117.43 135.049V135.049Z" fill="#2F2E41"/>
<path d="M118.849 60.0581C122.151 60.0581 124.828 57.3815 124.828 54.0798C124.828 50.7781 122.151 48.1016 118.849 48.1016C115.548 48.1016 112.871 50.7781 112.871 54.0798C112.871 57.3815 115.548 60.0581 118.849 60.0581Z" fill="#A0616A"/>
<path d="M122.949 96.3152C118.895 96.2705 114.938 95.0717 111.54 92.8592L111.482 92.8191L111.488 92.7486L113.775 66.1162C113.854 65.2127 114.257 64.3682 114.91 63.739C115.563 63.1098 116.422 62.7385 117.328 62.6936C120.292 62.5574 124.273 62.7291 126.404 64.3162C129.624 66.7149 131.176 70.3268 130.662 74.2258C129.596 82.3114 130.804 93.2185 130.945 94.4356L130.955 94.5233L130.875 94.5601C128.392 95.7151 125.687 96.3141 122.949 96.3152V96.3152Z" fill="#6B7280"/>
<path d="M130.918 94.4795C130.749 94.4792 130.583 94.444 130.429 94.3761C130.274 94.3081 130.136 94.2089 130.022 94.0847L128.714 92.6581C128.573 92.503 128.474 92.3142 128.427 92.1098C128.379 91.9054 128.385 91.6923 128.444 91.4909L131.426 81.3984L126.889 71.8707C126.677 71.4247 126.625 70.9194 126.742 70.4396C126.845 70.0185 127.073 69.6385 127.397 69.3497C127.72 69.0609 128.123 68.8769 128.553 68.822C128.983 68.767 129.42 68.8437 129.805 69.042C130.191 69.2402 130.507 69.5507 130.713 69.9324L136.87 79.9222C137.12 80.3275 137.267 80.788 137.297 81.2632C137.328 81.7385 137.241 82.2139 137.045 82.6479L132.028 93.763C131.946 93.9467 131.819 94.107 131.659 94.2294C131.499 94.3518 131.311 94.4324 131.112 94.464C131.048 94.4743 130.983 94.4795 130.918 94.4795V94.4795Z" fill="#6B7280"/>
<path d="M88.7789 75.1988C89.066 75.4124 89.3965 75.5604 89.747 75.6324C90.0975 75.7044 90.4595 75.6987 90.8076 75.6157C91.1557 75.5327 91.4813 75.3744 91.7615 75.1519C92.0418 74.9294 92.2698 74.6482 92.4296 74.328L101.055 75.4467L99.0731 71.3847L91.1858 70.9451C90.6302 70.7123 90.0084 70.6914 89.4384 70.8863C88.8684 71.0813 88.3897 71.4786 88.093 72.0029C87.7963 72.5272 87.7023 73.1422 87.8287 73.7312C87.9551 74.3202 88.2932 74.8424 88.7789 75.1988V75.1988Z" fill="#A0616A"/>
<path d="M107.791 77.4201C107.641 77.4201 107.491 77.4098 107.342 77.3891L93.7724 75.507C93.5506 75.4765 93.3399 75.3914 93.1593 75.2592C92.9787 75.127 92.8338 74.9519 92.7377 74.7497C92.7067 74.6846 92.6808 74.6171 92.6604 74.5479H92.6603C92.6078 74.3682 92.5931 74.1795 92.6172 73.9939C92.6413 73.8082 92.7036 73.6296 92.8002 73.4692L93.9232 71.6074C94.044 71.4084 94.2139 71.2438 94.4166 71.1293C94.6193 71.0149 94.848 70.9544 95.0808 70.9536H95.0827L106.911 70.9672L115.745 63.0524C116.156 62.685 116.681 62.4702 117.232 62.444C117.715 62.4216 118.194 62.5462 118.605 62.8015C119.016 63.0568 119.341 63.4308 119.535 63.874C119.729 64.3173 119.785 64.809 119.694 65.2844C119.603 65.7598 119.37 66.1965 119.026 66.5369L110.211 76.3409C109.906 76.6805 109.533 76.9521 109.116 77.1381C108.699 77.324 108.248 77.4201 107.791 77.4201V77.4201Z" fill="#6B7280"/>
<path d="M119.529 59.3978C120.076 58.1334 120.538 56.4496 119.49 55.5556C118.882 55.0371 118.007 55.0361 117.21 54.9715C114.967 54.7898 112.657 53.7575 111.561 51.7918C110.464 49.8261 111.077 46.9032 113.145 46.0163C114.54 45.4185 116.139 45.8257 117.598 46.2397L121.981 47.4825C123.283 47.8518 124.651 48.259 125.588 49.2354C127.083 50.7925 126.971 53.4248 125.784 55.2275C124.596 57.0302 122.808 58.9104 120.761 59.5949L119.529 59.3978Z" fill="#2F2E41"/>
<path d="M179.994 140.935H0.289682C0.251552 140.935 0.213776 140.928 0.178517 140.913C0.143257 140.899 0.11121 140.877 0.0842092 140.851C0.0572079 140.824 0.0357841 140.792 0.0211667 140.756C0.00654932 140.721 -0.000976562 140.683 -0.000976562 140.645C-0.000976562 140.607 0.00654932 140.569 0.0211667 140.534C0.0357841 140.499 0.0572079 140.467 0.0842092 140.44C0.11121 140.413 0.143257 140.392 0.178517 140.377C0.213776 140.363 0.251552 140.355 0.289682 140.355H179.994C180.032 140.355 180.07 140.363 180.105 140.377C180.14 140.392 180.172 140.413 180.2 140.44C180.227 140.467 180.248 140.499 180.263 140.534C180.277 140.569 180.285 140.607 180.285 140.645C180.285 140.683 180.277 140.721 180.263 140.756C180.248 140.792 180.227 140.824 180.2 140.851C180.172 140.877 180.14 140.899 180.105 140.913C180.07 140.928 180.032 140.935 179.994 140.935V140.935Z" fill="#3F3D56"/>
</g>
<defs>
<clipPath id="clip0_2904_119810">
<rect width="200" height="140.934" fill="white"/>
</clipPath>
</defs>
</svg>
