<svg width="103" height="122" viewBox="0 0 103 122" fill="none" xmlns="http://www.w3.org/2000/svg">
<path d="M39.7833 100.131C37.7398 98.0302 34.7784 96.8254 31.6586 96.8254L31.5382 96.8257C29.4833 96.8265 27.465 96.2832 25.6898 95.2514L25.505 95.1441L25.6538 94.9913C26.4593 94.1606 27.1319 93.2115 27.648 92.1771C27.2814 92.5177 26.8442 92.7739 26.3674 92.9274C25.8905 93.081 25.3856 93.1282 24.8883 93.0657C24.3634 93.0033 23.8595 92.8233 23.4143 92.539C22.9691 92.2548 22.5943 91.8738 22.318 91.4246C21.2275 89.6611 19.9277 87.1588 19.9277 85.2525C19.9294 83.6412 20.2679 82.0479 20.9216 80.5743C21.5752 79.1006 22.5297 77.7788 23.7243 76.6932C24.4805 76.0135 25.0845 75.1826 25.497 74.2546C25.9095 73.3266 26.1211 72.3224 26.1181 71.3074L26.1175 71.1629C26.1173 69.8267 26.2811 68.4954 26.6053 67.1987L26.6382 67.0678L26.7734 67.0725C27.6449 67.1021 28.5169 67.0293 29.3713 66.8556C28.5699 66.7576 27.7858 66.5497 27.0414 66.2379L26.896 66.1792L26.9453 66.0307C30.3467 63.9315 38.0245 65.0186 42.481 54.8554C46.0946 46.6144 58.8444 62.1709 58.8444 71.163C58.8444 72.0805 57.9335 73.293 58.6154 73.8994C65.9874 80.4551 60.9009 84.6648 59.2971 88.9007C58.9166 89.9057 59.7417 91.009 59.7417 92.0963C59.7417 92.2808 59.737 92.4713 59.7276 92.6624L59.7134 92.9562L59.4676 92.7931C58.9814 92.4756 58.5306 92.1071 58.1231 91.6939C58.5459 92.6636 58.7451 93.7155 58.7062 94.7722C58.6673 95.8288 58.3911 96.8633 57.8981 97.7995C57.1255 99.253 56.3781 100.294 55.6766 100.892C53.4295 102.809 50.5326 103.798 47.5784 103.656C44.6242 103.515 41.8358 102.254 39.7833 100.131H39.7833Z" fill="#E6E6E6"/>
<path d="M52.1254 121.999C52.1756 121.999 52.2241 121.981 52.262 121.948C52.3 121.915 52.3247 121.87 52.3318 121.82C52.3407 121.758 53.2096 115.512 52.4292 107.21C51.7085 99.5427 49.3941 88.4994 42.461 79.4298C42.4444 79.4081 42.4236 79.3898 42.3999 79.376C42.3762 79.3622 42.35 79.3532 42.3228 79.3495C42.2956 79.3459 42.268 79.3476 42.2414 79.3546C42.2149 79.3615 42.19 79.3737 42.1682 79.3902C42.1464 79.4068 42.128 79.4275 42.1142 79.4512C42.1004 79.4748 42.0915 79.501 42.0878 79.5281C42.0841 79.5552 42.0859 79.5827 42.0929 79.6092C42.1 79.6356 42.1122 79.6604 42.1288 79.6821C49.0021 88.6734 51.2978 99.6356 52.0134 107.249C52.7893 115.502 51.9272 121.7 51.9184 121.762C51.9142 121.791 51.9164 121.821 51.9249 121.85C51.9334 121.878 51.9479 121.905 51.9675 121.927C51.9872 121.95 52.0114 121.968 52.0386 121.98C52.0659 121.993 52.0954 121.999 52.1254 121.999V121.999Z" fill="#3F3D56"/>
<path d="M46.4676 92.2195C46.5117 92.2195 46.5547 92.2056 46.5904 92.1798C46.6261 92.154 46.6527 92.1176 46.6663 92.0757C46.68 92.0339 46.68 91.9889 46.6664 91.9471C46.6528 91.9053 46.6262 91.8688 46.5906 91.843C44.615 90.5101 42.4809 89.4272 40.2373 88.6192C36.7321 87.3401 31.4018 86.1804 25.9145 87.9213C25.8883 87.9295 25.864 87.9428 25.843 87.9604C25.822 87.978 25.8046 87.9996 25.792 88.0239C25.7794 88.0482 25.7716 88.0747 25.7693 88.102C25.767 88.1293 25.7701 88.1567 25.7784 88.1828C25.7867 88.2089 25.8001 88.2331 25.8178 88.254C25.8356 88.2749 25.8572 88.2921 25.8816 88.3047C25.906 88.3172 25.9327 88.3248 25.9601 88.3271C25.9874 88.3294 26.015 88.3262 26.0411 88.3179C31.416 86.6128 36.6496 87.7533 40.0937 89.0101C42.3012 89.8043 44.4011 90.8689 46.3451 92.1797C46.3807 92.2056 46.4236 92.2195 46.4676 92.2195Z" fill="#3F3D56"/>
<path d="M56.0243 68.4967C56.0275 68.4529 56.0167 68.4091 55.9935 68.3718C55.9702 68.3344 55.9357 68.3054 55.8948 68.2888C55.854 68.2722 55.8089 68.269 55.7661 68.2795C55.7233 68.29 55.6849 68.3138 55.6564 68.3474C54.1804 70.2155 52.9432 72.2592 51.9731 74.4316C50.4408 77.8244 48.8965 83.0401 50.2433 88.6209C50.2497 88.6475 50.2612 88.6726 50.2773 88.6947C50.2935 88.7169 50.3138 88.7356 50.3372 88.7499C50.3606 88.7642 50.3866 88.7738 50.4137 88.7781C50.4408 88.7823 50.4685 88.7813 50.4952 88.7749C50.5218 88.7685 50.547 88.7569 50.5692 88.7408C50.5914 88.7247 50.6102 88.7044 50.6245 88.6811C50.6388 88.6577 50.6483 88.6318 50.6526 88.6048C50.6568 88.5778 50.6557 88.5502 50.6493 88.5236C49.3302 83.0571 50.8483 77.936 52.354 74.6025C53.3076 72.465 54.5241 70.454 55.9757 68.6157C56.0041 68.5822 56.0212 68.5405 56.0243 68.4967Z" fill="#3F3D56"/>
<path d="M96.2994 121.778H79.6772L79.6058 121.649C79.3933 121.264 79.1881 120.857 78.9963 120.439C77.2841 116.785 76.5604 112.606 75.9219 108.919L75.4411 106.14C75.3828 105.804 75.4267 105.458 75.567 105.146C75.7074 104.834 75.9378 104.572 76.2288 104.391C76.5198 104.211 76.8582 104.121 77.2006 104.134C77.543 104.146 77.8739 104.261 78.1509 104.462C80.677 106.294 83.2041 108.124 85.7322 109.953C86.6894 110.647 87.7826 111.451 88.8296 112.319C88.9306 111.83 89.0363 111.34 89.1419 110.856C89.2148 110.522 89.3859 110.217 89.6335 109.981C89.8811 109.745 90.1938 109.587 90.5317 109.529C90.8695 109.471 91.2171 109.514 91.53 109.654C91.8428 109.794 92.1067 110.024 92.2878 110.314L94.2326 113.428C95.6511 115.703 96.903 117.944 96.6479 120.361C96.6491 120.391 96.6469 120.42 96.6413 120.449C96.5903 120.846 96.4956 121.236 96.3591 121.613L96.2994 121.778Z" fill="#F0F0F0"/>
<path d="M88.5552 56.6401L85.3472 44.8047C85.2098 44.3037 84.8803 43.8766 84.4298 43.6156C83.9793 43.3546 83.4439 43.2807 82.9391 43.4097C82.678 43.4764 82.4332 43.5955 82.2198 43.7596C82.0063 43.9237 81.8287 44.1294 81.6976 44.3642C81.5665 44.599 81.4847 44.8579 81.4573 45.1253C81.4299 45.3926 81.4574 45.6626 81.5381 45.919L85.2485 58.1112L87.1898 65.6144C86.9071 65.8296 86.6976 66.1263 86.59 66.4643C86.4823 66.8022 86.4816 67.165 86.5881 67.5034C86.6945 67.8417 86.9028 68.1392 87.1847 68.3555C87.4667 68.5717 87.8085 68.6962 88.1639 68.712C88.5193 68.7278 88.8709 68.6341 89.1711 68.4438C89.4712 68.2535 89.7053 67.9757 89.8415 67.6481C89.9777 67.3205 90.0095 66.9591 89.9324 66.6129C89.8554 66.2668 89.6733 65.9526 89.4109 65.7132L88.5552 56.6401Z" fill="#A0616A"/>
<path d="M61.561 54.087L71.3081 46.6099C71.7201 46.2919 71.9901 45.8251 72.06 45.3104C72.1298 44.7957 71.9938 44.2743 71.6813 43.8586C71.5197 43.6436 71.3158 43.4636 71.0821 43.3297C70.8484 43.1958 70.5897 43.1107 70.322 43.0797C70.0542 43.0486 69.7829 43.0723 69.5246 43.1491C69.2663 43.226 69.0264 43.3545 68.8196 43.5268L58.9337 51.6031L52.7191 56.2582C52.4116 56.0799 52.0564 56.0004 51.702 56.0304C51.3475 56.0603 51.0109 56.1983 50.7379 56.4256C50.4648 56.6529 50.2686 56.9585 50.1759 57.3008C50.0831 57.6431 50.0984 58.0056 50.2195 58.339C50.3406 58.6724 50.5618 58.9605 50.8529 59.1643C51.1441 59.368 51.4911 59.4775 51.8468 59.4778C52.2025 59.4781 52.5497 59.3693 52.8412 59.1661C53.1328 58.9629 53.3544 58.6751 53.4762 58.3419L61.561 54.087Z" fill="#A0616A"/>
<path d="M69.5051 55.8087L69.0754 65.3733L82.5656 62.4508C81.4174 58.6075 80.6366 57.952 81.4994 55.2773L69.5051 55.8087Z" fill="#A0616A"/>
<path d="M77.7999 38.2773H73.3049L71.3745 41.5699L70.4547 41.5193C70.0048 41.4946 69.5546 41.5615 69.1316 41.7161C68.7086 41.8706 68.3216 42.1095 67.9943 42.4182C67.6671 42.7269 67.4064 43.0989 67.2283 43.5114C67.0501 43.9239 66.9583 44.3683 66.9583 44.8174L68.0916 46.5683C68.0916 46.5683 66.0647 50.0892 68.9843 51.8214C68.9843 51.8214 68.4636 55.085 68.9843 55.0499C69.5051 55.0148 70.7045 54.3506 69.5051 55.0148C68.3056 55.679 68.3951 55.7682 68.5503 55.9229L68.7055 56.0775L81.3176 58.1884C81.3176 58.1884 81.6865 55.7513 81.7262 55.3166C81.766 54.8819 81.4994 55.9447 81.766 54.8819C82.0325 53.8192 82.4323 54.2177 82.0325 53.8192C81.6327 53.4207 84.6231 48.4834 83.3944 46.5683L85.3643 44.6532C85.3643 42.8161 82.4043 41.3269 80.5613 41.3269H80.3252L77.7999 38.2773Z" fill="#E6E6E6"/>
<path d="M66.9699 118.089H65.1504L64.2849 111.094L66.97 111.094L66.9699 118.089Z" fill="#A0616A"/>
<path d="M61.4785 120.765C61.4793 120.968 61.5606 121.163 61.7046 121.307C61.8485 121.451 62.0436 121.532 62.2474 121.533H65.6722L65.7783 121.314L66.2628 120.318L66.4504 121.314L66.4919 121.533H67.7837L67.7653 121.313L67.4208 117.195L66.9702 117.168L65.0232 117.053L64.545 117.023V118.253C64.182 118.638 61.3339 120.092 61.4785 120.765Z" fill="#2F2E41"/>
<path d="M94.0085 113.34L92.4784 114.321L87.9539 108.905L90.2122 107.457L94.0085 113.34Z" fill="#A0616A"/>
<path d="M90.8424 118.555C90.9534 118.725 91.1274 118.845 91.3265 118.888C91.5256 118.932 91.7339 118.895 91.906 118.786L94.7862 116.939L94.7565 116.697L94.6231 115.598L95.3217 116.335L95.4756 116.497L96.562 115.8L96.4267 115.625L93.9021 112.348L93.5082 112.567L91.8084 113.521L91.3904 113.754L92.0577 114.788C91.9613 115.307 90.3556 118.067 90.8424 118.555Z" fill="#2F2E41"/>
<path d="M102.495 121.905L46.1601 121.959C46.1039 121.959 46.0501 121.936 46.0104 121.897C45.9707 121.857 45.9485 121.803 45.9485 121.747C45.9485 121.691 45.9707 121.637 46.0104 121.598C46.0501 121.558 46.1039 121.535 46.1601 121.535L102.495 121.48C102.552 121.481 102.606 121.503 102.645 121.543C102.685 121.583 102.707 121.636 102.707 121.692C102.707 121.749 102.685 121.802 102.645 121.842C102.606 121.882 102.552 121.904 102.495 121.905Z" fill="#CACACA"/>
<path d="M82.3542 61.3711C82.3542 61.3711 73.7311 65.9177 69.1701 62.8157C69.1701 62.8157 68.1724 67.6324 67.7726 68.0309C67.3728 68.4294 66.7358 68.603 67.1876 69.0476C67.6393 69.4921 67.8908 70.0925 67.0321 70.8551C66.1733 71.6176 65.3171 71.3756 66.145 72.1608C66.973 72.946 63.6412 92.208 63.6412 92.208C63.6412 92.208 64.1743 110.121 63.6412 110.663C63.1081 111.204 62.3956 111.326 63.085 111.996C63.7745 112.666 63.7745 112.146 63.7745 113.07V113.994L64.0899 114.912H68.4171C68.4171 114.912 69.4613 113.703 68.4171 112.653C67.3728 111.603 68.7349 111.315 69.0534 110.33C69.3719 109.344 69.9049 110.407 69.3718 109.344C68.8388 108.282 68.5827 108.484 68.5775 107.785C68.5722 107.086 76.4352 79.7209 76.4352 79.7209L77.3875 94.8672L88.8428 111.455L92.2146 108.934C92.2146 108.934 89.7597 105.49 90.3338 105.016C90.9078 104.542 88.6418 103.948 89.3564 103.414C90.0709 102.88 88.3508 102.342 88.9991 101.634C89.6474 100.926 88.1059 99.1408 87.2127 99.1408C86.3195 99.1408 85.066 96.1656 85.066 96.1656L86.9373 72.6625L82.3542 61.3711Z" fill="#2F2E41"/>
<path d="M73.2146 28.6075C73.1536 28.6873 72.6674 28.6443 72.0827 28.5592C70.9267 28.391 70.7692 28.5909 69.905 29.3745C68.6532 30.5095 69.3649 37.4324 68.7498 38.9324L68.551 39.0783C68.9452 39.0033 69.3324 38.8953 69.7084 38.7555C69.9208 38.0875 70.1337 37.4173 70.3482 36.7499C70.5506 37.2692 70.6778 37.8146 70.7261 38.3696C71.0236 38.2527 71.3195 37.9667 72.5629 37.5832C73.189 37.1599 77.7187 36.7341 78.3011 36.5479C79.779 31.5356 77.3973 29.5087 73.2146 28.6075Z" fill="#2F2E41"/>
<path d="M74.7439 36.3364C77.1346 36.3364 79.0726 34.4047 79.0726 32.0217C79.0726 29.6388 77.1346 27.707 74.7439 27.707C72.3533 27.707 70.4153 29.6388 70.4153 32.0217C70.4153 34.4047 72.3533 36.3364 74.7439 36.3364Z" fill="#A0616A"/>
<path d="M77.4692 28.2297C77.2252 28.1939 76.9904 28.1118 76.7774 27.988C76.6718 27.9244 76.5863 27.8325 76.5306 27.7228C76.4749 27.6131 76.4513 27.49 76.4624 27.3675C76.5157 27.0609 76.8635 26.8779 77.1751 26.8965C77.4853 26.9411 77.78 27.06 78.034 27.243C78.0061 26.9468 77.8792 26.6684 77.6735 26.4528C77.4678 26.2371 77.1954 26.0966 76.8999 26.0538C77.3098 26.0318 77.7358 26.0124 78.1147 26.1695C78.4937 26.3266 78.8094 26.7156 78.7411 27.119C79.3782 27.0372 80.0065 27.4796 80.2695 28.0638C80.5325 28.6479 80.4804 29.3339 80.2702 29.939C80.2495 30.0316 80.2091 30.1188 80.1516 30.1945C80.0941 30.2702 80.021 30.3327 79.9372 30.3778C79.7227 30.4589 79.4921 30.3229 79.3062 30.1888C78.3358 29.4884 77.4525 28.6753 76.6751 27.7666" fill="#2F2E41"/>
<path d="M79.3566 36.6091C79.1731 36.6952 79.2686 37.0156 79.126 37.159C79.0642 37.2198 78.9895 37.2661 78.9075 37.2945C78.886 37.0271 78.8236 36.7646 78.7222 36.5161C78.7036 36.4709 78.6729 36.4204 78.6249 36.4244C78.569 36.4311 78.5543 36.5041 78.553 36.5586C78.5417 36.8288 78.4816 37.0947 78.3757 37.3437C78.3744 37.3464 78.373 37.3503 78.3717 37.353C78.3304 37.3517 78.2878 37.3503 78.2478 37.349C77.9386 37.3371 77.2536 36.5453 77.1017 36.8137C77.6374 35.8665 78.2904 34.4424 78.3904 33.3598C78.425 33.1331 78.4082 32.9016 78.3411 32.6823C78.306 32.5732 78.2403 32.4764 78.1517 32.4034C78.0631 32.3304 77.9554 32.2843 77.8413 32.2705C77.785 32.2679 77.7289 32.2778 77.6769 32.2994C77.6248 32.321 77.5783 32.3538 77.5404 32.3954C77.5026 32.4371 77.4745 32.4865 77.4581 32.5402C77.4417 32.594 77.4374 32.6506 77.4455 32.7062L77.3682 32.6956C76.6512 32.1137 77.2696 31.1028 76.4353 30.703C76.1528 30.5675 74.4229 31.0205 74.1177 30.9408C74.1112 30.6203 74.0457 30.3038 73.9245 30.0069C73.9058 29.9617 73.8752 29.9112 73.8272 29.9152C73.7712 29.9219 73.7566 29.9949 73.7552 30.0494C73.7439 30.3196 73.6839 30.5855 73.578 30.8345C73.1552 30.7747 72.7248 30.7973 72.3106 30.9009C71.9454 30.9965 71.5989 31.1613 71.2324 31.2489C71.0513 31.3043 70.8607 31.3222 70.6723 31.3017C70.484 31.2811 70.3018 31.2225 70.1369 31.1294C69.6718 30.8185 69.5905 30.1304 69.8224 29.623C69.9902 29.2973 70.2171 29.0055 70.4914 28.7622C70.7007 28.5602 70.9179 28.3663 71.1351 28.1723C71.3297 27.9983 71.5243 27.8243 71.7189 27.6503C71.9638 27.4205 72.2248 27.2083 72.4998 27.0153C72.939 26.7284 73.4323 26.5339 73.9495 26.4439C74.4668 26.3539 74.997 26.3703 75.5077 26.4919C76.1208 26.638 76.9404 26.4321 77.5015 26.7177C77.7947 26.8678 78.4437 27.443 78.7009 27.6476C79.3593 28.1697 78.9137 27.7443 79.6338 28.0461C81.3508 28.7659 80.5915 36.0296 79.3566 36.6091Z" fill="#2F2E41"/>
<path d="M31.4284 68.1021C46.2542 68.1021 58.273 56.1221 58.273 41.344C58.273 26.5659 46.2542 14.5859 31.4284 14.5859C16.6025 14.5859 4.58374 26.5659 4.58374 41.344C4.58374 56.1221 16.6025 68.1021 31.4284 68.1021Z" fill="white"/>
<path d="M31.4287 68.3668C16.4788 68.3668 4.31616 56.2433 4.31616 41.3416C4.31616 26.4399 16.4788 14.3164 31.4287 14.3164C46.3786 14.3164 58.5413 26.4399 58.5413 41.3416C58.5413 56.2433 46.3786 68.3668 31.4287 68.3668ZM31.4287 14.8506C16.7744 14.8506 4.85208 26.7345 4.85208 41.3416C4.85208 55.9488 16.7744 67.8326 31.4287 67.8326C46.0831 67.8326 58.0054 55.9488 58.0054 41.3416C58.0054 26.7344 46.0831 14.8506 31.4287 14.8506Z" fill="#8C2BE3"/>
<path d="M27.7664 55.2696C27.3029 55.2696 26.8457 55.162 26.4311 54.9553C26.0165 54.7486 25.6559 54.4485 25.3778 54.0788L18.0542 44.3453C17.8189 44.0326 17.6477 43.6768 17.5504 43.2981C17.4531 42.9195 17.4316 42.5254 17.4871 42.1385C17.5425 41.7516 17.6739 41.3793 17.8737 41.043C18.0735 40.7067 18.3378 40.4129 18.6515 40.1783C18.9652 39.9438 19.3222 39.7732 19.7021 39.6762C20.0819 39.5792 20.4773 39.5578 20.8654 39.613C21.2536 39.6683 21.6271 39.7993 21.9645 39.9985C22.3019 40.1976 22.5967 40.4611 22.8319 40.7738L27.6233 47.1412L39.9293 28.7419C40.3688 28.0856 41.0518 27.6301 41.8282 27.4756C42.6045 27.3211 43.4106 27.4802 44.0693 27.9179C44.728 28.3556 45.1854 29.0361 45.3409 29.8099C45.4964 30.5836 45.3373 31.3872 44.8986 32.0441L30.2513 53.9441C29.9863 54.3402 29.63 54.6672 29.2121 54.8976C28.7942 55.1281 28.327 55.2553 27.8495 55.2687C27.8218 55.2692 27.7941 55.2696 27.7664 55.2696Z" fill="#8C2BE3"/>
<path d="M59.0862 16.2541C59.1609 15.7426 58.6233 15.2411 57.8856 15.1341C57.1478 15.0271 56.4892 15.3551 56.4145 15.8667C56.3398 16.3782 56.8774 16.8797 57.6151 16.9867C58.3529 17.0937 59.0115 16.7657 59.0862 16.2541Z" fill="#E6E6E6"/>
<path d="M67.8701 15.4026C67.9448 14.891 67.4073 14.3896 66.6695 14.2826C65.9317 14.1756 65.2731 14.5035 65.1984 15.0151C65.1238 15.5267 65.6613 16.0281 66.3991 16.1351C67.1369 16.2421 67.7955 15.9142 67.8701 15.4026Z" fill="#3F3D56"/>
<path d="M56.6809 9.17211C56.7556 8.66053 56.2181 8.15908 55.4803 8.05208C54.7425 7.94509 54.0839 8.27306 54.0092 8.78464C53.9346 9.29622 54.4721 9.79768 55.2099 9.90467C55.9476 10.0117 56.6063 9.68369 56.6809 9.17211Z" fill="#FF6584"/>
<path d="M52.8641 6.26404C52.8676 5.79439 52.6048 5.41166 52.277 5.40919C51.9493 5.40672 51.6807 5.78544 51.6771 6.25509C51.6735 6.72474 51.9364 7.10747 52.2641 7.10994C52.5919 7.11241 52.8605 6.73369 52.8641 6.26404Z" fill="#E6E6E6"/>
<path d="M51.5696 0.857789C51.5732 0.38814 51.3104 0.0054098 50.9826 0.00293927C50.6548 0.000468747 50.3862 0.379193 50.3827 0.848842C50.3791 1.31849 50.6419 1.70122 50.9697 1.70369C51.2975 1.70616 51.5661 1.32744 51.5696 0.857789Z" fill="#3F3D56"/>
<path d="M61.6351 10.3734C61.6386 9.90376 61.3758 9.52103 61.048 9.51856C60.7203 9.51609 60.4517 9.89482 60.4481 10.3645C60.4445 10.8341 60.7074 11.2168 61.0351 11.2193C61.3629 11.2218 61.6315 10.8431 61.6351 10.3734Z" fill="#E6E6E6"/>
<path d="M57.3904 12.4867C57.394 12.0171 57.1312 11.6343 56.8034 11.6319C56.4756 11.6294 56.207 12.0081 56.2035 12.4778C56.1999 12.9474 56.4627 13.3301 56.7905 13.3326C57.1183 13.3351 57.3869 12.9564 57.3904 12.4867Z" fill="#FF6584"/>
<path d="M63.2994 16.393C63.3029 15.9233 63.0401 15.5406 62.7123 15.5381C62.3846 15.5356 62.116 15.9144 62.1124 16.384C62.1088 16.8537 62.3717 17.2364 62.6994 17.2388C63.0272 17.2413 63.2958 16.8626 63.2994 16.393Z" fill="#3F3D56"/>
<path d="M8.71 79.6487C8.78467 79.1371 8.24712 78.6356 7.50934 78.5286C6.77157 78.4216 6.11296 78.7496 6.03828 79.2612C5.96361 79.7728 6.50115 80.2742 7.23893 80.3812C7.9767 80.4882 8.63532 80.1603 8.71 79.6487Z" fill="#E6E6E6"/>
<path d="M17.4939 78.7932C17.5686 78.2816 17.031 77.7802 16.2933 77.6732C15.5555 77.5662 14.8969 77.8942 14.8222 78.4057C14.7475 78.9173 15.2851 79.4188 16.0229 79.5258C16.7606 79.6328 17.4192 79.3048 17.4939 78.7932Z" fill="#3F3D56"/>
<path d="M6.30447 72.5588C6.37915 72.0473 5.8416 71.5458 5.10383 71.4388C4.36606 71.3318 3.70744 71.6598 3.63277 72.1714C3.55809 72.6829 4.09564 73.1844 4.83341 73.2914C5.57118 73.3984 6.2298 73.0704 6.30447 72.5588Z" fill="#FF6584"/>
<path d="M2.48784 69.6547C2.49141 69.185 2.22859 68.8023 1.90082 68.7998C1.57305 68.7973 1.30445 69.1761 1.30088 69.6457C1.29732 70.1154 1.56015 70.4981 1.88792 70.5006C2.21568 70.503 2.48428 70.1243 2.48784 69.6547Z" fill="#E6E6E6"/>
<path d="M1.1934 64.2484C1.19697 63.7788 0.934147 63.396 0.606379 63.3936C0.27861 63.3911 0.010014 63.7698 0.00645115 64.2395C0.00288828 64.7091 0.265708 65.0918 0.593477 65.0943C0.921245 65.0968 1.18984 64.7181 1.1934 64.2484Z" fill="#3F3D56"/>
<path d="M11.2588 73.764C11.2624 73.2944 10.9996 72.9117 10.6718 72.9092C10.344 72.9067 10.0754 73.2854 10.0719 73.7551C10.0683 74.2247 10.3311 74.6075 10.6589 74.6099C10.9867 74.6124 11.2553 74.2337 11.2588 73.764Z" fill="#E6E6E6"/>
<path d="M7.01422 75.8773C7.01778 75.4077 6.75495 75.0249 6.42719 75.0225C6.09942 75.02 5.83081 75.3987 5.82725 75.8684C5.82369 76.338 6.08651 76.7208 6.41428 76.7232C6.74205 76.7257 7.01065 76.347 7.01422 75.8773Z" fill="#FF6584"/>
<path d="M12.9231 79.7836C12.9267 79.3139 12.6639 78.9312 12.3361 78.9287C12.0083 78.9262 11.7398 79.305 11.7362 79.7746C11.7326 80.2443 11.9954 80.627 12.3232 80.6295C12.651 80.6319 12.9196 80.2532 12.9231 79.7836Z" fill="#3F3D56"/>
</svg>
