<svg xmlns="http://www.w3.org/2000/svg" x="0px" y="0px"
     width="64" height="64"
     viewBox="0 0 172 172"
     style=" fill:#000000;"><g fill="none" fill-rule="nonzero" stroke="none" stroke-width="1" stroke-linecap="butt" stroke-linejoin="miter" stroke-miterlimit="10" stroke-dasharray="" stroke-dashoffset="0" font-family="none" font-weight="none" font-size="none" text-anchor="none" style="mix-blend-mode: normal"><path d="M0,172v-172h172v172z" fill="none"></path><g><path d="M126.98438,150.5h-81.96875c-7.39062,0 -13.4375,-6.04687 -13.4375,-13.4375v-107.5c0,-7.39062 6.04688,-13.4375 13.4375,-13.4375h81.96875c7.39063,0 13.4375,6.04688 13.4375,13.4375v107.5c0,7.39063 -6.04687,13.4375 -13.4375,13.4375z" fill="#ffffff"></path><path d="M45.01563,29.5625h81.96875v20.15625h-81.96875zM118.92188,76.59375h-68.53125c-2.28438,0 -4.03125,-1.74688 -4.03125,-4.03125c0,-2.28437 1.74687,-4.03125 4.03125,-4.03125h68.53125c2.28437,0 4.03125,1.74688 4.03125,4.03125c0,2.28437 -1.74688,4.03125 -4.03125,4.03125zM118.92188,96.75h-68.53125c-2.28438,0 -4.03125,-1.74688 -4.03125,-4.03125c0,-2.28437 1.74687,-4.03125 4.03125,-4.03125h68.53125c2.28437,0 4.03125,1.74688 4.03125,4.03125c0,2.28437 -1.74688,4.03125 -4.03125,4.03125zM86,116.90625h-35.60937c-2.28438,0 -4.03125,-1.74688 -4.03125,-4.03125c0,-2.28437 1.74687,-4.03125 4.03125,-4.03125h35.60938c2.28437,0 4.03125,1.74688 4.03125,4.03125c0,2.28437 -1.74688,4.03125 -4.03125,4.03125z" fill="#c7d7e2"></path><path d="M126.98438,154.53125h-81.96875c-9.675,0 -17.46875,-7.79375 -17.46875,-17.46875v-107.5c0,-9.675 7.79375,-17.46875 17.46875,-17.46875h81.96875c9.675,0 17.46875,7.79375 17.46875,17.46875v107.5c0,9.675 -7.79375,17.46875 -17.46875,17.46875zM45.01563,20.15625c-5.24063,0 -9.40625,4.16563 -9.40625,9.40625v107.5c0,5.24062 4.16562,9.40625 9.40625,9.40625h81.96875c5.24062,0 9.40625,-4.16563 9.40625,-9.40625v-107.5c0,-5.24062 -4.16563,-9.40625 -9.40625,-9.40625z" fill="#454b54"></path></g></g></svg>