<svg width="230" height="171" viewBox="0 0 230 171" fill="none" xmlns="http://www.w3.org/2000/svg">
    <path d="M229.385 0H0.614746V171H229.385V0Z" fill="white"/>
    <path d="M215.087 156.679H14.9131V157.106H215.087V156.679Z" fill="#6B7280"/>
    <path d="M197.924 41.6111C196.798 41.6111 195.81 40.8772 195.469 39.8042C194.703 37.386 192.438 35.6332 189.764 35.6332C187.091 35.6332 184.826 37.386 184.059 39.8042C183.719 40.8772 182.731 41.6111 181.604 41.6111C179.871 41.6111 178.629 39.931 179.148 38.278C180.565 33.7679 184.783 30.4961 189.764 30.4961C194.746 30.4961 198.964 33.7679 200.381 38.278C200.9 39.931 199.657 41.6111 197.924 41.6111Z"
          fill="white"/>
    <path d="M197.924 41.7174C196.752 41.7174 195.724 40.9607 195.368 39.8364C194.591 37.3868 192.339 35.7395 189.764 35.7395C187.189 35.7395 184.937 37.3854 184.161 39.8364C183.803 40.9622 182.777 41.7174 181.604 41.7174C180.742 41.7174 179.956 41.3198 179.444 40.6259C178.933 39.9333 178.788 39.0655 179.045 38.2461C180.522 33.5465 184.83 30.3887 189.764 30.3887C194.699 30.3887 199.007 33.5465 200.484 38.2461C200.741 39.0655 200.595 39.9333 200.085 40.6259C199.573 41.3198 198.785 41.7174 197.924 41.7174ZM189.764 35.5258C192.434 35.5258 194.767 37.2315 195.572 39.7709C195.901 40.8068 196.846 41.5022 197.924 41.5022C198.716 41.5022 199.441 41.136 199.912 40.4976C200.382 39.8592 200.515 39.0612 200.279 38.3074C198.831 33.6975 194.606 30.5996 189.764 30.5996C184.923 30.5996 180.698 33.6975 179.249 38.3074C179.012 39.0612 179.146 39.8592 179.617 40.4976C180.087 41.136 180.812 41.5022 181.604 41.5022C182.682 41.5022 183.629 40.8068 183.956 39.7709C184.761 37.2315 187.095 35.5258 189.764 35.5258Z"
          fill="#6B7280"/>
    <path d="M24.5144 64.4686C24.9147 64.9673 25.5953 65.1711 26.1915 64.9374C27.547 64.4087 29.1455 64.7892 30.1035 65.9819C31.0615 67.1747 31.0829 68.812 30.2679 70.0147C29.909 70.5434 29.9591 71.2502 30.3594 71.7489C30.9714 72.5113 32.1496 72.4643 32.6986 71.6563C34.2171 69.4205 34.177 66.3738 32.3955 64.1551C30.6139 61.9364 27.6399 61.2295 25.1192 62.2156C24.2069 62.5719 23.9024 63.7062 24.5144 64.4686Z"
          fill="white"/>
    <path d="M31.4876 72.3974C31.0115 72.3974 30.5711 72.1865 30.2709 71.8132C29.8376 71.2731 29.7976 70.5079 30.1736 69.9521C30.9886 68.7494 30.9243 67.1805 30.0149 66.0462C29.1041 64.9119 27.5814 64.5058 26.2259 65.0345C25.5997 65.2796 24.859 65.0729 24.4258 64.5329C24.1126 64.1424 24.0068 63.6422 24.137 63.1592C24.2671 62.6761 24.6088 62.2942 25.0749 62.1118C27.7229 61.0758 30.6955 61.8695 32.4742 64.084C34.2529 66.2984 34.3759 69.365 32.7816 71.712C32.5014 72.1252 32.0524 72.3746 31.5506 72.3946C31.5305 72.3974 31.5091 72.3974 31.4876 72.3974ZM27.4384 64.5927C28.4836 64.5927 29.4959 65.0587 30.1822 65.9137C31.1516 67.1207 31.2203 68.7922 30.3509 70.0732C30.0264 70.552 30.0621 71.2132 30.4367 71.6806C30.707 72.0169 31.1102 72.1993 31.542 72.1837C31.9738 72.1666 32.3613 71.9514 32.6029 71.5951C34.1442 69.3266 34.0241 66.3626 32.3055 64.2208C30.5869 62.079 27.7115 61.3124 25.1521 62.3141C24.7503 62.4709 24.4544 62.8001 24.3428 63.2176C24.2313 63.6337 24.3214 64.0655 24.5916 64.4018C24.9677 64.8692 25.6068 65.0487 26.1458 64.8378C26.5705 64.6725 27.008 64.5927 27.4384 64.5927Z"
          fill="#6B7280"/>
    <path d="M25.8731 71.452C25.4728 70.9533 24.7922 70.7495 24.196 70.9832C22.8405 71.5119 21.242 71.1314 20.284 69.9387C19.326 68.7459 19.3046 67.1086 20.1196 65.9059C20.4785 65.3772 20.4284 64.6704 20.0281 64.1717C19.4161 63.4093 18.2379 63.4563 17.6889 64.2643C16.1704 66.5001 16.2105 69.5468 17.992 71.7655C19.7736 73.9842 22.7476 74.691 25.2683 73.7049C26.1806 73.3501 26.4837 72.2144 25.8731 71.452Z"
          fill="white"/>
    <path d="M22.9392 74.2551C21.0232 74.2551 19.1673 73.4001 17.9105 71.8326C16.1318 69.6181 16.0089 66.5515 17.6031 64.2045C17.8834 63.7913 18.3323 63.5419 18.8342 63.522C19.3346 63.5006 19.8022 63.7143 20.1153 64.1048C20.5485 64.6449 20.5886 65.4101 20.2125 65.9658C19.3975 67.1686 19.4619 68.7375 20.3712 69.8718C21.282 71.0061 22.8048 71.4122 24.1602 70.8835C24.7865 70.6384 25.5271 70.8451 25.9604 71.3851C26.2735 71.7756 26.3793 72.2758 26.2492 72.7588C26.1191 73.2419 25.7774 73.6238 25.3112 73.8062C24.5334 74.1083 23.7313 74.2551 22.9392 74.2551ZM18.8957 63.7357C18.8771 63.7357 18.8585 63.7357 18.8399 63.7371C18.4081 63.7542 18.0206 63.9694 17.779 64.3257C16.2376 66.5943 16.3577 69.5583 18.0764 71.7001C19.795 73.8418 22.6704 74.6085 25.2297 73.6067C25.6315 73.45 25.9275 73.1208 26.039 72.7033C26.1505 72.2872 26.0605 71.8554 25.7902 71.5191C25.4142 71.0517 24.7751 70.8721 24.236 71.083C22.7919 71.6473 21.1705 71.2141 20.2011 70.0057C19.2317 68.7988 19.163 67.1272 20.0324 65.8461C20.3569 65.3673 20.3212 64.7061 19.9466 64.2387C19.6878 63.9167 19.3074 63.7357 18.8957 63.7357Z"
          fill="#6B7280"/>
    <path d="M207.945 127.088C207.857 126.966 207.672 126.972 207.591 127.1L206.451 128.884C206.36 129.026 206.463 129.213 206.633 129.213H209.073C209.249 129.213 209.349 129.015 209.246 128.874L207.945 127.088Z"
          fill="white"/>
    <path d="M207.945 122.766C207.857 122.644 207.672 122.649 207.591 122.778L206.451 124.562C206.36 124.704 206.463 124.891 206.633 124.891H209.073C209.249 124.891 209.349 124.693 209.246 124.552L207.945 122.766Z"
          fill="white"/>
    <path d="M207.945 118.445C207.857 118.322 207.672 118.328 207.591 118.456L206.451 120.24C206.36 120.383 206.463 120.57 206.633 120.57H209.073C209.249 120.57 209.349 120.371 209.246 120.23L207.945 118.445Z"
          fill="white"/>
    <path d="M207.945 114.123C207.857 114 207.672 114.006 207.591 114.134L206.451 115.918C206.36 116.061 206.463 116.247 206.633 116.247H209.073C209.249 116.247 209.349 116.049 209.246 115.908L207.945 114.123Z"
          fill="white"/>
    <path d="M206.636 111.924H209.077C209.253 111.924 209.353 111.726 209.25 111.584L207.949 109.8C207.86 109.678 207.676 109.684 207.594 109.812L206.455 111.596C206.365 111.737 206.468 111.924 206.636 111.924Z"
          fill="white"/>
    <path d="M35.0048 119.349C33.432 119.349 31.812 118.465 31.1014 117.944C30.3193 117.368 29.5358 117.039 28.9481 117.039C28.2404 117.039 27.5955 117.19 26.5718 117.944C25.3407 118.85 23.9538 119.349 22.6684 119.349C21.3301 119.349 20.3821 118.967 18.765 117.778C18.1344 117.314 17.8084 117.168 17.4681 117.113C16.8976 117.017 16.4587 116.561 16.4029 115.989C16.3171 115.131 17.1007 114.432 17.9428 114.631C18.6334 114.792 19.4613 115.109 20.292 115.719C21.7461 116.789 22.1536 116.789 22.6684 116.789C23.3976 116.789 24.264 116.46 25.0447 115.885C26.383 114.9 27.5512 114.479 28.9481 114.479C30.4094 114.479 31.7548 115.243 32.627 115.885C33.219 116.319 34.2956 116.789 35.0034 116.789C35.7269 116.789 36.6319 116.286 37.3597 115.883L37.5198 115.795C37.6585 115.718 37.7987 115.632 37.9474 115.541C38.465 115.223 39.0683 114.854 39.962 114.645C40.7527 114.461 41.5062 115.071 41.5062 115.879V115.906C41.5062 116.486 41.1144 117.003 40.5482 117.137C40.0563 117.253 39.7132 117.463 39.2942 117.721C39.127 117.824 38.9539 117.929 38.7638 118.035L38.6079 118.122C37.6757 118.639 36.3946 119.349 35.0048 119.349Z"
          fill="white"/>
    <path d="M100.029 129.969C100.327 129.969 100.569 129.728 100.569 129.43C100.569 129.133 100.327 128.892 100.029 128.892C99.7303 128.892 99.4883 129.133 99.4883 129.43C99.4883 129.728 99.7303 129.969 100.029 129.969Z"
          fill="#6B7280"/>
    <path d="M103.815 129.969C104.114 129.969 104.356 129.728 104.356 129.43C104.356 129.133 104.114 128.892 103.815 128.892C103.517 128.892 103.275 129.133 103.275 129.43C103.275 129.728 103.517 129.969 103.815 129.969Z"
          fill="#6B7280"/>
    <path d="M107.602 129.969C107.9 129.969 108.142 129.728 108.142 129.43C108.142 129.133 107.9 128.892 107.602 128.892C107.303 128.892 107.062 129.133 107.062 129.43C107.062 129.728 107.303 129.969 107.602 129.969Z"
          fill="#6B7280"/>
    <path d="M111.384 129.969C111.683 129.969 111.925 129.728 111.925 129.43C111.925 129.133 111.683 128.892 111.384 128.892C111.086 128.892 110.844 129.133 110.844 129.43C110.844 129.728 111.086 129.969 111.384 129.969Z"
          fill="#6B7280"/>
    <path d="M100.029 133.742C100.327 133.742 100.569 133.501 100.569 133.204C100.569 132.906 100.327 132.665 100.029 132.665C99.7303 132.665 99.4883 132.906 99.4883 133.204C99.4883 133.501 99.7303 133.742 100.029 133.742Z"
          fill="#6B7280"/>
    <path d="M103.815 133.742C104.114 133.742 104.356 133.501 104.356 133.204C104.356 132.906 104.114 132.665 103.815 132.665C103.517 132.665 103.275 132.906 103.275 133.204C103.275 133.501 103.517 133.742 103.815 133.742Z"
          fill="#6B7280"/>
    <path d="M107.602 133.742C107.9 133.742 108.142 133.501 108.142 133.204C108.142 132.906 107.9 132.665 107.602 132.665C107.303 132.665 107.062 132.906 107.062 133.204C107.062 133.501 107.303 133.742 107.602 133.742Z"
          fill="#6B7280"/>
    <path d="M111.384 133.742C111.683 133.742 111.925 133.501 111.925 133.204C111.925 132.906 111.683 132.665 111.384 132.665C111.086 132.665 110.844 132.906 110.844 133.204C110.844 133.501 111.086 133.742 111.384 133.742Z"
          fill="#6B7280"/>
    <path d="M100.029 137.516C100.327 137.516 100.569 137.275 100.569 136.977C100.569 136.68 100.327 136.438 100.029 136.438C99.7303 136.438 99.4883 136.68 99.4883 136.977C99.4883 137.275 99.7303 137.516 100.029 137.516Z"
          fill="#6B7280"/>
    <path d="M103.815 137.516C104.114 137.516 104.356 137.275 104.356 136.977C104.356 136.68 104.114 136.438 103.815 136.438C103.517 136.438 103.275 136.68 103.275 136.977C103.275 137.275 103.517 137.516 103.815 137.516Z"
          fill="#6B7280"/>
    <path d="M107.602 137.516C107.9 137.516 108.142 137.275 108.142 136.977C108.142 136.68 107.9 136.438 107.602 136.438C107.303 136.438 107.062 136.68 107.062 136.977C107.062 137.275 107.303 137.516 107.602 137.516Z"
          fill="#6B7280"/>
    <path d="M111.384 137.516C111.683 137.516 111.925 137.275 111.925 136.977C111.925 136.68 111.683 136.438 111.384 136.438C111.086 136.438 110.844 136.68 110.844 136.977C110.844 137.275 111.086 137.516 111.384 137.516Z"
          fill="#6B7280"/>
    <path d="M100.029 140.21C99.7299 140.21 99.4883 140.451 99.4883 140.749C99.4883 141.046 99.7299 141.287 100.029 141.287C100.328 141.287 100.569 141.046 100.569 140.749C100.571 140.452 100.328 140.21 100.029 140.21Z"
          fill="#6B7280"/>
    <path d="M103.815 140.21C103.517 140.21 103.275 140.451 103.275 140.749C103.275 141.046 103.517 141.287 103.815 141.287C104.114 141.287 104.356 141.046 104.356 140.749C104.356 140.452 104.114 140.21 103.815 140.21Z"
          fill="#6B7280"/>
    <path d="M107.602 140.21C107.303 140.21 107.062 140.451 107.062 140.749C107.062 141.046 107.303 141.287 107.602 141.287C107.901 141.287 108.142 141.046 108.142 140.749C108.142 140.452 107.901 140.21 107.602 140.21Z"
          fill="#6B7280"/>
    <path d="M111.384 140.21C111.085 140.21 110.844 140.451 110.844 140.749C110.844 141.046 111.085 141.287 111.384 141.287C111.683 141.287 111.925 141.046 111.925 140.749C111.925 140.452 111.683 140.21 111.384 140.21Z"
          fill="#6B7280"/>
    <path d="M162.045 120.198H67.9572C64.0095 120.198 60.8081 117.008 60.8081 113.073V26.1484C60.8081 22.214 64.0095 19.0234 67.9572 19.0234H162.045C165.992 19.0234 169.194 22.214 169.194 26.1484V113.073C169.194 117.008 165.994 120.198 162.045 120.198Z"
          fill="white"/>
    <path d="M162.044 120.306H67.9565C63.9559 120.306 60.7002 117.061 60.7002 113.074V26.1489C60.7002 22.1617 63.9559 18.917 67.9565 18.917H162.044C166.045 18.917 169.3 22.1617 169.3 26.1489V113.074C169.3 117.061 166.046 120.306 162.044 120.306ZM67.9565 19.1307C64.0731 19.1307 60.9147 22.2786 60.9147 26.1489V113.074C60.9147 116.944 64.0731 120.092 67.9565 120.092H162.044C165.927 120.092 169.086 116.944 169.086 113.074V26.1489C169.086 22.2786 165.927 19.1307 162.044 19.1307H67.9565Z"
          fill="#6B7280"/>
    <path d="M169.194 28.7747H60.8081V26.1484C60.8081 22.214 64.0095 19.0234 67.9572 19.0234H162.045C165.992 19.0234 169.194 22.214 169.194 26.1484V28.7747Z"
          fill="white"/>
    <path d="M169.3 28.8806H60.7002V26.1489C60.7002 22.1617 63.9559 18.917 67.9565 18.917H162.044C166.045 18.917 169.3 22.1617 169.3 26.1489V28.8806ZM60.9147 28.6668H169.086V26.1489C169.086 22.2786 165.927 19.1307 162.044 19.1307H67.9565C64.0731 19.1307 60.9147 22.2786 60.9147 26.1489V28.6668Z"
          fill="#6B7280"/>
    <path d="M105.777 70.0816H73.3154C70.157 70.0816 67.5962 67.5294 67.5962 64.3816V39.4441C67.5962 36.2963 70.157 33.7441 73.3154 33.7441H105.778C108.936 33.7441 111.497 36.2963 111.497 39.4441V64.3816C111.496 67.5294 108.935 70.0816 105.777 70.0816Z"
          fill="white"/>
    <path d="M105.78 70.1889H73.3187C70.1059 70.1889 67.4922 67.584 67.4922 64.3821V39.4446C67.4922 36.2426 70.1059 33.6377 73.3187 33.6377H105.781C108.994 33.6377 111.608 36.2426 111.608 39.4446V64.3821C111.606 67.584 108.993 70.1889 105.78 70.1889ZM73.3187 33.8514C70.2246 33.8514 67.7067 36.3609 67.7067 39.4446V64.3821C67.7067 67.4658 70.2246 69.9752 73.3187 69.9752H105.781C108.875 69.9752 111.393 67.4658 111.393 64.3821V39.4446C111.393 36.3609 108.875 33.8514 105.781 33.8514H73.3187Z"
          fill="#6B7280"/>
    <path d="M105.795 113.074H73.3335C70.1751 113.074 67.6143 110.522 67.6143 107.374V82.4363C67.6143 79.2885 70.1751 76.7363 73.3335 76.7363H105.796C108.954 76.7363 111.515 79.2885 111.515 82.4363V107.374C111.514 110.522 108.954 113.074 105.795 113.074Z"
          fill="white"/>
    <path d="M75.8303 99.7385H89.7752C90.2328 99.7385 90.6045 99.368 90.6045 98.912V98.8265C90.6045 98.3705 90.2328 98 89.7752 98H75.8303C75.3727 98 75.001 98.3705 75.001 98.8265V98.912C75.001 99.368 75.3727 99.7385 75.8303 99.7385Z"
          fill="#D1D5DB"/>
    <path d="M76.5423 104H102.46C103.31 104 104.001 103.574 104.001 103.049V102.951C104.001 102.426 103.31 102 102.46 102H76.5423C75.6919 102 75.001 102.426 75.001 102.951V103.049C75.001 103.574 75.6919 104 76.5423 104Z"
          fill="#D1D5DB"/>
    <path d="M105.793 113.181H73.3324C70.1196 113.181 67.5059 110.576 67.5059 107.374V82.4368C67.5059 79.2348 70.1196 76.6299 73.3324 76.6299H105.795C109.008 76.6299 111.621 79.2348 111.621 82.4368V107.374C111.62 110.576 109.006 113.181 105.793 113.181ZM73.3324 76.8436C70.2382 76.8436 67.7203 79.3531 67.7203 82.4368V107.374C67.7203 110.458 70.2382 112.967 73.3324 112.967H105.795C108.889 112.967 111.407 110.458 111.407 107.374V82.4368C111.407 79.3531 108.889 76.8436 105.795 76.8436H73.3324Z"
          fill="#6B7280"/>
    <path d="M156.696 70.0387H124.234C121.076 70.0387 118.515 67.4865 118.515 64.3387V39.4012C118.515 36.2533 121.076 33.7012 124.234 33.7012H156.697C159.855 33.7012 162.416 36.2533 162.416 39.4012V64.3387C162.415 67.4865 159.855 70.0387 156.696 70.0387Z"
          fill="white"/>
    <path d="M156.694 70.145H124.233C121.02 70.145 118.407 67.5401 118.407 64.3381V39.4006C118.407 36.1987 121.02 33.5938 124.233 33.5938H156.696C159.909 33.5938 162.522 36.1987 162.522 39.4006V64.3381C162.521 67.5401 159.907 70.145 156.694 70.145ZM124.233 33.8075C121.139 33.8075 118.621 36.3169 118.621 39.4006V64.3381C118.621 67.4218 121.139 69.9312 124.233 69.9312H156.696C159.79 69.9312 162.308 67.4218 162.308 64.3381V39.4006C162.308 36.3169 159.79 33.8075 156.696 33.8075H124.233Z"
          fill="#6B7280"/>
    <path d="M124.83 40.7385H138.775C139.233 40.7385 139.605 40.368 139.605 39.912V39.8265C139.605 39.3705 139.233 39 138.775 39H124.83C124.373 39 124.001 39.3705 124.001 39.8265V39.912C124.001 40.368 124.373 40.7385 124.83 40.7385Z"
          fill="#D1D5DB"/>
    <path d="M125.542 45H151.46C152.31 45 153.001 44.5738 153.001 44.0492V43.9508C153.001 43.4262 152.31 43 151.46 43H125.542C124.692 43 124.001 43.4262 124.001 43.9508V44.0492C124.001 44.5738 124.692 45 125.542 45Z"
          fill="#D1D5DB"/>
    <path d="M156.697 114.356H124.234C121.076 114.356 118.515 111.804 118.515 108.656V82.4363C118.515 79.2885 121.076 76.7363 124.234 76.7363H156.697C159.855 76.7363 162.416 79.2885 162.416 82.4363V108.656C162.416 111.804 159.855 114.356 156.697 114.356Z"
          fill="white"/>
    <path d="M156.696 114.464H124.233C121.02 114.464 118.407 111.859 118.407 108.657V82.4368C118.407 79.2348 121.02 76.6299 124.233 76.6299H156.696C159.909 76.6299 162.522 79.2348 162.522 82.4368V108.657C162.522 111.859 159.907 114.464 156.696 114.464ZM124.233 76.8436C121.139 76.8436 118.621 79.3531 118.621 82.4368V108.657C118.621 111.74 121.139 114.25 124.233 114.25H156.696C159.79 114.25 162.308 111.74 162.308 108.657V82.4368C162.308 79.3531 159.79 76.8436 156.696 76.8436H124.233Z"
          fill="#6B7280"/>
    <path d="M89.4945 66.5645C97.6327 66.5645 104.23 59.9893 104.23 51.8784C104.23 43.7676 97.6327 37.1924 89.4945 37.1924C81.3562 37.1924 74.7588 43.7676 74.7588 51.8784C74.7588 59.9893 81.3562 66.5645 89.4945 66.5645Z"
          fill="#D1D5DB"/>
    <path d="M126.942 86.0527H126.863C126.141 86.0527 125.556 86.6356 125.556 87.3552V104.288C125.556 105.008 126.141 105.591 126.863 105.591H126.942C127.664 105.591 128.248 105.008 128.248 104.288V87.3552C128.248 86.637 127.664 86.0527 126.942 86.0527Z"
          fill="#E5E7EB"/>
    <path d="M132.326 86.0527H132.248C131.526 86.0527 130.941 86.6356 130.941 87.3552V104.288C130.941 105.008 131.526 105.591 132.248 105.591H132.326C133.048 105.591 133.633 105.008 133.633 104.288V87.3552C133.635 86.637 133.048 86.0527 132.326 86.0527Z"
          fill="#E5E7EB"/>
    <path d="M137.715 86.0527H137.636C136.914 86.0527 136.33 86.6356 136.33 87.3552V104.288C136.33 105.008 136.914 105.591 137.636 105.591H137.715C138.437 105.591 139.022 105.008 139.022 104.288V87.3552C139.023 86.637 138.437 86.0527 137.715 86.0527Z"
          fill="#E5E7EB"/>
    <path d="M143.1 86.0527H143.021C142.299 86.0527 141.714 86.6356 141.714 87.3552V104.288C141.714 105.008 142.299 105.591 143.021 105.591H143.1C143.822 105.591 144.407 105.008 144.407 104.288V87.3552C144.407 86.637 143.822 86.0527 143.1 86.0527Z"
          fill="#E5E7EB"/>
    <path d="M148.484 86.0527H148.405C147.683 86.0527 147.099 86.6356 147.099 87.3552V104.288C147.099 105.008 147.683 105.591 148.405 105.591H148.484C149.206 105.591 149.791 105.008 149.791 104.288V87.3552C149.791 86.637 149.206 86.0527 148.484 86.0527Z"
          fill="#E5E7EB"/>
    <path d="M126.942 99.9736H126.863C126.141 99.9736 125.556 100.556 125.556 101.276V104.289C125.556 105.008 126.141 105.591 126.863 105.591H126.942C127.664 105.591 128.248 105.008 128.248 104.289V101.276C128.248 100.558 127.664 99.9736 126.942 99.9736Z"
          fill="#8C2BE3"/>
    <path d="M132.326 96.3037H132.247C131.525 96.3037 130.94 96.8865 130.94 97.6062V104.289C130.94 105.009 131.525 105.592 132.247 105.592H132.326C133.048 105.592 133.633 105.009 133.633 104.289V97.6062C133.634 96.8865 133.048 96.3037 132.326 96.3037Z"
          fill="#8C2BE3"/>
    <path d="M137.715 92.833H137.636C136.914 92.833 136.33 93.4158 136.33 94.1355V104.29C136.33 105.01 136.914 105.592 137.636 105.592H137.715C138.437 105.592 139.022 105.01 139.022 104.29V94.1355C139.023 93.4158 138.437 92.833 137.715 92.833Z"
          fill="#8C2BE3"/>
    <path d="M143.099 93.6211H143.021C142.299 93.6211 141.714 94.2039 141.714 94.9235V104.289C141.714 105.008 142.299 105.591 143.021 105.591H143.099C143.821 105.591 144.406 105.008 144.406 104.289V94.9235C144.406 94.2039 143.821 93.6211 143.099 93.6211Z"
          fill="#8C2BE3"/>
    <path d="M148.484 89.2178H148.405C147.683 89.2178 147.098 89.8006 147.098 90.5202V104.289C147.098 105.008 147.683 105.591 148.405 105.591H148.484C149.206 105.591 149.79 105.008 149.79 104.289V90.5202C149.79 89.8006 149.206 89.2178 148.484 89.2178Z"
          fill="#8C2BE3"/>
    <path d="M153.872 86.0869H153.794C153.072 86.0869 152.487 86.6697 152.487 87.3894V104.288C152.487 105.008 153.072 105.591 153.794 105.591H153.872C154.594 105.591 155.179 105.008 155.179 104.288V87.3908C155.179 86.6712 154.594 86.0869 153.872 86.0869Z"
          fill="#8C2BE3"/>
    <path d="M122.821 98.9515C122.667 98.705 122.738 98.3787 122.979 98.2205L137.187 88.9338C137.307 88.8554 137.453 88.8312 137.591 88.8668L142.897 90.222C143.052 90.2619 143.216 90.2263 143.342 90.1251L148.637 85.8957C148.671 85.8672 148.71 85.8444 148.751 85.8259L157.176 82.1223C157.439 82.0069 157.742 82.1308 157.855 82.3987C157.968 82.6666 157.846 82.9787 157.584 83.0941L149.283 86.7436C149.242 86.7621 149.204 86.7849 149.169 86.8134L143.582 91.2765C143.456 91.3762 143.293 91.4118 143.138 91.3734L137.774 90.0025C137.636 89.9669 137.49 89.9911 137.37 90.0695L123.538 99.1111C123.296 99.2693 122.976 99.198 122.821 98.9515Z"
          fill="white"/>
    <path d="M123.262 99.3032C123.218 99.3032 123.174 99.299 123.129 99.289C122.965 99.2534 122.825 99.1536 122.733 99.0097C122.549 98.7147 122.633 98.3214 122.922 98.1333L137.13 88.8466C137.275 88.7525 137.453 88.7226 137.619 88.7654L142.925 90.1205C143.048 90.1519 143.175 90.1234 143.276 90.0436L148.57 85.8142C148.612 85.78 148.659 85.7529 148.707 85.7301L157.133 82.0251C157.285 81.9581 157.454 81.9553 157.608 82.0166C157.765 82.0793 157.888 82.2004 157.955 82.3586C158.091 82.6792 157.944 83.054 157.629 83.1922L149.328 86.843C149.295 86.8573 149.265 86.8758 149.238 86.8972L143.652 91.3603C143.501 91.4814 143.3 91.5242 143.114 91.4771L137.751 90.1063C137.642 90.0792 137.526 90.0977 137.432 90.1604L123.6 99.2021C123.497 99.2691 123.381 99.3032 123.262 99.3032ZM122.916 98.8957C122.976 98.9912 123.068 99.0567 123.177 99.0795C123.282 99.1023 123.391 99.0824 123.481 99.0225L137.313 89.9809C137.458 89.8868 137.636 89.8569 137.802 89.8997L143.165 91.2705C143.288 91.3019 143.416 91.2734 143.516 91.1936L149.102 86.7305C149.143 86.6963 149.191 86.6692 149.241 86.6464L157.542 82.9955C157.751 82.9043 157.848 82.655 157.758 82.4398C157.714 82.3358 157.632 82.2545 157.529 82.2132C157.429 82.1733 157.319 82.1747 157.22 82.2189L148.796 85.9239C148.763 85.9382 148.733 85.9567 148.706 85.9781L143.411 90.2075C143.26 90.3286 143.06 90.3713 142.874 90.3243L137.569 88.9692C137.46 88.9421 137.345 88.9606 137.25 89.0233L123.042 98.31C122.849 98.4368 122.793 98.699 122.916 98.8957Z"
          fill="#6B7280"/>
    <path d="M103.363 92.3797H75.6013C74.9121 92.3797 74.5675 91.5489 75.0551 91.0644L83.2322 82.9348C83.7612 82.4089 84.6063 82.3776 85.1725 82.8621L92.0742 88.7573C92.7948 89.3729 93.8371 89.4428 94.635 88.9283L97.6433 86.9889C98.1781 86.6441 98.8787 86.6939 99.3591 87.1115L103.872 91.0302C104.409 91.4962 104.077 92.3797 103.363 92.3797Z"
          fill="#8C2BE3"/>
    <path d="M93.6352 85.0182C94.4612 85.0182 95.1308 84.3509 95.1308 83.5277C95.1308 82.7044 94.4612 82.0371 93.6352 82.0371C92.8092 82.0371 92.1396 82.7044 92.1396 83.5277C92.1396 84.3509 92.8092 85.0182 93.6352 85.0182Z"
          fill="#6B7280"/>
    <path d="M89.4808 37.1924V51.9411L81.145 39.7816C83.5142 38.1514 86.3853 37.1967 89.4808 37.1924Z" fill="#6B7280"/>
    <path d="M98.8161 40.5041L89.4766 51.9411V37.1924H89.4952C93.0325 37.1924 96.2768 38.435 98.8161 40.5041Z"
          fill="white"/>
    <path d="M67.1086 25.3096C68.0956 25.3096 68.8958 24.5121 68.8958 23.5283C68.8958 22.5446 68.0956 21.7471 67.1086 21.7471C66.1215 21.7471 65.3213 22.5446 65.3213 23.5283C65.3213 24.5121 66.1215 25.3096 67.1086 25.3096Z"
          fill="#8C2BE3"/>
    <path d="M74.2711 25.3096C75.2582 25.3096 76.0584 24.5121 76.0584 23.5283C76.0584 22.5446 75.2582 21.7471 74.2711 21.7471C73.2841 21.7471 72.4839 22.5446 72.4839 23.5283C72.4839 24.5121 73.2841 25.3096 74.2711 25.3096Z"
          fill="#8C2BE3"/>
    <path d="M81.443 25.3096C82.4301 25.3096 83.2303 24.5121 83.2303 23.5283C83.2303 22.5446 82.4301 21.7471 81.443 21.7471C80.4559 21.7471 79.6558 22.5446 79.6558 23.5283C79.6558 24.5121 80.4559 25.3096 81.443 25.3096Z"
          fill="#D1D5DB"/>
    <path d="M89.373 52.2422V37.0859H89.4989C92.9133 37.0859 96.2476 38.2701 98.8885 40.4219L98.9714 40.4888L89.373 52.2422ZM89.5875 37.2997V51.6409L98.6697 40.5202C96.1032 38.4611 92.8861 37.3196 89.5875 37.2997Z"
          fill="#6B7280"/>
    <path d="M67.0802 94.9053C67.0802 94.9053 72.5864 114.776 73.0482 122.512C73.5086 130.248 70.2344 149.262 70.2344 149.262H62.3546C62.3546 149.262 61.4081 133.527 60.5159 125.895C59.6251 118.262 55.7975 105.375 56.7112 94.9053C56.7112 94.9053 65.2128 92.8376 67.0802 94.9053Z"
          fill="#D1D5DB"/>
    <path d="M69.5976 149.261L69.0414 151.948L73.7041 155.256V156.702H62.52V154.221L63.1992 149.261H69.5976Z"
          fill="#6B7280"/>
    <path d="M70.8182 145.885L64.5656 145.812L64.5642 145.708C64.5613 145.557 64.2625 130.576 64.0795 127.564C63.9136 124.831 63.2888 122.804 62.4252 120C61.3843 116.618 59.9573 111.986 58.6748 103.629L58.8864 103.597C60.1661 111.939 61.5902 116.561 62.6297 119.937C63.4976 122.756 64.1253 124.792 64.2925 127.551C64.4684 130.435 64.7487 144.259 64.7744 145.6L70.8182 145.67V145.885Z"
          fill="white"/>
    <path d="M62.8223 70.042C62.8223 70.042 68.3228 72.7908 69.1521 75.4769C69.9813 78.1631 70.1887 80.8506 71.6399 81.8838C73.0912 82.9169 73.5058 83.1235 72.4692 83.95C71.4326 84.7765 66.8829 88.5029 66.8829 88.5029L62.8223 70.042Z"
          fill="#8C2BE3"/>
    <path d="M67.0998 72.8428L65.8315 83.7398L66.1604 85.2375L67.5559 73.2503C67.4101 73.1121 67.2571 72.9767 67.0998 72.8428Z"
          fill="white"/>
    <path d="M63.4487 70.377L63.5645 73.425L64.1694 76.1767L63.9592 70.6677C63.7705 70.5579 63.5989 70.4596 63.4487 70.377Z"
          fill="white"/>
    <path d="M58.5218 94.9054C58.5218 94.9054 60.5121 105.802 58.4632 122.51C57.5195 130.203 54.5898 149.261 54.5898 149.261H46.7101C46.7101 149.261 46.3326 135.383 46.4999 127.033C46.8717 108.581 42.1905 105.858 46.753 93.8708C46.753 93.8708 56.6559 92.8392 58.5218 94.9054Z"
          fill="#D1D5DB"/>
    <path d="M61.2703 69.2763C61.2703 69.2763 66.8695 71.3425 67.0768 76.0963C67.2841 80.8501 66.8695 87.2569 66.8695 89.3232C66.8695 91.3894 68.5281 94.2836 67.0768 94.9035C65.6255 95.5234 55.8785 97.383 46.7534 93.8704C46.7534 93.8704 45.7168 82.2965 45.7168 76.5096C45.7168 70.7227 47.3754 68.2432 53.1819 68.2432L61.2703 69.2763Z"
          fill="#8C2BE3"/>
    <path d="M64.662 95.3601L63.1735 70.2559C62.8604 70.0578 62.5644 69.8911 62.3042 69.7543L57.4357 95.6651L54.2529 68.3806L53.365 68.2666L50.1994 94.8927L46.6063 71.2363C46.4661 71.5213 46.3446 71.8277 46.2402 72.1554L49.6832 94.8201C50.0178 94.9098 50.351 94.9925 50.6841 95.0694L53.804 68.8309L56.9639 95.9145C57.2784 95.9287 57.5887 95.9387 57.8961 95.9458L62.686 70.4468L64.1758 95.5639C64.5333 95.5098 64.865 95.4542 65.1681 95.3972L66.9583 86.3256C66.994 85.3851 67.0341 84.3207 67.0669 83.1978L64.662 95.3601Z"
          fill="white"/>
    <path d="M53.5377 149.261L53.5534 152.362L57.6999 155.256V156.702H46.0869V154.221L47.1393 149.261H53.5377Z"
          fill="#6B7280"/>
    <path d="M72.5261 84.0002C72.5261 84.0002 78.9603 88.7027 77.6734 91.9803C76.3866 95.2578 70.563 94.2104 67.1114 92.3109C63.6612 90.4127 61.1748 86.6108 61.1748 86.6108C61.1748 86.6108 68.5226 83.5727 72.5261 84.0002Z"
          fill="white"/>
    <path d="M73.6179 94.2015C71.446 94.2015 68.9053 93.4206 67.0579 92.4045C63.6235 90.515 61.1085 86.7074 61.0828 86.6689L61.0127 86.5606L61.1314 86.5107C61.2057 86.4808 68.5492 83.4669 72.5356 83.8916L72.5642 83.8944L72.587 83.9115C72.853 84.1053 79.0727 88.701 77.7701 92.0169C77.4269 92.8919 76.7549 93.5146 75.7741 93.868C75.1378 94.0989 74.4015 94.2015 73.6179 94.2015ZM61.3358 86.6589C61.7705 87.2902 64.0982 90.5307 67.1623 92.2164C69.633 93.5759 73.3606 94.5121 75.7026 93.6685C76.6234 93.3365 77.2525 92.7551 77.5728 91.94C78.7767 88.872 72.9044 84.4146 72.4855 84.1025C68.828 83.7291 62.3067 86.2699 61.3358 86.6589Z"
          fill="#6B7280"/>
    <path d="M77.6728 75.3066H62.0864L56.2241 88.9866H73.6235C74.3399 88.9866 74.9847 88.5506 75.2492 87.8851L79.2985 77.6892C79.7517 76.545 78.9067 75.3066 77.6728 75.3066Z"
          fill="white"/>
    <path d="M73.6239 89.093H56.0615L62.0153 75.1992H77.6732C78.288 75.1992 78.8614 75.5013 79.2074 76.0086C79.5534 76.5159 79.6249 77.1586 79.3975 77.7286L75.3483 87.9245C75.0666 88.6355 74.3903 89.093 73.6239 89.093ZM56.3861 88.8792H73.6239C74.3017 88.8792 74.9008 88.4731 75.1496 87.8461L79.1988 77.6502C79.4018 77.1386 79.3403 76.5843 79.0301 76.1297C78.7198 75.6752 78.2251 75.4144 77.6732 75.4144H62.1568L56.3861 88.8792Z"
          fill="#6B7280"/>
    <path d="M49.5034 88.3454C49.5034 87.9906 49.7908 87.7041 50.1468 87.7041H55.5086L60.4844 76.3512C60.7632 75.717 61.3909 75.3066 62.0858 75.3066L56.2235 88.9866H50.1468C49.7908 88.9866 49.5034 88.6988 49.5034 88.3454Z"
          fill="#6B7280"/>
    <path d="M39.2463 86.062C39.2463 86.062 37.1645 97.3437 41.1194 98.5806C45.0742 99.8175 47.2647 98.8414 50.1014 97.1926C52.9382 95.5425 58.9434 90.4125 60.2303 88.4175C61.5171 86.4225 62.6609 85.5675 61.8031 84.7125C60.9452 83.8575 58.5688 85.4179 57.8267 86.062C57.0847 86.7075 58.2285 84 57.3706 84C56.5127 84 56.3698 86.565 55.5119 87.2775C54.654 87.99 47.4263 89.9793 47.4263 89.9793L47.8466 88.4303C47.8481 88.4289 41.1394 84.704 39.2463 86.062Z"
          fill="white"/>
    <path d="M44.3841 99.2403C43.4075 99.2403 42.3323 99.0721 41.0869 98.6831C37.0863 97.4334 39.0552 86.5079 39.141 86.0433L39.1481 86.0006L39.1839 85.9749C41.1098 84.5927 47.6226 88.1823 47.9 88.3347L47.9729 88.3761L47.5797 89.8239C48.7036 89.5104 54.6873 87.8217 55.4437 87.1933C55.814 86.8855 56.0499 86.1901 56.2787 85.5175C56.5618 84.681 56.8306 83.8916 57.3711 83.8916C57.4955 83.8916 57.5956 83.9358 57.6699 84.0213C57.8958 84.282 57.8086 84.882 57.73 85.4106C57.6971 85.6358 57.6528 85.935 57.6728 86.0419C57.6899 86.0319 57.7171 86.0134 57.7557 85.9806C58.5364 85.3023 60.9628 83.7234 61.8779 84.6354C62.5799 85.3351 62.0795 86.0163 61.2502 87.1449C60.9685 87.5282 60.6496 87.9628 60.3194 88.4744C58.9996 90.5207 52.88 95.6991 50.1534 97.2837C48.2403 98.3981 46.5631 99.2403 44.3841 99.2403ZM39.344 86.1246C39.2096 86.8869 37.4524 97.3222 41.1513 98.4779C45.099 99.7119 47.2366 98.733 50.0476 97.0985C52.7571 95.5224 58.8324 90.3853 60.1406 88.3575C60.4738 87.8403 60.7955 87.4042 61.0786 87.018C61.9465 85.8353 62.2782 85.3337 61.7277 84.7865C60.9313 83.9913 58.6079 85.5246 57.8973 86.1417C57.8415 86.1901 57.6957 86.3169 57.567 86.2471C57.4111 86.1616 57.4411 85.9065 57.5184 85.3807C57.5827 84.9447 57.6699 84.349 57.5083 84.1609C57.4755 84.1224 57.4311 84.1054 57.3711 84.1054C56.9836 84.1054 56.7277 84.8577 56.4817 85.5859C56.2444 86.287 55.9985 87.0109 55.581 87.3572C54.7159 88.0768 47.7513 89.9977 47.4553 90.0789L47.2737 90.1288L47.7213 88.4801C46.9935 88.0882 41.1012 84.9632 39.344 86.1246Z"
          fill="#6B7280"/>
    <path d="M51.0001 68.2734C51.0001 68.2734 46.4176 69.2168 43.9769 72.1494C41.5362 75.0821 37.5971 85.1939 38.7595 85.8338C39.9219 86.4736 46.6149 88.6838 48.2492 88.4045C48.2492 88.4045 48.6581 88.6339 49.087 87.9214C49.516 87.2089 51.5363 78.153 52.2326 75.2389C52.9475 72.2478 53.0548 69.4305 51.0001 68.2734Z"
          fill="#8C2BE3"/>
    <path d="M42.0801 75.2193L47.5362 88.4119C47.7436 88.429 47.9294 88.4347 48.0824 88.4248L42.3832 74.6436C42.2817 74.8302 42.1802 75.0226 42.0801 75.2193Z"
          fill="white"/>
    <path d="M41.2812 76.8723L42.8755 87.329C43.0514 87.3832 43.2287 87.4359 43.406 87.4872L41.6644 76.0615C41.5343 76.328 41.4071 76.5973 41.2812 76.8723Z"
          fill="white"/>
    <path d="M38.8032 83.5798L40.6119 86.5851C40.845 86.6678 41.0924 86.7533 41.3497 86.8402L38.9819 82.9072C38.9147 83.1409 38.8561 83.3661 38.8032 83.5798Z"
          fill="white"/>
    <path d="M51.2497 68.4307C51.1711 68.3766 51.0896 68.3238 51.0024 68.2754C51.0024 68.2754 50.9066 68.2953 50.7407 68.3367L51.4914 78.4356C51.6272 77.8499 51.7559 77.2956 51.8717 76.7954L51.2497 68.4307Z"
          fill="white"/>
    <path d="M45.8667 70.4658L48.7807 88.2926C48.8765 88.2142 48.9794 88.0974 49.0838 87.9235C49.1124 87.8765 49.1467 87.7938 49.1867 87.6813L46.3257 70.168C46.1713 70.262 46.0183 70.3618 45.8667 70.4658Z"
          fill="white"/>
    <path d="M46.4263 70.1072L51.1161 80.0466C51.1775 79.7815 51.239 79.5193 51.2991 79.2614L46.8609 69.8564C46.7151 69.9362 46.5707 70.0189 46.4263 70.1072Z"
          fill="white"/>
    <path d="M68.8796 83.0933C69.5903 83.0933 70.1664 82.5191 70.1664 81.8108C70.1664 81.1025 69.5903 80.5283 68.8796 80.5283C68.1689 80.5283 67.5928 81.1025 67.5928 81.8108C67.5928 82.5191 68.1689 83.0933 68.8796 83.0933Z"
          fill="#6B7280"/>
    <path d="M60.3704 59.2349L63.0656 59.4415C63.0656 59.4415 64.3096 69.3624 58.9178 67.7079V68.7411C58.9178 68.7411 60.5763 69.1543 61.1983 69.3609C61.1983 69.3609 59.1251 70.8073 56.8431 70.3941C54.5625 69.9808 53.1099 68.3278 53.1099 68.3278H54.2508L55.0801 64.2979C55.0801 64.2979 53.8362 63.4714 53.8362 62.6449C53.8362 61.8184 54.0435 61.6118 54.6655 61.4052C55.2875 61.1985 56.1168 62.2317 56.1168 62.2317C56.1168 62.2317 57.1534 60.372 57.3607 59.1309L60.3704 59.2349Z"
          fill="white"/>
    <path d="M57.6963 70.5778C57.4132 70.5778 57.1215 70.555 56.8256 70.5008C54.5336 70.0847 53.0909 68.4674 53.0308 68.399L52.875 68.2223H54.1647L54.9625 64.3463C54.7052 64.1639 53.73 63.42 53.73 62.6448C53.73 61.7485 53.996 61.5148 54.6322 61.3039C55.1856 61.1201 55.8447 61.7656 56.0978 62.0449C56.3366 61.596 57.0872 60.1311 57.2559 59.1151L57.2717 59.0225L60.3772 59.1293L63.1611 59.3431L63.1725 59.43C63.204 59.6794 63.9117 65.5532 61.6626 67.4357C60.9792 68.0071 60.0927 68.1467 59.026 67.8532V68.6612C59.3706 68.7481 60.6861 69.0815 61.2337 69.2625L61.4353 69.3295L61.2608 69.4506C61.1865 69.5019 59.6194 70.5778 57.6963 70.5778ZM53.3669 68.436C53.813 68.8692 55.0898 69.9693 56.8656 70.2914C58.6829 70.6205 60.3901 69.7299 60.9491 69.3965C60.2357 69.1813 58.9088 68.8507 58.8945 68.8478L58.813 68.8279V67.5668L58.9517 67.6095C60.0069 67.933 60.8719 67.8204 61.5254 67.2732C63.5428 65.586 63.051 60.2879 62.9709 59.544L60.3658 59.3445L57.4533 59.2448C57.213 60.4845 56.2551 62.2116 56.2136 62.2871L56.1364 62.4268L56.0363 62.3028C55.819 62.0321 55.1541 61.3595 54.7023 61.5105C54.1161 61.7057 53.9459 61.8782 53.9459 62.6491C53.9459 63.4086 55.1298 64.2052 55.1427 64.2137L55.2027 64.2536L54.3406 68.4403H53.3669V68.436Z"
          fill="#6B7280"/>
    <path d="M63.0165 59.4713C63.0165 59.4713 57.1543 62.8913 56.1534 62.1788C55.1525 61.4663 55.1368 61.2368 54.429 61.4948C53.7213 61.7527 53.8185 62.7103 53.9129 63.0138C54.0073 63.3188 55.1511 64.3163 55.1511 64.3163L54.3418 68.3291C54.3418 68.3291 44.6191 67.3316 41.4735 76.5941C41.4735 76.5941 41.0445 70.8941 43.1893 68.1866C44.4446 66.6005 46.9068 63.6266 50.0281 63.1506C51.3878 62.944 51.4336 61.7513 51.0046 60.4688C50.5757 59.1863 52.7204 57.0488 54.1502 57.0488C55.58 57.0488 56.7239 55.6238 57.8678 55.3388C59.0116 55.0538 61.1563 55.0538 63.0151 56.0513C64.8738 57.0488 65.6245 62.1617 62.9608 64.2365C62.9636 64.2365 63.3025 60.7538 63.0165 59.4713Z"
          fill="#6B7280"/>
    <path d="M48.2596 88.7295C47.7192 88.7295 47.1701 88.4859 47.1387 88.4716L47.2273 88.2764C47.2359 88.2807 48.161 88.6896 48.7029 88.4289C48.883 88.3419 48.9989 88.1909 49.0546 87.9686C49.1032 87.7748 49.2133 87.3658 49.3649 86.8001C50.0984 84.0641 51.8185 77.6587 52.0544 75.3018L52.2674 75.3231C52.0286 77.6986 50.3071 84.1154 49.5708 86.8557C49.4192 87.42 49.3091 87.8275 49.2619 88.0199C49.1905 88.3035 49.0346 88.5058 48.7958 88.6212C48.6328 88.6996 48.447 88.7295 48.2596 88.7295Z"
          fill="#6B7280"/>
    <path d="M66.9594 75.3091C66.9265 73.867 65.2408 72.1057 65.2236 72.0886L65.3781 71.9404C65.4495 72.0145 67.1381 73.7787 67.1739 75.3048L66.9594 75.3091Z"
          fill="#6B7280"/>
    <path d="M55.0916 145.742H49.2594L49.2651 145.63C49.2722 145.493 49.98 131.894 49.94 126.865C49.9014 121.835 49.6111 112.943 49.6082 112.853C49.5982 112.779 48.5774 104.423 48.2471 101.143C47.9825 98.5148 48.2499 98.0275 48.2814 97.9805L48.4601 98.0987C48.4515 98.1144 48.2042 98.5875 48.4601 101.121C48.7904 104.399 49.8113 112.753 49.8213 112.836C49.8256 112.934 50.1144 121.829 50.153 126.862C50.1902 131.653 49.5525 144.202 49.4839 145.527H55.0916V145.742Z"
          fill="white"/>
    <path d="M59.2299 116.915L59.0155 116.899C59.0226 116.805 59.7103 107.41 58.4307 101.213L58.6408 101.17C59.9277 107.396 59.2371 116.821 59.2299 116.915Z"
          fill="#6B7280"/>
    <path d="M162.113 119.486L154.366 154.114H156.225L163.972 119.486H162.113Z" fill="white"/>
    <path d="M156.28 154.185H154.276L162.054 119.415H164.059L156.28 154.185ZM154.453 154.043H156.166L163.881 119.558H162.168L154.453 154.043Z"
          fill="#6B7280"/>
    <path d="M154.056 149.277L154.041 152.378L149.894 155.271V156.717H161.507V154.238L160.456 149.277H154.056Z"
          fill="#6B7280"/>
    <path d="M176.863 108.597C176.863 108.597 178.293 113.442 176.148 122.277C174.432 125.982 166.634 125.241 160.563 124.557C160.563 124.557 160.831 129.43 161.278 132.964C161.726 136.498 161.564 143.937 161.421 149.209H153.557C153.557 149.209 147.695 134.674 146.265 117.432C145.677 110.33 173.431 105.462 176.863 108.597Z"
          fill="#D1D5DB"/>
    <path d="M158.729 145.742H152.177V145.528H158.494C157.648 135.942 156.514 120.857 156.502 120.706L156.492 120.582L156.617 120.592C156.645 120.595 159.619 120.809 169.376 119.422C171.373 119.139 172.817 118.274 173.667 116.851C175.721 113.421 173.686 107.824 173.664 107.768L173.866 107.694C173.888 107.751 175.956 113.444 173.852 116.961C172.965 118.442 171.47 119.341 169.407 119.634C160.703 120.871 157.377 120.837 156.724 120.813C156.834 122.272 157.909 136.504 158.717 145.628L158.729 145.742Z"
          fill="white"/>
    <path d="M165.497 149.277L165.483 152.378L161.335 155.271V156.717H172.948V154.238L171.897 149.277H165.497Z"
          fill="#6B7280"/>
    <path d="M188.3 108.656C188.3 108.656 192.732 117.206 190.016 121.766C187.585 125.471 178.214 124.873 172.143 124.189C172.143 124.189 172.267 129.49 172.715 133.024C173.162 136.558 173.001 143.996 172.858 149.269H164.994C164.994 149.269 159.99 134.734 158.56 117.491C157.972 110.389 184.868 105.521 188.3 108.656Z"
          fill="#D1D5DB"/>
    <path d="M193.127 120.193L200.469 153.012C200.595 153.577 200.165 154.112 199.584 154.112C199.159 154.112 198.791 153.819 198.699 153.406L191.357 120.586C191.231 120.022 191.661 119.486 192.242 119.486C192.667 119.486 193.034 119.78 193.127 120.193Z"
          fill="white"/>
    <path d="M199.587 154.22C199.108 154.22 198.7 153.895 198.598 153.429L191.255 120.61C191.188 120.309 191.261 119.999 191.454 119.758C191.647 119.517 191.936 119.379 192.246 119.379C192.725 119.379 193.133 119.704 193.236 120.17L200.578 152.989C200.645 153.29 200.572 153.6 200.379 153.841C200.186 154.082 199.896 154.22 199.587 154.22ZM192.245 119.593C192 119.593 191.773 119.701 191.62 119.892C191.467 120.081 191.41 120.327 191.463 120.565L198.805 153.384C198.886 153.751 199.208 154.008 199.586 154.008C199.83 154.008 200.057 153.9 200.209 153.709C200.362 153.519 200.419 153.274 200.366 153.036L193.024 120.217C192.943 119.849 192.622 119.593 192.245 119.593Z"
          fill="#6B7280"/>
    <path d="M174.311 124.9C174.311 124.9 191.707 126.611 194.853 121.196C197.998 115.781 200.143 101.959 197.283 94.2637C197.283 94.2637 194.783 107.834 194.389 108.317C193.995 108.799 192.708 114.641 185.416 115.496C178.124 116.351 174.359 117.775 174.311 124.9Z"
          fill="white"/>
    <path d="M180.316 125.264C176.956 125.264 174.334 125.01 174.299 125.007L174.202 124.997V124.9C174.225 121.443 175.14 119.175 177.082 117.761C178.976 116.382 181.779 115.816 185.402 115.39C191.59 114.664 193.377 110.389 194.049 108.781C194.167 108.5 194.238 108.33 194.304 108.249C194.587 107.876 196.177 99.6692 197.176 94.2442L197.246 93.8623L197.382 94.2271C198.698 97.7668 199.068 102.87 198.425 108.597C197.853 113.69 196.519 118.538 194.943 121.249C193.619 123.528 189.737 124.853 183.406 125.185C182.345 125.242 181.298 125.264 180.316 125.264ZM174.418 124.803C175.825 124.929 191.805 126.228 194.759 121.142C197.687 116.102 200.039 102.62 197.315 94.6746C196.85 97.184 194.846 107.926 194.471 108.383C194.424 108.44 194.347 108.625 194.248 108.862C193.628 110.345 191.74 114.861 185.428 115.602C177.887 116.487 174.495 118.029 174.418 124.803Z"
          fill="#6B7280"/>
    <path d="M173.959 84.5762C173.959 84.5762 168.458 87.325 167.629 90.0111C166.8 92.6972 166.592 95.3848 165.141 96.4179C163.69 97.451 163.275 97.6577 164.312 98.4842C165.348 99.3107 169.898 103.037 169.898 103.037L173.959 84.5762Z"
          fill="#8C2BE3"/>
    <path d="M170.031 91.5686C169.919 91.5686 169.809 91.5259 169.732 91.4432L168.74 90.3431L167.75 91.4432C167.62 91.5843 167.39 91.6114 167.226 91.5045C167.167 91.466 167.123 91.4162 167.097 91.3592C167.043 91.248 167.063 91.1169 167.151 91.0186L167.186 90.9801L168.249 89.8002L167.835 89.3385L167.882 89.2701C167.982 89.1233 168.089 88.9794 168.202 88.8426L168.281 88.7471L168.738 89.2559L169.729 88.1572C169.858 88.0147 170.088 87.9876 170.254 88.0945C170.34 88.1501 170.395 88.2341 170.408 88.3282C170.421 88.4194 170.393 88.5092 170.328 88.5818L169.23 89.8002L170.328 91.0186C170.393 91.0913 170.421 91.181 170.408 91.2737C170.395 91.3677 170.338 91.4518 170.252 91.5059C170.188 91.5473 170.109 91.5686 170.031 91.5686ZM168.741 90.0225L169.892 91.2993C169.949 91.362 170.064 91.3734 170.14 91.3235C170.174 91.3022 170.194 91.2722 170.2 91.2409C170.204 91.2124 170.194 91.1825 170.172 91.1582L168.946 89.7974L170.172 88.4365C170.194 88.4123 170.204 88.3837 170.2 88.3552C170.195 88.3239 170.174 88.294 170.141 88.2726C170.064 88.2227 169.951 88.2341 169.892 88.2983L168.741 89.5736L168.291 89.0749C168.228 89.1547 168.166 89.2373 168.108 89.32L168.54 89.7988L167.311 91.1611C167.283 91.1924 167.276 91.2323 167.293 91.268C167.303 91.2922 167.32 91.3107 167.344 91.325C167.42 91.3748 167.534 91.3634 167.593 91.2993L168.741 90.0225Z"
          fill="white"/>
    <path d="M175.509 83.8109C175.509 83.8109 169.91 85.8772 169.702 90.631C169.495 95.3848 169.91 101.792 169.91 103.858C169.91 105.924 168.251 108.818 169.702 109.438C171.154 110.058 180.901 111.918 190.026 108.405C190.026 108.405 191.062 96.8312 191.062 91.0442C191.062 85.2573 189.404 82.7764 183.597 82.7764L175.509 83.8109Z"
          fill="#8C2BE3"/>
    <path d="M185.915 100.514C185.902 100.42 185.846 100.335 185.76 100.279C185.594 100.172 185.364 100.199 185.236 100.342L184.245 101.44L183.254 100.342C183.125 100.199 182.895 100.172 182.729 100.279C182.643 100.335 182.588 100.42 182.575 100.514C182.562 100.605 182.592 100.695 182.656 100.768L183.754 101.986L182.656 103.205C182.592 103.276 182.563 103.366 182.575 103.458C182.588 103.552 182.643 103.638 182.729 103.693C182.895 103.8 183.125 103.773 183.254 103.631L184.245 102.532L185.236 103.631C185.311 103.715 185.421 103.759 185.534 103.759C185.613 103.759 185.692 103.738 185.76 103.693C185.846 103.638 185.902 103.552 185.915 103.458C185.928 103.367 185.898 103.277 185.833 103.205L184.735 101.986L185.833 100.768C185.899 100.695 185.928 100.605 185.915 100.514ZM182.816 100.624C182.793 100.6 182.785 100.571 182.788 100.541C182.792 100.508 182.813 100.479 182.846 100.457C182.879 100.436 182.918 100.426 182.955 100.426C183.008 100.426 183.061 100.446 183.094 100.483L184.1 101.599L183.897 101.824L182.816 100.624ZM185.675 100.624L184.448 101.985L185.675 103.346C185.697 103.37 185.706 103.398 185.703 103.428C185.699 103.461 185.677 103.491 185.645 103.512C185.567 103.562 185.454 103.551 185.396 103.487L184.246 102.21L183.097 103.487C183.039 103.551 182.925 103.562 182.848 103.512C182.815 103.491 182.793 103.461 182.789 103.428C182.785 103.4 182.795 103.371 182.818 103.346L185.397 100.484C185.454 100.42 185.569 100.409 185.646 100.459C185.679 100.48 185.7 100.51 185.705 100.543C185.706 100.571 185.696 100.6 185.675 100.624Z"
          fill="white"/>
    <path d="M181.767 84.4116C181.754 84.3176 181.699 84.2321 181.613 84.1765C181.447 84.0696 181.217 84.0967 181.088 84.2392L180.097 85.3379L179.106 84.2392C178.978 84.0967 178.748 84.0696 178.582 84.1765C178.496 84.2321 178.44 84.3176 178.427 84.4116C178.414 84.5028 178.444 84.5926 178.509 84.6653L179.607 85.8836L178.509 87.102C178.444 87.1732 178.416 87.263 178.427 87.3556C178.44 87.4497 178.496 87.5352 178.582 87.5908C178.748 87.6976 178.978 87.6706 179.106 87.5281L180.097 86.4294L181.088 87.5281C181.164 87.6121 181.274 87.6563 181.387 87.6563C181.466 87.6563 181.544 87.6349 181.613 87.5908C181.699 87.5352 181.754 87.4497 181.767 87.3556C181.78 87.2644 181.75 87.1747 181.686 87.102L180.588 85.8836L181.686 84.6653C181.752 84.5926 181.78 84.5028 181.767 84.4116ZM178.669 84.5214C178.646 84.4971 178.637 84.4686 178.64 84.4387C178.645 84.4059 178.666 84.376 178.699 84.3546C178.732 84.3333 178.77 84.3233 178.808 84.3233C178.86 84.3233 178.913 84.3432 178.946 84.3803L179.953 85.496L179.75 85.7212L178.669 84.5214ZM181.527 84.5214L180.3 85.8822L181.527 87.2431C181.55 87.2673 181.559 87.2958 181.556 87.3257C181.551 87.3585 181.53 87.3884 181.497 87.4098C181.42 87.4597 181.307 87.4483 181.248 87.3841L180.099 86.1074L178.949 87.3841C178.892 87.4483 178.778 87.4597 178.7 87.4098C178.667 87.3884 178.646 87.3585 178.642 87.3257C178.637 87.2972 178.647 87.2687 178.67 87.2431L181.25 84.3817C181.307 84.3176 181.421 84.3062 181.498 84.356C181.531 84.3774 181.553 84.4074 181.557 84.4401C181.559 84.4686 181.549 84.4971 181.527 84.5214Z"
          fill="white"/>
    <path d="M190.254 97.3081L189.261 96.208C189.133 96.0669 188.902 96.0413 188.738 96.1467C188.652 96.2009 188.595 96.2863 188.582 96.3804C188.569 96.473 188.599 96.5628 188.664 96.6355L189.76 97.8538L188.664 99.0722C188.598 99.1435 188.569 99.2332 188.582 99.3244C188.595 99.4185 188.651 99.504 188.737 99.5581C188.804 99.6023 188.884 99.6237 188.962 99.6237C189.074 99.6237 189.186 99.5795 189.261 99.4954L190.252 98.3968L190.848 99.0594L190.908 98.0377L190.741 97.8524L190.931 97.6415L190.934 97.6045C190.951 97.3309 190.966 97.0573 190.98 96.7837L190.996 96.4816L190.254 97.3081ZM190.724 97.5532L190.457 97.8524L190.693 98.1146L190.667 98.535L190.254 98.0776L189.103 99.3529C189.044 99.4171 188.931 99.4285 188.854 99.3786C188.819 99.3572 188.799 99.3273 188.795 99.2959C188.791 99.2674 188.801 99.2389 188.824 99.2133L190.049 97.8524L188.824 96.4915C188.801 96.4659 188.791 96.4374 188.795 96.4089C188.799 96.3775 188.819 96.3476 188.854 96.3262C188.885 96.3049 188.924 96.2949 188.962 96.2949C189.015 96.2949 189.068 96.3134 189.101 96.3505L190.252 97.6273L190.75 97.0744C190.743 97.234 190.734 97.3936 190.724 97.5532Z"
          fill="white"/>
    <path d="M178.337 99.2319C178.324 99.1379 178.268 99.0524 178.183 98.9968C178.017 98.8899 177.787 98.917 177.658 99.0595L176.667 100.158L175.676 99.0595C175.548 98.917 175.317 98.8899 175.151 98.9968C175.066 99.0524 175.01 99.1379 174.997 99.2319C174.984 99.3231 175.014 99.4129 175.079 99.4856L176.177 100.704L175.079 101.922C175.014 101.994 174.986 102.083 174.997 102.176C175.01 102.27 175.066 102.356 175.151 102.411C175.317 102.518 175.548 102.491 175.676 102.348L176.667 101.25L177.658 102.348C177.734 102.433 177.844 102.477 177.957 102.477C178.035 102.477 178.114 102.455 178.183 102.411C178.268 102.356 178.324 102.27 178.337 102.176C178.35 102.085 178.32 101.995 178.256 101.922L177.158 100.704L178.256 99.4856C178.321 99.4129 178.35 99.3231 178.337 99.2319ZM175.239 99.3417C175.216 99.3174 175.207 99.2889 175.21 99.259C175.214 99.2262 175.236 99.1963 175.269 99.1749C175.302 99.1536 175.34 99.1436 175.377 99.1436C175.43 99.1436 175.483 99.1635 175.516 99.2006L176.523 100.316L176.32 100.542L175.239 99.3417ZM178.097 99.3417L176.87 100.703L178.097 102.063C178.12 102.088 178.128 102.116 178.125 102.146C178.121 102.179 178.1 102.209 178.067 102.23C177.99 102.28 177.877 102.267 177.818 102.205L176.669 100.928L175.519 102.205C175.462 102.269 175.347 102.28 175.27 102.23C175.237 102.209 175.216 102.179 175.212 102.146C175.207 102.118 175.217 102.089 175.24 102.063L177.82 99.202C177.877 99.1379 177.991 99.1265 178.068 99.1764C178.101 99.1977 178.123 99.2277 178.127 99.2604C178.128 99.2889 178.118 99.3174 178.097 99.3417Z"
          fill="white"/>
    <path d="M181.483 92.2485C181.47 92.1545 181.414 92.069 181.328 92.0134C181.162 91.9065 180.932 91.9336 180.803 92.0761L179.813 93.1748L178.822 92.0761C178.693 91.9336 178.463 91.9065 178.297 92.0134C178.211 92.069 178.155 92.1545 178.143 92.2485C178.13 92.3397 178.16 92.4295 178.224 92.5022L179.322 93.7206L178.224 94.939C178.16 95.0102 178.131 95.1 178.143 95.1926C178.155 95.2867 178.211 95.3722 178.297 95.4277C178.463 95.5346 178.693 95.5075 178.822 95.365L179.813 94.2664L180.803 95.365C180.879 95.4491 180.989 95.4933 181.102 95.4933C181.181 95.4933 181.26 95.4719 181.328 95.4277C181.414 95.3722 181.47 95.2867 181.483 95.1926C181.496 95.1014 181.465 95.0116 181.401 94.939L180.303 93.7206L181.401 92.5022C181.467 92.4295 181.496 92.3397 181.483 92.2485ZM178.384 92.3583C178.361 92.334 178.353 92.3055 178.356 92.2756C178.36 92.2428 178.381 92.2129 178.414 92.1916C178.447 92.1702 178.486 92.1602 178.523 92.1602C178.576 92.1602 178.629 92.1802 178.662 92.2172L179.668 93.333L179.465 93.5581L178.384 92.3583ZM181.242 92.3583L180.016 93.7192L181.242 95.08C181.265 95.1043 181.274 95.1328 181.271 95.1627C181.267 95.1955 181.245 95.2254 181.212 95.2468C181.135 95.2967 181.022 95.2852 180.964 95.2211L179.814 93.9443L178.664 95.2211C178.607 95.2852 178.493 95.2967 178.416 95.2468C178.383 95.2254 178.361 95.1955 178.357 95.1627C178.353 95.1342 178.363 95.1057 178.386 95.08L180.965 92.2186C181.022 92.1545 181.137 92.1431 181.214 92.193C181.247 92.2143 181.268 92.2443 181.272 92.277C181.274 92.3055 181.264 92.334 181.242 92.3583Z"
          fill="white"/>
    <path d="M174.333 93.9585C174.32 93.8645 174.265 93.779 174.179 93.7234C174.013 93.6165 173.783 93.6436 173.654 93.7861L172.663 94.8848L171.672 93.7861C171.544 93.6436 171.313 93.6165 171.148 93.7234C171.062 93.779 171.005 93.8645 170.993 93.9585C170.982 94.0497 171.01 94.1395 171.075 94.2122L172.173 95.4305L171.075 96.6489C171.01 96.7202 170.982 96.81 170.993 96.9026C171.006 96.9966 171.062 97.0821 171.148 97.1377C171.313 97.2446 171.544 97.2175 171.672 97.075L172.663 95.9763L173.654 97.075C173.73 97.1591 173.84 97.2033 173.953 97.2033C174.032 97.2033 174.11 97.1819 174.179 97.1377C174.265 97.0821 174.32 96.9966 174.333 96.9026C174.346 96.8114 174.316 96.7216 174.252 96.6489L173.154 95.4305L174.252 94.2122C174.317 94.1395 174.346 94.0497 174.333 93.9585ZM171.235 94.0682C171.212 94.044 171.203 94.0155 171.206 93.9856C171.211 93.9528 171.232 93.9229 171.265 93.9015C171.298 93.8801 171.336 93.8702 171.374 93.8702C171.426 93.8702 171.479 93.8901 171.512 93.9272L172.519 95.0429L172.316 95.2681L171.235 94.0682ZM174.093 94.0682L172.866 95.4291L174.093 96.79C174.116 96.8142 174.124 96.8427 174.122 96.8726C174.117 96.9054 174.096 96.9354 174.063 96.9567C173.986 97.0066 173.873 96.9952 173.814 96.9311L172.665 95.6543L171.515 96.9311C171.458 96.9952 171.343 97.0066 171.266 96.9567C171.233 96.9354 171.212 96.9054 171.208 96.8726C171.203 96.8441 171.213 96.8156 171.236 96.79L173.816 93.9286C173.873 93.8645 173.987 93.8531 174.064 93.9029C174.097 93.9243 174.119 93.9542 174.123 93.987C174.124 94.0155 174.114 94.044 174.093 94.0682Z"
          fill="white"/>
    <path d="M187.345 92.5337C187.333 92.4397 187.277 92.3542 187.191 92.2986C187.025 92.1917 186.795 92.2188 186.666 92.3613L185.675 93.46L184.685 92.3613C184.556 92.2188 184.326 92.1917 184.16 92.2986C184.074 92.3542 184.018 92.4397 184.005 92.5337C183.992 92.6249 184.023 92.7147 184.087 92.7874L185.185 94.0057L184.087 95.2241C184.023 95.2954 183.994 95.3851 184.005 95.4778C184.018 95.5718 184.074 95.6573 184.16 95.7129C184.326 95.8198 184.556 95.7927 184.685 95.6502L185.675 94.5515L186.666 95.6502C186.742 95.7343 186.852 95.7784 186.965 95.7784C187.044 95.7784 187.122 95.7571 187.191 95.7129C187.277 95.6573 187.333 95.5718 187.345 95.4778C187.358 95.3866 187.328 95.2968 187.264 95.2241L186.166 94.0057L187.264 92.7874C187.33 92.7147 187.358 92.6249 187.345 92.5337ZM184.247 92.6434C184.224 92.6192 184.216 92.5907 184.218 92.5608C184.223 92.528 184.244 92.4981 184.277 92.4767C184.31 92.4553 184.349 92.4454 184.386 92.4454C184.439 92.4454 184.492 92.4653 184.524 92.5024L185.531 93.6181L185.328 93.8433L184.247 92.6434ZM187.105 92.6434L185.878 94.0043L187.105 95.3652C187.128 95.3894 187.137 95.4179 187.134 95.4478C187.13 95.4806 187.108 95.5105 187.075 95.5319C186.998 95.5818 186.885 95.5704 186.826 95.5063L185.677 94.2295L184.527 95.5063C184.47 95.5704 184.356 95.5818 184.278 95.5319C184.246 95.5105 184.224 95.4806 184.22 95.4478C184.216 95.4193 184.226 95.3908 184.248 95.3652L186.828 92.5038C186.885 92.4397 186.999 92.4282 187.077 92.4781C187.11 92.4995 187.131 92.5294 187.135 92.5622C187.137 92.5907 187.127 92.6192 187.105 92.6434Z"
          fill="white"/>
    <path d="M175.191 90.4875C175.204 90.3963 175.174 90.3066 175.11 90.2339L174.012 89.0155L175.11 87.7971C175.174 87.7259 175.203 87.6361 175.191 87.5435C175.178 87.4494 175.123 87.3639 175.037 87.3083C174.871 87.2015 174.641 87.2285 174.512 87.371L173.521 88.4697L172.53 87.371C172.402 87.2285 172.171 87.2015 172.006 87.3083C171.92 87.3639 171.864 87.4494 171.851 87.5435C171.838 87.6347 171.868 87.7244 171.933 87.7971L173.031 89.0155L171.933 90.2339C171.868 90.3051 171.84 90.3949 171.851 90.4875C171.864 90.5816 171.92 90.6671 172.006 90.7227C172.171 90.8296 172.402 90.8025 172.53 90.66L173.521 89.5613L174.512 90.66C174.588 90.7441 174.698 90.7882 174.811 90.7882C174.889 90.7882 174.968 90.7669 175.037 90.7227C175.123 90.6671 175.18 90.5816 175.191 90.4875ZM172.093 87.656C172.07 87.6318 172.061 87.6033 172.064 87.5734C172.068 87.5406 172.09 87.5107 172.123 87.4893C172.156 87.468 172.194 87.458 172.231 87.458C172.284 87.458 172.337 87.4779 172.37 87.515L173.377 88.6308L173.174 88.8559L172.093 87.656ZM174.919 90.5431C174.842 90.593 174.729 90.5816 174.671 90.5175L173.521 89.2407L172.372 90.5175C172.314 90.5816 172.2 90.593 172.123 90.5431C172.09 90.5217 172.068 90.4918 172.064 90.459C172.06 90.4305 172.07 90.402 172.093 90.3764L174.672 87.515C174.729 87.4508 174.844 87.4395 174.921 87.4893C174.954 87.5107 174.975 87.5406 174.98 87.5734C174.984 87.6019 174.974 87.6304 174.951 87.656L173.724 89.0169L174.951 90.3778C174.974 90.402 174.982 90.4305 174.98 90.4605C174.975 90.4918 174.954 90.5217 174.919 90.5431Z"
          fill="white"/>
    <path d="M188.059 85.2671C188.046 85.173 187.99 85.0876 187.904 85.032C187.739 84.9251 187.508 84.9522 187.38 85.0947L186.389 86.1933L185.398 85.0947C185.269 84.9522 185.039 84.9251 184.873 85.032C184.787 85.0876 184.732 85.173 184.719 85.2671C184.706 85.3583 184.736 85.4481 184.8 85.5207L185.898 86.7391L184.8 87.9575C184.736 88.0287 184.707 88.1185 184.719 88.2111C184.732 88.3052 184.787 88.3907 184.873 88.4462C185.039 88.5531 185.269 88.526 185.398 88.3835L186.389 87.2849L187.38 88.3835C187.455 88.4676 187.566 88.5118 187.679 88.5118C187.757 88.5118 187.836 88.4904 187.904 88.4462C187.99 88.3907 188.046 88.3052 188.059 88.2111C188.072 88.1199 188.042 88.0301 187.977 87.9575L186.879 86.7391L187.977 85.5207C188.043 85.4481 188.072 85.3583 188.059 85.2671ZM184.96 85.3768C184.938 85.3526 184.929 85.3241 184.932 85.2942C184.936 85.2614 184.958 85.2315 184.99 85.2101C185.023 85.1887 185.062 85.1787 185.099 85.1787C185.152 85.1787 185.205 85.1987 185.238 85.2357L186.244 86.3515L186.041 86.5767L184.96 85.3768ZM187.819 85.3768L186.592 86.7377L187.819 88.0985C187.841 88.1228 187.85 88.1513 187.847 88.1812C187.843 88.214 187.821 88.2439 187.789 88.2653C187.711 88.3151 187.598 88.3037 187.54 88.2396L186.39 86.9628L185.241 88.2396C185.183 88.3037 185.069 88.3151 184.992 88.2653C184.959 88.2439 184.938 88.214 184.933 88.1812C184.929 88.1527 184.939 88.1242 184.962 88.0985L187.541 85.2372C187.598 85.1731 187.713 85.1616 187.79 85.2115C187.823 85.2329 187.844 85.2628 187.849 85.2956C187.85 85.3241 187.84 85.3526 187.819 85.3768Z"
          fill="white"/>
    <path d="M185.476 113.113L192.866 155.346C193.005 156.14 193.676 156.717 194.459 156.717C195.467 156.717 196.231 155.776 196.052 154.753L188.661 112.52C188.523 111.727 187.852 111.149 187.069 111.149C186.061 111.149 185.297 112.09 185.476 113.113Z"
          fill="white"/>
    <path d="M194.458 156.825C193.622 156.825 192.908 156.211 192.76 155.365L185.369 113.132C185.276 112.6 185.42 112.063 185.764 111.654C186.091 111.265 186.566 111.043 187.066 111.043C187.903 111.043 188.616 111.657 188.765 112.504L196.155 154.736C196.248 155.268 196.104 155.806 195.761 156.214C195.435 156.602 194.959 156.825 194.458 156.825ZM187.068 111.257C186.63 111.257 186.215 111.452 185.928 111.793C185.625 112.152 185.498 112.626 185.581 113.095L192.971 155.328C193.101 156.072 193.726 156.61 194.458 156.61C194.896 156.61 195.31 156.415 195.598 156.074C195.901 155.715 196.028 155.241 195.945 154.772L188.555 112.539C188.424 111.797 187.8 111.257 187.068 111.257Z"
          fill="#6B7280"/>
    <path d="M144.433 113.113L137.043 155.346C136.904 156.14 136.233 156.717 135.45 156.717C134.442 156.717 133.678 155.776 133.857 154.753L141.248 112.52C141.386 111.727 142.057 111.149 142.841 111.149C143.85 111.149 144.612 112.09 144.433 113.113Z"
          fill="white"/>
    <path d="M135.452 156.825C134.952 156.825 134.477 156.603 134.149 156.214C133.805 155.806 133.662 155.268 133.755 154.736L141.146 112.504C141.294 111.657 142.008 111.043 142.844 111.043C143.345 111.043 143.819 111.265 144.147 111.654C144.491 112.062 144.634 112.6 144.541 113.132L144.436 113.113L144.541 113.132L137.151 155.365C137.002 156.211 136.288 156.825 135.452 156.825ZM142.843 111.257C142.111 111.257 141.486 111.797 141.356 112.539L133.965 154.772C133.883 155.241 134.009 155.715 134.312 156.074C134.6 156.415 135.014 156.61 135.452 156.61C136.184 156.61 136.809 156.07 136.939 155.328L144.33 113.095C144.411 112.626 144.285 112.152 143.982 111.793C143.695 111.452 143.28 111.257 142.843 111.257Z"
          fill="#6B7280"/>
    <path d="M197.714 98.6817C197.714 98.6817 198.684 106.608 195.554 108.487C195.554 108.487 192.424 110.794 184.417 108.229C176.41 105.664 171.12 104.097 171.12 104.097L174.551 101.674C174.551 101.674 187.848 102.244 188.849 101.959C189.85 101.674 189.275 98.7829 189.275 98.7829C189.275 98.7829 196.57 96.8292 197.714 98.6817Z"
          fill="white"/>
    <path d="M191.235 109.556C189.529 109.556 187.275 109.258 184.382 108.332C176.468 105.797 171.14 104.216 171.088 104.199L170.876 104.136L174.518 101.566L174.555 101.567C174.688 101.573 187.846 102.133 188.819 101.856C189.561 101.646 189.323 99.5807 189.169 98.8041L189.149 98.7057L189.246 98.6801C189.547 98.5989 196.633 96.7278 197.805 98.6259L197.818 98.6459L197.821 98.6687C197.861 98.995 198.763 106.684 195.609 108.578C195.53 108.635 194.229 109.556 191.235 109.556ZM171.359 104.057C172.423 104.374 177.415 105.873 184.448 108.126C192.296 110.64 195.457 108.423 195.489 108.4C198.449 106.622 197.664 99.1945 197.609 98.7171C196.551 97.0969 190.256 98.6402 189.398 98.8596C189.504 99.4353 189.867 101.779 188.877 102.06C187.888 102.342 175.507 101.821 174.582 101.781L171.359 104.057Z"
          fill="#6B7280"/>
    <path d="M184.36 107.766C184.36 107.069 183.837 106.505 183.192 106.505H177.231C176.791 106.505 176.388 106.237 176.189 105.812L172.46 93.4601C172.261 93.0355 171.858 92.7676 171.418 92.7676H152.485C151.595 92.7676 151.031 93.8021 151.464 94.6443L156.496 108.381C156.702 108.782 157.092 109.028 157.517 109.028H183.192C183.838 109.028 184.36 108.463 184.36 107.766Z"
          fill="white"/>
    <path d="M183.194 109.135H157.519C157.056 109.135 156.629 108.864 156.404 108.43L151.367 94.6813C151.142 94.2467 151.161 93.7052 151.423 93.2777C151.659 92.8915 152.058 92.6621 152.488 92.6621H171.42C171.905 92.6621 172.342 92.9514 172.56 93.4159L172.565 93.4302L176.291 105.775C176.474 106.16 176.835 106.399 177.234 106.399H183.194C183.898 106.399 184.47 107.013 184.47 107.767C184.468 108.521 183.897 109.135 183.194 109.135ZM152.488 92.8744C152.128 92.8744 151.806 93.0611 151.606 93.3874C151.383 93.7508 151.367 94.2139 151.563 94.5944L156.6 108.343C156.782 108.695 157.136 108.92 157.519 108.92H183.194C183.779 108.92 184.255 108.401 184.255 107.764C184.255 107.127 183.779 106.61 183.194 106.61H177.234C176.749 106.61 176.311 106.321 176.094 105.856L176.088 105.842L172.362 93.4972C172.179 93.1124 171.819 92.873 171.42 92.873H152.488V92.8744Z"
          fill="#6B7280"/>
    <path d="M176.963 73.77L174.268 73.9767C174.268 73.9767 173.024 83.8976 178.415 82.2431V83.2763C178.415 83.2763 176.757 83.6895 176.135 83.8961C176.135 83.8961 178.208 85.3425 180.49 84.9293C182.772 84.516 184.223 82.863 184.223 82.863H183.082L182.253 78.8331C182.253 78.8331 183.497 78.0066 183.497 77.1801C183.497 76.3536 183.29 76.1469 182.668 75.9403C182.046 75.7337 181.216 76.7668 181.216 76.7668C181.216 76.7668 180.18 74.9072 179.973 73.666L176.963 73.77Z"
          fill="white"/>
    <path d="M179.633 85.1124C177.71 85.1124 176.143 84.0365 176.068 83.9838L175.894 83.8627L176.096 83.7957C176.643 83.6133 177.959 83.2799 178.303 83.1944V82.3864C177.237 82.6814 176.35 82.5403 175.667 81.9689C173.416 80.0864 174.125 74.2126 174.157 73.9632L174.168 73.8763L176.956 73.6625L180.058 73.5557L180.073 73.6483C180.243 74.6643 180.993 76.1292 181.231 76.5781C181.483 76.2988 182.144 75.6547 182.697 75.8371C183.333 76.0494 183.599 76.2817 183.599 77.178C183.599 77.9532 182.624 78.6971 182.367 78.8795L183.165 82.7555H184.454L184.298 82.9322C184.238 83.0006 182.796 84.6179 180.504 85.034C180.208 85.0896 179.916 85.1124 179.633 85.1124ZM176.381 83.9297C176.941 84.2631 178.648 85.1552 180.465 84.8246C182.242 84.5025 183.519 83.4024 183.964 82.9692H182.989L182.126 78.7826L182.187 78.7427C182.198 78.7341 183.383 77.9375 183.383 77.178C183.383 76.4071 183.213 76.2347 182.627 76.0394C182.175 75.8884 181.51 76.561 181.293 76.8317L181.193 76.9557L181.116 76.8161C181.074 76.742 180.116 75.0134 179.876 73.7737L176.963 73.8734L174.358 74.0729C174.278 74.8168 173.786 80.1135 175.804 81.8021C176.457 82.3479 177.324 82.4619 178.377 82.1384L178.516 82.0957V83.3568L178.435 83.3768C178.422 83.3839 177.095 83.7159 176.381 83.9297Z"
          fill="#6B7280"/>
    <path d="M174.14 76.3986C174.14 76.3986 173.434 76.457 173.019 74.804C172.605 73.151 172.605 71.9099 174.056 71.0834C175.507 70.2569 177.374 70.0502 178.826 70.8767C180.277 71.7032 181.314 71.9099 182.352 71.4966C183.388 71.0834 184.217 71.29 184.217 72.943C184.217 74.596 185.187 79.1503 182.525 80.1806L182.144 78.7314C182.144 78.7314 184.057 78.0331 183.205 76.2119C183.205 76.2119 182.144 75.2173 181.315 76.8703C181.315 76.8703 179.759 75.1133 179.759 73.8735C179.759 73.8735 178.308 74.9038 177.064 74.9066C175.745 74.9109 174.183 74.4806 174.14 76.3986Z"
          fill="#6B7280"/>
    <path d="M186.354 82.8086C186.354 82.8086 190.937 83.7519 193.378 86.6846C195.818 89.6187 196.994 93.194 197.397 94.5207C197.8 95.8474 199.902 98.3041 198.74 98.9439C197.577 99.5837 190.202 100.527 188.566 100.248C188.566 100.248 188.209 100.319 187.923 99.179C187.637 98.039 185.492 89.489 185.492 87.3515C185.491 85.7598 185.359 84.3932 186.354 82.8086Z"
          fill="#8C2BE3"/>
    <path d="M190.999 97.4431C190.833 97.3362 190.602 97.3633 190.473 97.5058L189.484 98.6059L188.493 97.5072C188.365 97.3647 188.135 97.3362 187.968 97.4445C187.882 97.5001 187.826 97.587 187.813 97.6811C187.802 97.7723 187.831 97.8621 187.895 97.9333L188.992 99.1517L188.157 100.079L188.214 100.151C188.365 100.34 188.503 100.36 188.56 100.359C188.631 100.37 188.709 100.379 188.804 100.387L188.857 100.391L189.484 99.6961L190.11 100.39L190.16 100.389C190.37 100.38 190.59 100.367 190.823 100.352L191.043 100.337L189.974 99.1531L191.072 97.9347C191.136 97.8635 191.165 97.7723 191.152 97.6811C191.141 97.5842 191.085 97.4987 190.999 97.4431ZM190.912 97.7894L189.685 99.1503L190.589 100.151C190.456 100.159 190.327 100.166 190.201 100.171L189.484 99.374L188.769 100.166C188.697 100.159 188.636 100.152 188.583 100.142L188.571 100.138L188.551 100.142C188.55 100.142 188.507 100.142 188.441 100.081L189.281 99.1489L188.055 97.788C188.032 97.7637 188.024 97.7352 188.027 97.7067C188.031 97.674 188.052 97.644 188.085 97.6227C188.162 97.5728 188.275 97.5842 188.333 97.6483L189.484 98.9251L190.633 97.6483C190.69 97.5842 190.805 97.5728 190.882 97.6212C190.915 97.6426 190.936 97.6725 190.941 97.7053C190.943 97.7352 190.935 97.7652 190.912 97.7894Z"
          fill="white"/>
    <path d="M195.981 95.7303L197.079 94.512C197.143 94.4407 197.172 94.3509 197.16 94.2583C197.148 94.1643 197.092 94.0788 197.006 94.0232C196.84 93.9163 196.61 93.9434 196.481 94.0859L195.49 95.1846L194.5 94.0859C194.371 93.9434 194.141 93.9163 193.975 94.0232C193.889 94.0788 193.833 94.1643 193.82 94.2583C193.809 94.3495 193.837 94.4393 193.902 94.512L195 95.7303L193.902 96.9487C193.837 97.02 193.809 97.1098 193.82 97.2024C193.833 97.2964 193.889 97.3819 193.975 97.4375C194.141 97.5444 194.371 97.5173 194.5 97.3748L195.49 96.2761L196.481 97.3748C196.557 97.4589 196.667 97.5031 196.78 97.5031C196.859 97.5031 196.937 97.4817 197.006 97.4375C197.092 97.3819 197.148 97.2964 197.16 97.2024C197.172 97.1112 197.143 97.0214 197.079 96.9487L195.981 95.7303ZM196.889 97.2565C196.812 97.3064 196.699 97.295 196.64 97.2309L195.49 95.9541L194.341 97.2309C194.284 97.295 194.169 97.3064 194.092 97.2565C194.059 97.2352 194.038 97.2052 194.033 97.1725C194.029 97.144 194.039 97.1155 194.062 97.0898L195.289 95.7289L194.062 94.368C194.039 94.3438 194.031 94.3153 194.033 94.2854C194.038 94.2526 194.059 94.2227 194.092 94.2013C194.169 94.1514 194.282 94.1628 194.341 94.227L195.49 95.5038L196.64 94.227C196.697 94.1628 196.812 94.1514 196.889 94.2013C196.922 94.2227 196.943 94.2526 196.947 94.2854C196.952 94.3139 196.942 94.3424 196.919 94.368L195.692 95.7289L196.919 97.0898C196.942 97.114 196.95 97.1425 196.947 97.1725C196.943 97.2052 196.922 97.2352 196.889 97.2565Z"
          fill="white"/>
    <path d="M191.866 90.1255C191.854 90.0315 191.798 89.946 191.712 89.8904C191.546 89.7835 191.316 89.8106 191.187 89.9531L190.196 91.0517L189.206 89.9531C189.077 89.8106 188.847 89.7835 188.681 89.8904C188.595 89.946 188.539 90.0315 188.526 90.1255C188.515 90.2167 188.544 90.3065 188.608 90.3791L189.706 91.5975L188.608 92.8159C188.544 92.8871 188.515 92.9769 188.526 93.0695C188.539 93.1636 188.595 93.2491 188.681 93.3046C188.847 93.4115 189.077 93.3844 189.206 93.2419L190.196 92.1433L191.187 93.2419C191.263 93.326 191.373 93.3702 191.486 93.3702C191.565 93.3702 191.643 93.3488 191.712 93.3046C191.798 93.2491 191.854 93.1636 191.866 93.0695C191.878 92.9783 191.849 92.8886 191.785 92.8159L190.687 91.5975L191.785 90.3791C191.849 90.3079 191.878 90.2167 191.866 90.1255ZM191.625 90.2366L190.398 91.5975L191.625 92.9584C191.648 92.9826 191.656 93.0111 191.653 93.041C191.649 93.0738 191.628 93.1037 191.595 93.1251C191.518 93.175 191.405 93.1636 191.346 93.0994L190.196 91.8227L189.047 93.0994C188.99 93.1636 188.875 93.175 188.798 93.1251C188.765 93.1037 188.744 93.0738 188.739 93.041C188.735 93.0125 188.745 92.984 188.768 92.9584L189.995 91.5975L188.768 90.2366C188.745 90.2124 188.737 90.1839 188.739 90.154C188.744 90.1212 188.765 90.0913 188.798 90.0699C188.875 90.0201 188.988 90.0315 189.047 90.0956L190.196 91.3724L191.346 90.0956C191.403 90.0315 191.516 90.0201 191.595 90.0699C191.628 90.0913 191.649 90.1212 191.653 90.154C191.658 90.1825 191.648 90.211 191.625 90.2366Z"
          fill="white"/>
    <path d="M188.008 88.2228C188.019 88.1316 187.99 88.0419 187.926 87.9692L186.828 86.7508L187.926 85.5325C187.99 85.4612 188.019 85.3714 188.008 85.2788C187.995 85.1848 187.939 85.0993 187.853 85.0437C187.687 84.9368 187.457 84.9639 187.328 85.1064L186.338 86.2051L185.347 85.1064C185.218 84.9639 184.988 84.9368 184.822 85.0437C184.736 85.0993 184.68 85.1848 184.668 85.2788C184.656 85.37 184.685 85.4598 184.749 85.5325L185.847 86.7508L184.749 87.9692C184.685 88.0404 184.656 88.1302 184.668 88.2228C184.68 88.3169 184.736 88.4024 184.822 88.458C184.988 88.5648 185.218 88.5378 185.347 88.3953L186.338 87.2966L187.328 88.3953C187.404 88.4793 187.514 88.5235 187.627 88.5235C187.706 88.5235 187.785 88.5021 187.853 88.458C187.938 88.4024 187.995 88.3169 188.008 88.2228ZM187.736 88.2784C187.659 88.3283 187.546 88.3169 187.487 88.2528L186.338 86.976L185.188 88.2528C185.131 88.3169 185.016 88.3283 184.939 88.2784C184.906 88.257 184.885 88.2271 184.881 88.1943C184.876 88.1658 184.886 88.1373 184.909 88.1117L186.136 86.7508L184.909 85.39C184.886 85.3657 184.878 85.3372 184.881 85.3073C184.885 85.2745 184.906 85.2446 184.939 85.2232C185.016 85.1734 185.129 85.1848 185.188 85.2489L186.338 86.5257L187.487 85.2489C187.544 85.1848 187.659 85.1734 187.736 85.2232C187.769 85.2446 187.79 85.2745 187.795 85.3073C187.799 85.3358 187.789 85.3643 187.766 85.39L186.539 86.7508L187.766 88.1117C187.789 88.1359 187.797 88.1644 187.795 88.1943C187.79 88.2271 187.769 88.257 187.736 88.2784Z"
          fill="white"/>
    <path d="M194.014 87.6534C194.027 87.5622 193.999 87.4724 193.933 87.3997L192.835 86.1828L192.948 86.056L192.873 85.9847C192.739 85.8565 192.613 85.741 192.489 85.6342L192.409 85.5658L192.344 85.637L191.955 85.2038L191.94 85.1896C191.625 84.9544 191.278 84.7222 190.907 84.5013L190.839 84.46L190.78 84.5141C190.646 84.6367 190.636 84.8305 190.757 84.963L191.854 86.1814L190.757 87.3983C190.693 87.4696 190.664 87.5593 190.676 87.6505C190.689 87.7446 190.744 87.8315 190.83 87.8871C190.899 87.9313 190.977 87.9526 191.056 87.9526C191.169 87.9526 191.279 87.9085 191.354 87.8244L192.344 86.7257L193.334 87.8244C193.462 87.9669 193.693 87.994 193.86 87.8857C193.947 87.8329 194.003 87.7474 194.014 87.6534ZM193.744 87.709C193.667 87.7588 193.553 87.7474 193.495 87.6833L192.346 86.4079L191.195 87.6833C191.138 87.7474 191.025 87.7588 190.947 87.709C190.913 87.6876 190.893 87.6562 190.889 87.6235C190.885 87.595 190.895 87.5665 190.917 87.5408L192.143 86.1814L190.917 84.8205C190.895 84.7963 190.886 84.7663 190.889 84.7393C191.216 84.9388 191.524 85.1454 191.804 85.3549L192.346 85.9576L192.43 85.865C192.503 85.9291 192.576 85.9961 192.652 86.0674L192.549 86.1828L193.776 87.5422C193.798 87.5679 193.807 87.5964 193.804 87.6249C193.798 87.6576 193.777 87.6876 193.744 87.709Z"
          fill="white"/>
    <path d="M138.708 109.084H192.951C193.844 109.084 194.569 109.806 194.569 110.697V111.035C194.569 111.925 193.844 112.648 192.951 112.648H138.708C137.814 112.648 137.089 111.925 137.089 111.035V110.697C137.089 109.806 137.814 109.084 138.708 109.084Z"
          fill="white"/>
    <path d="M192.953 112.753H138.712C137.761 112.753 136.986 111.982 136.986 111.033V110.696C136.986 109.748 137.759 108.976 138.712 108.976H192.955C193.905 108.976 194.68 109.747 194.68 110.696V111.033C194.679 111.982 193.905 112.753 192.953 112.753ZM138.712 109.191C137.878 109.191 137.2 109.866 137.2 110.697V111.035C137.2 111.865 137.878 112.541 138.712 112.541H192.955C193.788 112.541 194.466 111.865 194.466 111.035V110.697C194.466 109.866 193.788 109.191 192.955 109.191H138.712Z"
          fill="#6B7280"/>
    <path d="M189.243 100.525C189.054 100.525 188.838 100.49 188.625 100.381C188.191 100.158 187.895 99.6888 187.743 98.9892C187.32 97.0184 185.758 90.7898 185.743 90.7271L185.951 90.6758C185.967 90.7385 187.53 96.97 187.955 98.9436C188.09 99.5763 188.349 99.9966 188.724 100.19C189.207 100.44 189.732 100.225 189.736 100.222L189.82 100.418C189.803 100.426 189.562 100.525 189.243 100.525Z"
          fill="#6B7280"/>
    <path d="M169.755 92.7694L169.54 92.7651C169.543 92.6126 169.614 89.0045 170.434 87.7861L170.612 87.9044C169.829 89.0729 169.756 92.7323 169.755 92.7694Z"
          fill="#6B7280"/>
    <path d="M170.594 145.599H164.043V145.385H170.36C169.513 135.8 168.38 120.714 168.368 120.563L168.358 120.439L168.483 120.449C168.511 120.452 171.485 120.666 181.242 119.28C183.238 118.996 184.682 118.131 185.533 116.709C187.586 113.279 185.552 107.681 185.53 107.626L185.732 107.552C185.753 107.609 187.822 113.302 185.718 116.819C184.831 118.299 183.335 119.198 181.272 119.492C172.569 120.729 169.242 120.695 168.59 120.67C168.7 122.13 169.775 136.361 170.583 145.485L170.594 145.599Z"
          fill="white"/>
    <path d="M161.367 136.821C161.216 136.093 157.655 118.943 158.702 115.677C159.211 114.086 162.714 112.677 162.863 112.617L162.943 112.815C162.907 112.83 159.386 114.247 158.907 115.741C157.878 118.954 161.54 136.599 161.577 136.777L161.367 136.821Z"
          fill="#6B7280"/>
    <path d="M163.899 102.03C164.61 102.03 165.186 101.456 165.186 100.747C165.186 100.039 164.61 99.4648 163.899 99.4648C163.188 99.4648 162.612 100.039 162.612 100.747C162.612 101.456 163.188 102.03 163.899 102.03Z"
          fill="#6B7280"/>
</svg>
