<svg xmlns="http://www.w3.org/2000/svg" x="0px" y="0px"
     width="64" height="64"
     viewBox="0 0 172 172"
     style=" fill:#000000;"><g fill="none" fill-rule="nonzero" stroke="none" stroke-width="1" stroke-linecap="butt" stroke-linejoin="miter" stroke-miterlimit="10" stroke-dasharray="" stroke-dashoffset="0" font-family="none" font-weight="none" font-size="none" text-anchor="none" style="mix-blend-mode: normal"><path d="M0,172v-172h172v172z" fill="none"></path><g><path d="M115.5625,12.09375h-72.5625c-7.39062,0 -13.4375,6.04688 -13.4375,13.4375v120.9375c0,7.39063 6.04688,13.4375 13.4375,13.4375h86c7.39063,0 13.4375,-6.04687 13.4375,-13.4375v-107.5c0,-14.78125 -12.09375,-26.875 -26.875,-26.875z" fill="#1fd4af"></path><path d="M142.4375,38.96875h-13.4375c-7.39062,0 -13.4375,-6.04687 -13.4375,-13.4375v-13.4375v0c14.78125,0 26.875,12.09375 26.875,26.875zM80.625,67.1875h10.75v10.75h-10.75z" fill="#ffffff"></path><path d="M91.375,81.96875h-10.75c-2.28437,0 -4.03125,-1.74688 -4.03125,-4.03125v-10.75c0,-2.28437 1.74688,-4.03125 4.03125,-4.03125h10.75c2.28437,0 4.03125,1.74688 4.03125,4.03125v10.75c0,2.28437 -1.74688,4.03125 -4.03125,4.03125zM84.65625,73.90625h2.6875v-2.6875h-2.6875zM53.75,67.1875h10.75v10.75h-10.75z" fill="#ffffff"></path><path d="M64.5,81.96875h-10.75c-2.28438,0 -4.03125,-1.74688 -4.03125,-4.03125v-10.75c0,-2.28437 1.74687,-4.03125 4.03125,-4.03125h10.75c2.28437,0 4.03125,1.74688 4.03125,4.03125v10.75c0,2.28437 -1.74688,4.03125 -4.03125,4.03125zM57.78125,73.90625h2.6875v-2.6875h-2.6875zM53.75,94.0625h10.75v10.75h-10.75z" fill="#ffffff"></path><path d="M64.5,108.84375h-10.75c-2.28438,0 -4.03125,-1.74688 -4.03125,-4.03125v-10.75c0,-2.28437 1.74687,-4.03125 4.03125,-4.03125h10.75c2.28437,0 4.03125,1.74688 4.03125,4.03125v10.75c0,2.28437 -1.74688,4.03125 -4.03125,4.03125zM57.78125,100.78125h2.6875v-2.6875h-2.6875zM53.75,120.9375h10.75v10.75h-10.75z" fill="#ffffff"></path><path d="M64.5,135.71875h-10.75c-2.28438,0 -4.03125,-1.74687 -4.03125,-4.03125v-10.75c0,-2.28437 1.74687,-4.03125 4.03125,-4.03125h10.75c2.28437,0 4.03125,1.74688 4.03125,4.03125v10.75c0,2.28438 -1.74688,4.03125 -4.03125,4.03125zM57.78125,127.65625h2.6875v-2.6875h-2.6875zM80.625,120.9375h10.75v10.75h-10.75z" fill="#ffffff"></path><path d="M91.375,135.71875h-10.75c-2.28437,0 -4.03125,-1.74687 -4.03125,-4.03125v-10.75c0,-2.28437 1.74688,-4.03125 4.03125,-4.03125h10.75c2.28437,0 4.03125,1.74688 4.03125,4.03125v10.75c0,2.28438 -1.74688,4.03125 -4.03125,4.03125zM84.65625,127.65625h2.6875v-2.6875h-2.6875z" fill="#ffffff"></path><g fill="#ffffff"><path d="M80.625,94.0625h10.75v10.75h-10.75z"></path><path d="M91.375,108.84375h-10.75c-2.28437,0 -4.03125,-1.74688 -4.03125,-4.03125v-10.75c0,-2.28437 1.74688,-4.03125 4.03125,-4.03125h10.75c2.28437,0 4.03125,1.74688 4.03125,4.03125v10.75c0,2.28437 -1.74688,4.03125 -4.03125,4.03125zM84.65625,100.78125h2.6875v-2.6875h-2.6875z"></path></g><g fill="#ffffff"><path d="M107.5,94.0625h10.75v10.75h-10.75z"></path><path d="M118.25,108.84375h-10.75c-2.28437,0 -4.03125,-1.74688 -4.03125,-4.03125v-10.75c0,-2.28437 1.74688,-4.03125 4.03125,-4.03125h10.75c2.28437,0 4.03125,1.74688 4.03125,4.03125v10.75c0,2.28437 -1.74688,4.03125 -4.03125,4.03125zM111.53125,100.78125h2.6875v-2.6875h-2.6875z"></path></g><g fill="#ffffff"><path d="M107.5,67.1875h10.75v10.75h-10.75z"></path><path d="M118.25,81.96875h-10.75c-2.28437,0 -4.03125,-1.74688 -4.03125,-4.03125v-10.75c0,-2.28437 1.74688,-4.03125 4.03125,-4.03125h10.75c2.28437,0 4.03125,1.74688 4.03125,4.03125v10.75c0,2.28437 -1.74688,4.03125 -4.03125,4.03125zM111.53125,73.90625h2.6875v-2.6875h-2.6875z"></path></g><g fill="#ffffff"><path d="M107.5,120.9375h10.75v10.75h-10.75z"></path><path d="M118.25,135.71875h-10.75c-2.28437,0 -4.03125,-1.74687 -4.03125,-4.03125v-10.75c0,-2.28437 1.74688,-4.03125 4.03125,-4.03125h10.75c2.28437,0 4.03125,1.74688 4.03125,4.03125v10.75c0,2.28438 -1.74688,4.03125 -4.03125,4.03125zM111.53125,127.65625h2.6875v-2.6875h-2.6875z"></path></g><g fill="#444b54"><path d="M129,43h12.9c0.13437,0 0.26875,0 0.5375,0v0c1.6125,0 3.09062,-1.075 3.7625,-2.41875c0.26875,-0.5375 0.40313,-1.075 0.40313,-1.6125c0,-0.13437 0,-0.40313 0,-0.5375c-0.13438,-8.0625 -3.35937,-15.5875 -9.00313,-21.36562c-6.04687,-5.77813 -13.70625,-9.00313 -22.0375,-9.00313v0h-72.5625c-9.675,0 -17.46875,7.79375 -17.46875,17.46875v120.9375c0,9.80937 7.92813,17.46875 14.78125,17.46875h85.73125c11.69062,0 20.15625,-7.39062 20.15625,-17.46875l0.13438,-90.03125c0,-2.28438 -1.74687,-4.03125 -4.03125,-4.03125v0c-2.28438,0 -4.03125,1.74687 -4.03125,4.03125l-0.13438,90.03125c0,5.64375 -4.8375,9.40625 -12.09375,9.40625h-85.73125c-2.28437,0 -6.71875,-4.03125 -6.71875,-9.40625v-120.9375c0,-5.24063 4.16562,-9.40625 9.40625,-9.40625h68.53125v9.40625c0,9.675 7.79375,17.46875 17.46875,17.46875zM138.00313,34.9375h-9.00313c-5.24063,0 -9.40625,-4.16563 -9.40625,-9.40625v-9.00313c4.56875,0.80625 8.73438,2.95625 12.09375,6.31563c3.35938,3.35938 5.50938,7.525 6.31563,12.09375z"></path></g></g></g></svg>