<svg xmlns="http://www.w3.org/2000/svg" x="0px" y="0px"
     width="64" height="64"
     viewBox="0 0 172 172"
     style=" fill:#000000;">
    <g fill="none" fill-rule="nonzero" stroke="none" stroke-width="1" stroke-linecap="butt" stroke-linejoin="miter"
       stroke-miterlimit="10" stroke-dasharray="" stroke-dashoffset="0" font-family="none" font-weight="none"
       font-size="none" text-anchor="none" style="mix-blend-mode: normal">
        <path d="M0,172v-172h172v172z" fill="none"></path>
        <g>
            <path d="M145.125,25.53125v121.60938c0,10.75 -8.73437,19.48438 -19.48437,19.48438h-120.26562v-141.09375v0z"
                  fill="#ffffff"></path>
            <path d="M118.25,57.78125h-13.4375c-2.28437,0 -4.03125,1.74687 -4.03125,4.03125c0,2.28437 1.74688,4.03125 4.03125,4.03125h13.4375c2.28437,0 4.03125,-1.74688 4.03125,-4.03125c0,-2.28438 -1.74688,-4.03125 -4.03125,-4.03125z"
                  fill="#444b54"></path>
            <path d="M145.125,20.15625h-15.18437c-1.88125,-10.61562 -11.2875,-18.8125 -22.44063,-18.8125c-11.15313,0 -20.55938,8.19688 -22.44062,18.8125h-20.82812c-1.74688,-11.01875 -10.2125,-18.8125 -21.23125,-18.8125c-11.15312,0 -20.55937,8.19688 -22.44062,18.8125h-15.18437c-2.28438,0 -4.03125,1.74687 -4.03125,4.03125v142.4375c0,2.28438 1.74687,4.03125 4.03125,4.03125h69.875c2.28437,0 4.03125,-1.74687 4.03125,-4.03125c0,-2.28438 -1.74688,-4.03125 -4.03125,-4.03125h-65.84375v-96.75h68.53125c2.28437,0 4.03125,-1.74688 4.03125,-4.03125c0,-2.28438 -1.74688,-4.03125 -4.03125,-4.03125h-68.53125v-29.5625h11.15313c1.88125,10.61563 11.2875,18.8125 22.44063,18.8125c2.28438,0 4.03125,-1.74687 4.03125,-4.03125c0,-2.28438 -1.74687,-4.03125 -4.03125,-4.03125c-6.71875,0 -12.49687,-4.56875 -14.24375,-10.75h56.30313c1.88125,10.61563 11.2875,18.8125 22.44062,18.8125c2.28437,0 4.03125,-1.74687 4.03125,-4.03125c0,-2.28438 -1.74688,-4.03125 -4.03125,-4.03125c-6.71875,0 -12.49688,-4.56875 -14.24375,-10.75h47.8375v30.90625c0,2.28438 1.74687,4.03125 4.03125,4.03125c2.28438,0 4.03125,-1.74687 4.03125,-4.03125v-34.9375c0,-2.28438 -1.74687,-4.03125 -4.03125,-4.03125zM28.75625,20.15625c1.74688,-6.18125 7.525,-10.75 14.24375,-10.75c6.45,0 11.55625,4.3 13.03438,10.75zM93.25625,20.15625c1.74687,-6.18125 7.525,-10.75 14.24375,-10.75c6.71875,0 12.49688,4.56875 14.24375,10.75z"
                  fill="#444b54"></path>
            <circle cx="94" cy="94" transform="scale(1.34375,1.34375)" r="30" fill="#2ecc71"></circle>
            <path d="M126.3125,170.65625c-24.45625,0 -44.34375,-19.8875 -44.34375,-44.34375c0,-24.45625 19.8875,-44.34375 44.34375,-44.34375c24.45625,0 44.34375,19.8875 44.34375,44.34375c0,24.45625 -19.8875,44.34375 -44.34375,44.34375zM126.3125,90.03125c-20.02188,0 -36.28125,16.25937 -36.28125,36.28125c0,20.02187 16.25937,36.28125 36.28125,36.28125c20.02187,0 36.28125,-16.25938 36.28125,-36.28125c0,-20.02188 -16.25938,-36.28125 -36.28125,-36.28125z"
                  fill="#2ecc71"></path>
            <g fill="#ffffff">
                <path d="M126.3125,143.78125c-2.28437,0 -4.03125,-1.74687 -4.03125,-4.03125v-26.875c0,-2.28437 1.74688,-4.03125 4.03125,-4.03125c2.28438,0 4.03125,1.74688 4.03125,4.03125v26.875c0,2.28438 -1.74687,4.03125 -4.03125,4.03125z"></path>
            </g>
            <g fill="#ffffff">
                <path d="M139.75,130.34375h-26.875c-2.28437,0 -4.03125,-1.74687 -4.03125,-4.03125c0,-2.28437 1.74688,-4.03125 4.03125,-4.03125h26.875c2.28438,0 4.03125,1.74688 4.03125,4.03125c0,2.28438 -1.74687,4.03125 -4.03125,4.03125z"></path>
            </g>
        </g>
    </g>
</svg>