<?xml version="1.0" encoding="iso-8859-1"?>
<!-- Generator: Adobe Illustrator 21.0.0, SVG Export Plug-In . SVG Version: 6.00 Build 0)  -->
<svg version="1.1" id="Capa_1" xmlns="http://www.w3.org/2000/svg" xmlns:xlink="http://www.w3.org/1999/xlink" x="0px" y="0px"
	 viewBox="0 0 512 512" style="enable-background:new 0 0 512 512;" xml:space="preserve">
<path style="fill:#F5F4F7;" d="M504,52H8c-4.418,0-8,3.582-8,8v392c0,4.418,3.582,8,8,8h496c4.418,0,8-3.582,8-8V60
	C512,55.582,508.418,52,504,52z"/>
<path style="fill:#EBE8EF;" d="M24,452V60c0-4.418,3.582-8,8-8H8c-4.418,0-8,3.582-8,8v392c0,4.418,3.582,8,8,8h24
	C27.582,460,24,456.418,24,452z"/>
<path style="fill:#E76C91;" d="M504,52H8c-4.418,0-8,3.582-8,8v56h512V60C512,55.582,508.418,52,504,52z"/>
<path style="fill:#E45781;" d="M32,52H8c-4.418,0-8,3.582-8,8v56h24V60C24,55.582,27.582,52,32,52z"/>
<g>
	<circle style="fill:#DD2D62;" cx="448" cy="84" r="7.5"/>
	<circle style="fill:#DD2D62;" cx="424" cy="84" r="7.5"/>
	<circle style="fill:#DD2D62;" cx="472" cy="84" r="7.5"/>
</g>
<path style="fill:#BCB2DA;" d="M248,148H56c-4.418,0-8,3.582-8,8v248c0,4.418,3.582,8,8,8h192c4.418,0,8-3.582,8-8V156
	C256,151.582,252.418,148,248,148z"/>
<path style="fill:#F6EF72;" d="M456,148H288c-4.418,0-8,3.582-8,8v88c0,4.418,3.582,8,8,8h168c4.418,0,8-3.582,8-8v-88
	C464,151.582,460.418,148,456,148z"/>
<path style="fill:#CFEC8C;" d="M456,276H288c-4.418,0-8,3.582-8,8v120c0,4.418,3.582,8,8,8h168c4.418,0,8-3.582,8-8V284
	C464,279.582,460.418,276,456,276z"/>
<g>
</g>
<g>
</g>
<g>
</g>
<g>
</g>
<g>
</g>
<g>
</g>
<g>
</g>
<g>
</g>
<g>
</g>
<g>
</g>
<g>
</g>
<g>
</g>
<g>
</g>
<g>
</g>
<g>
</g>
</svg>
