<svg xmlns="http://www.w3.org/2000/svg" x="0px" y="0px"
     width="64" height="64"
     viewBox="0 0 172 172"
     style=" fill:#000000;">
    <g fill="none" fill-rule="nonzero" stroke="none" stroke-width="1" stroke-linecap="butt" stroke-linejoin="miter"
       stroke-miterlimit="10" stroke-dasharray="" stroke-dashoffset="0" font-family="none" font-weight="none"
       font-size="none" text-anchor="none" style="mix-blend-mode: normal">
        <path d="M0,172v-172h172v172z" fill="none"></path>
        <g id="Layer_1">
            <path d="M153.1875,166.625h-134.375c-7.39062,0 -13.4375,-6.04687 -13.4375,-13.4375v-134.375c0,-7.39062 6.04688,-13.4375 13.4375,-13.4375h134.375c7.39063,0 13.4375,6.04688 13.4375,13.4375v134.375c0,7.39063 -6.04687,13.4375 -13.4375,13.4375z"
                  fill="#ffffff"></path>
            <path d="M139.75,73.90625h-36.28125c-2.28437,0 -4.03125,1.74688 -4.03125,4.03125v40.3125c0,2.28437 1.74688,4.03125 4.03125,4.03125h36.28125c2.28438,0 4.03125,-1.74688 4.03125,-4.03125v-40.3125c0,-2.28437 -1.74687,-4.03125 -4.03125,-4.03125z"
                  fill="#71c2ff"></path>
            <path d="M153.1875,170.65625h-134.375c-9.675,0 -17.46875,-7.79375 -17.46875,-17.46875v-98.09375c0,-2.28438 1.74687,-4.03125 4.03125,-4.03125c2.28437,0 4.03125,1.74687 4.03125,4.03125v98.09375c0,5.24062 4.16563,9.40625 9.40625,9.40625h134.375c5.24062,0 9.40625,-4.16563 9.40625,-9.40625v-134.375c0,-5.24062 -4.16563,-9.40625 -9.40625,-9.40625h-134.375c-5.24062,0 -9.40625,4.16563 -9.40625,9.40625v14.78125h139.75c2.28438,0 4.03125,1.74688 4.03125,4.03125c0,2.28437 -1.74687,4.03125 -4.03125,4.03125h-143.78125c-2.28438,0 -4.03125,-1.74688 -4.03125,-4.03125v-18.8125c0,-9.675 7.79375,-17.46875 17.46875,-17.46875h134.375c9.675,0 17.46875,7.79375 17.46875,17.46875v134.375c0,9.675 -7.79375,17.46875 -17.46875,17.46875z"
                  fill="#444b54"></path>
            <circle cx="16" cy="16" transform="scale(1.34375,1.34375)" r="3" fill="#444b54"></circle>
            <circle cx="26" cy="16" transform="scale(1.34375,1.34375)" r="3" fill="#444b54"></circle>
            <circle cx="36" cy="16" transform="scale(1.34375,1.34375)" r="3" fill="#444b54"></circle>
            <path d="M81.96875,81.96875h-49.71875c-2.28438,0 -4.03125,-1.74688 -4.03125,-4.03125c0,-2.28437 1.74687,-4.03125 4.03125,-4.03125h49.71875c2.28437,0 4.03125,1.74688 4.03125,4.03125c0,2.28437 -1.74688,4.03125 -4.03125,4.03125z"
                  fill="#71c2ff"></path>
            <path d="M81.96875,102.125h-49.71875c-2.28438,0 -4.03125,-1.74688 -4.03125,-4.03125c0,-2.28437 1.74687,-4.03125 4.03125,-4.03125h49.71875c2.28437,0 4.03125,1.74688 4.03125,4.03125c0,2.28437 -1.74688,4.03125 -4.03125,4.03125z"
                  fill="#71c2ff"></path>
            <path d="M68.53125,122.28125h-36.28125c-2.28438,0 -4.03125,-1.74688 -4.03125,-4.03125c0,-2.28437 1.74687,-4.03125 4.03125,-4.03125h36.28125c2.28437,0 4.03125,1.74688 4.03125,4.03125c0,2.28437 -1.74688,4.03125 -4.03125,4.03125z"
                  fill="#71c2ff"></path>
            <path d="M81.96875,122.28125c-0.26875,0 -0.5375,0 -0.80625,-0.13437c-0.26875,0 -0.5375,-0.13437 -0.80625,-0.26875c-0.26875,-0.13437 -0.40313,-0.26875 -0.67187,-0.40312c-0.26875,-0.13437 -0.40313,-0.26875 -0.67187,-0.5375c-0.67187,-0.5375 -1.075,-1.6125 -1.075,-2.6875c0,-0.26875 0,-0.5375 0.13438,-0.80625c0,-0.26875 0.13437,-0.5375 0.26875,-0.80625c0.13438,-0.26875 0.26875,-0.40313 0.40313,-0.67187c0.13437,-0.26875 0.26875,-0.40313 0.5375,-0.67187c1.47813,-1.47812 4.16563,-1.47812 5.64375,0c0.13438,0.13437 0.40313,0.40312 0.5375,0.67188c0.13437,0.26875 0.26875,0.40312 0.40312,0.67188c0.13438,0.26875 0.13438,0.5375 0.26875,0.80625c0,0.26875 0.13437,0.5375 0.13437,0.80625c0,1.075 -0.40312,2.15 -1.20937,2.82187c-0.94062,0.80625 -2.01562,1.20938 -3.09062,1.20938z"
                  fill="#71c2ff"></path>
        </g>
    </g>
</svg>