<svg width="64" height="64" viewBox="0 0 64 64" fill="none" xmlns="http://www.w3.org/2000/svg">
    <path d="M0 32C0 5.648 5.648 0 32 0C58.352 0 64 5.648 64 32C64 58.352 58.352 64 32 64C5.648 64 0 58.352 0 32Z"
          fill="currentColor"/>
    <path d="M25.8975 23.2749C26.5898 22.905 27.3347 22.7861 28.06 22.786C28.8997 22.786 29.8748 23.0618 30.6624 23.7072C31.487 24.3829 32.0475 25.4195 32.0475 26.7722C32.0475 28.3266 30.949 29.1706 30.3297 29.6463C30.2815 29.6833 30.2364 29.7181 30.1948 29.7508C29.5176 30.283 29.2563 30.5674 29.2563 31.1583C29.2563 31.819 28.7207 32.3546 28.0601 32.3546C27.3994 32.3546 26.8639 31.819 26.8639 31.1583C26.8639 29.3497 27.9983 28.4341 28.7166 27.8696C29.5353 27.2263 29.655 27.083 29.655 26.7722C29.655 26.139 29.418 25.7806 29.1461 25.5577C28.8372 25.3046 28.4168 25.1784 28.0602 25.1784C27.5892 25.1785 27.2656 25.2564 27.0248 25.385C26.796 25.5073 26.5539 25.7219 26.3205 26.1524C26.0057 26.7332 25.2796 26.9487 24.6988 26.6338C24.118 26.319 23.9025 25.5929 24.2173 25.0121C24.6379 24.2364 25.1932 23.6511 25.8975 23.2749ZM28.0604 37.1396C28.9413 37.1396 29.6554 36.4255 29.6554 35.5446C29.6554 34.6636 28.9413 33.9495 28.0604 33.9495C27.1794 33.9495 26.4653 34.6636 26.4653 35.5446C26.4653 36.4255 27.1794 37.1396 28.0604 37.1396ZM28.0603 18C21.4538 18 16.0982 23.3556 16.0982 29.9621C16.0982 31.769 16.4996 33.4851 17.2189 35.0235C16.8137 36.6153 16.3611 38.3902 16.0638 39.5553C15.6921 41.0119 17.0038 42.337 18.4622 41.9865C19.6588 41.6989 21.4978 41.2574 23.1365 40.8668C24.6395 41.5464 26.3072 41.9243 28.0603 41.9243C34.6669 41.9243 40.0225 36.5686 40.0225 29.9621C40.0225 23.3556 34.6669 18 28.0603 18ZM18.4906 29.9621C18.4906 24.6769 22.7751 20.3924 28.0603 20.3924C33.3456 20.3924 37.6301 24.6769 37.6301 29.9621C37.6301 35.2473 33.3456 39.5318 28.0603 39.5318C26.528 39.5318 25.083 39.1726 23.8019 38.5348L23.4136 38.3415L22.9918 38.442C21.52 38.7922 19.8197 39.1999 18.5454 39.506C18.8624 38.2634 19.2822 36.6169 19.6461 35.1867L19.758 34.7467L19.5498 34.3431C18.8732 33.0318 18.4906 31.5434 18.4906 29.9621ZM36.0352 46.7093C32.8941 46.7093 30.0358 45.4985 27.9014 43.5184C27.9543 43.519 28.0073 43.5194 28.0604 43.5194C29.2056 43.5194 30.3174 43.3773 31.3797 43.1099C32.7575 43.8787 34.3452 44.3168 36.0352 44.3168C37.5674 44.3168 39.0125 43.9575 40.2935 43.3197L40.6819 43.1264L41.1038 43.2268C42.5735 43.5768 44.238 43.9379 45.4725 44.199C45.1935 43.002 44.8128 41.3997 44.4493 39.9716L44.3375 39.5317L44.5457 39.1281C45.2222 37.8168 45.6049 36.3284 45.6049 34.7471C45.6049 31.3741 43.86 28.4089 41.2235 26.7046C40.939 25.5511 40.5069 24.4557 39.9482 23.4396C44.6331 25.0606 47.9973 29.5109 47.9973 34.7471C47.9973 36.5544 47.5957 38.2709 46.876 39.8095C47.2796 41.4172 47.6883 43.1587 47.9475 44.2805C48.2735 45.692 47.0304 46.9696 45.6069 46.6721C44.4472 46.4297 42.625 46.0408 40.9602 45.6512C39.457 46.3311 37.7888 46.7093 36.0352 46.7093Z"
          fill="white"/>
</svg>
